<svg xmlns="http://www.w3.org/2000/svg" width="1600" height="1200"><path d="M406.9 1031.1c58.3 0 112.5 24.5 169.6 32.5 55.5 7.7 110.4-5 165-13.6 27.5-4.3 55.3-7.7 83.2-6.3 28.8 1.5 55.5 9.3 81.7 20.9 23.7 10.6 46.9 22.9 72 30 23.9 6.8 48.5 7.1 72.9 2.8 57.4-10.1 110.2-41.4 169.5-41.1 1.9 0 1.9-3 0-3-51.9-.3-99.2 23.4-148.4 36.3-25.6 6.7-52.3 10.3-78.5 5.5-26.5-4.8-50.9-17-75.1-28.2-24-11.1-48.3-20.8-74.7-24.4-27.2-3.7-54.7-2.1-81.8 1.5-55 7.1-109.7 22.1-165.5 18.7-64.5-4-124.6-34.5-189.7-34.5-2.1-.1-2.1 2.9-.2 2.9zM326.5 1043.1c11.9-4.5 24.1-7.7 36.7-9.6 1.9-.3 1.1-3.2-.8-2.9-12.6 1.8-24.8 5-36.7 9.6-1.8.7-1 3.6.8 2.9zM305.1 1069.1c67-29.5 139.3 3.8 204.8 20.7 19.2 5 38.8 8.7 58.7 9.8 1.9.1 1.9-2.9 0-3-72.2-3.9-137.8-44.2-210.9-41.8-18.6.6-37 4.3-54 11.8-1.8.7-.3 3.3 1.4 2.5zM615.3 1124.1c15.4-2.3 30-7.4 44.7-12.4 14.6-4.9 29.3-9.1 44.3-12.2 31-6.3 62.8-8.4 94.3-6.2 18.3 1.3 36.5 4.1 54.3 8.2 1.9.4 2.7-2.5.8-2.9-61.8-14.3-127.2-11.7-187.6 7.9-17.1 5.5-33.8 12-51.7 14.7-1.8.3-1 3.2.9 2.9zM973.6 1128.2c20.8 10.7 44.6 10.9 67.3 7.8 26.3-3.5 52.1-10.5 77.6-18.1 50.7-15.1 101.2-33.5 154.5-36.7 29.3-1.8 58.8 1.3 86.3 11.8 1.8.7 2.6-2.2.8-2.9-100.7-38.6-202.7 20.5-300.5 39.7-27.7 5.4-58.4 9.1-84.4-4.3-1.8-.8-3.3 1.8-1.6 2.7zM1280.5 1057.6c22.7-.6 45.2 3.8 66 13.2 1.7.8 3.3-1.8 1.5-2.6-21.2-9.6-44.2-14.2-67.5-13.6-2 .1-2 3.1 0 3z" fill="#161616"/><g><path d="M573.6 1059.6c-7.8-8.2-13.9-17.9-17.8-28.6-1.7-4.8-3-9.7-3.8-14.7-.5-3-2.5-11.4 4.4-9.5 2.7.8 5.8 5 7.3 7.2 1.1 1.6 3.7.1 2.6-1.5-5.2-7.5-9.1-15.8-11.5-24.6-1.2-4.4-2-9-2.5-13.6-.2-2.2-.3-4.4-.3-6.7 0-1.1 0-2.2.1-3.3-.2-2.2.8-3.9 3.2-5.1 1-.3 1.9-.5 2.9-.8-1.6-4.1-2.8-8.3-3.6-12.6-.4-2.4-.7-4.9-.9-7.4 0-.3.2-9.5 1.8-7.8 1 1.1 3 0 2.5-1.5-5.1-16.1-6.1-33.2-2.5-49.8.7-3.2 1.3-7.9 3.6-10.5 3-3.4 7.3-1.6 9.5 1.6 1.4 2 2.3 4.3 3.1 6.6 2.5 7.6 3.4 15.8 4.9 23.6 6.5 34.1 12.7 68.3 16.3 102.9 2 19.4 3.2 38.9 3.2 58.4 0 1.9 3 1.9 3 0 0-40.5-5.2-80.8-12-120.7-3.4-19.7-6.8-39.6-11-59.2-1.4-6.4-3.7-15.6-10.6-18.2-5.1-1.9-8.8 2.2-10.5 6.6-7.1 18.4-5.6 40.9.2 59.4.8-.5 1.7-1 2.5-1.5-3.7-3.8-6.7 1.1-7 4.6-.7 8.7 1.5 18 4.6 26 .7 1.8 3.5 1.1 2.9-.8-.9-2.9-4.4-3.8-6.8-1.8-4 3.3-2.5 12.6-2.1 16.9 1.1 14.6 6.2 28.5 14.4 40.5.9-.5 1.7-1 2.6-1.5-2.6-3.7-8.7-11.4-14.1-9.3-5.5 2.1-3.6 10.6-2.9 14.8 2.8 16.5 10.7 31.7 22.2 43.8 1.3 1.6 3.5-.5 2.1-1.9z" fill="#e8e8e8"/><path d="M595 986.3c0-9.8.9-19.5 2.8-29 .8-3.7 5.6-27.6 9.9-26.9.7.1 1.7-.2 1.8-1 2-10.6 4.8-21 8.5-31.1 3.6-9.6 7.6-22 15.9-28.6h-2.1c5.3 5.8 3.8 16.3 3.9 23.6 0 8-.2 16-.7 24.1-1 16.9-3 33.7-5.7 50.3-5.2 32.5-13 64.6-20.9 96.6-.5 1.9 2.4 2.7 2.9.8 8.6-34.5 16.9-69 22.1-104.2 2.5-16.7 4.2-33.4 4.9-50.2.4-9 .5-18 .2-27-.2-5.8-.5-11.6-4.6-16-.6-.6-1.5-.5-2.1 0-8 6.3-11.8 17.3-15.4 26.5-4.4 11.2-7.6 22.7-9.8 34.5.6-.3 1.2-.7 1.8-1-3.1-.5-4.7 1.3-6 4-2.6 5.6-4.4 11.8-5.9 17.8-3.2 12.1-4.6 24.6-4.6 37.1.1 1.6 3.1 1.6 3.1-.3zM1045 1096c-5-8.2-9.2-16.8-12.5-25.9-1.5-4.1-2.8-8.3-3.9-12.6-.6-2.3-1.1-4.6-1.6-6.9-.2-1.1-.5-2.3-.7-3.5-1-2.4 0-4 2.9-4.8 1-.1 2-.3 2.9-.4-2.7-7.4-4.6-15-5.6-22.9-.5-3.9-.8-7.7-.8-11.6 0-1.9 1.4-11.1.3-12.3.9 1 2.6.2 2.6-1.1-.2-9.5.3-18.9 1.9-28.3.7-4.3 1.7-8.5 2.8-12.7l1.8-6.3c.4-1.2.8-2.4 1.2-3.5.4-2.6 2-3.7 5-3.2.6 1.5 3 1.4 2.9-.4-.1-9.9 1.4-19.6 4.9-28.9.9-2.3 3.8-11.6 7.2-11.8 4.4-.2 4.5 11.7 4.7 14.1 1.7 19.7 3 39.5 3.7 59.3 1.5 40.3 1.1 80.6-1.3 120.8-.1 1.9 2.9 1.9 3 0 2.1-35.3 2.7-70.6 1.8-105.9-.5-17.5-1.3-35-2.5-52.4-.6-8.6-1.2-17.1-2.1-25.7-.5-5.3-1.5-10.2-6.1-13.4-.5-.3-1-.2-1.5 0-6.5 3.1-9 11.1-11 17.6-2.7 8.5-3.9 17.4-3.8 26.4 1-.1 2-.3 2.9-.4-1-2.7-3.9-3.9-6.6-2.6-4.4 2-5.5 9.9-6.7 13.8-4 14.2-5.7 28.9-5.3 43.6.9-.4 1.7-.7 2.6-1.1l-.5-.5c-.3-.4-1-.6-1.5-.4-2.2.8-2.7 2.2-3.1 4.4-.9 5.3-.6 11.1-.2 16.4.7 10.2 2.9 20.2 6.4 29.8.5 1.5 3.1 1.4 2.9-.4-.3-3.1-3.6-4.8-6.5-3.2-4.7 2.5-2.1 10.2-1.3 14 3.5 15.7 9.7 30.6 18 44.3 1.1 1.7 3.7.2 2.7-1.4z" fill="#e8e8e8"/><path d="M1069.1 1021c-.1-5.4.4-10.7 1.5-16 .5-2.4 1.2-4.8 2-7.1.3-.8 3.5-10 5.4-7.2.8 1.2 2.7.8 2.8-.8.3-4.4.9-8.7 2.1-12.9.5-1.8 4.9-14.3 6.9-13.1 1 .7 2.2-.2 2.3-1.3.6-8.8 2.6-17.4 6.2-25.4 1.7-3.9 3.8-7.7 6.2-11.2 1.9-2.9 4.8-7.8 7.8-9.7 7.8-5 6.4 7.2 6.3 10.8-.2 4.5-.5 9-.8 13.6-.7 9.7-1.7 19.3-3 28.9-5.2 39.1-14.4 77.5-23.5 115.8-.4 1.9 2.4 2.7 2.9.8 8.6-35.9 17.2-71.9 22.5-108.5 2.5-17.4 4.3-34.9 5-52.5.2-4.2.8-11-3.8-13.3-4.8-2.4-8.8 3.5-11.4 6.6-10.3 12.6-16.3 28-17.4 44.3.8-.4 1.5-.9 2.3-1.3-8.6-5.5-13.3 24.1-13.5 28.6.9-.3 1.9-.5 2.8-.8-3.4-5-7.7-.1-9.3 3.6-3.7 8.9-5.3 18.6-5.2 28.2-.1 1.8 2.9 1.8 2.9-.1zM351.1 1030c-4-1.6-7.8-3.9-10.3-7.5-1.2-1.7-2-3.6-2.7-5.5-.2-.4-2.1-6.5.3-5.3 1.6.8 2.9-1 1.8-2.4-5.4-6.9-9.3-14.8-11.2-23.4-.5-2.3-1.7-5.6-1.2-7.9 1-4.6 5.6-5.2 8.6-2.3 3.2 3.1 6 6.9 8.5 10.6 9.3 13.5 15 29.1 16.7 45.4.2 1.9 3.2 1.9 3 0-1.1-11.1-4-21.8-8.6-32-4.3-9.4-10.6-20.8-18.8-27.3-2.7-2.1-6.5-3.5-9.6-1.5-3.6 2.2-2.8 7.1-2.4 10.6 1.4 11.1 6 21.3 12.9 30.1l1.8-2.4c-1.7-.8-3.5-.9-4.9.7-2.1 2.3-.8 5.5.2 8 2.8 7.5 7.6 12.2 15 15.2 1.9.5 2.7-2.4.9-3.1z" fill="#e8e8e8"/><path d="M354.4 997.6c-4.1-15.6-8.1-30.8-10.1-46.8-.5-3.8-1-7.7-1.3-11.5-.3-3.9-1.3-9.6-.3-13.4 0-.6.1-1.3.1-1.9 3.1-3.4 5.4-3.6 6.9-.4.9 1.3 1.7 2.8 2.4 4.3 1.9 3.3 3.6 6.7 5.2 10.2 13.4 28.1 19.6 59.2 18.3 90.3-.1 1.9 2.9 1.9 3 0 1.6-36.1-6.8-74-25.6-105-2.3-3.8-7.9-9-11.8-3.8-1.7 2.2-1.5 5.8-1.5 8.4-.2 5.1.2 10.3.8 15.4 1 9 1.9 18.2 3.9 27.1 2.1 9.5 4.8 18.8 7.3 28.2.3 1.5 3.2.7 2.7-1.1zM292.4 763.2c66.1-1.6 130.5 15.1 193.2 34.4 62.7 19.3 124.9 41.7 189.9 52.4 32.6 5.4 65.7 7.5 98.7 5 36.3-2.7 72-10.1 107.2-19.1 35.9-9.2 71.4-19.9 107.3-29.4 36-9.6 72.2-18.3 108.7-25.8 73.7-15.2 148.6-25.4 224-27.2 9.1-.2 18.3-.3 27.4-.3 1.9 0 1.9-3 0-3-73.9-.2-147.6 8-220.3 21.4-73.3 13.6-144.9 33.3-216.7 53.1-35.6 9.9-71.5 19-108.1 24.2-34.9 4.9-70.1 5.5-105.1 1.4-65.8-7.6-128.9-29.2-191.7-49.1-62-19.6-125.3-38.3-190.6-40.8-8-.3-16-.3-24-.1-1.9 0-1.9 3 .1 2.9z" fill="#e8e8e8"/><path d="M943.4 778.6c68.3-18.8 134.9-42.9 202.5-64.1 67.4-21.2 136.2-39.7 206.7-46.9 39.3-4 79-4.5 118.3 0 1.9.2 1.9-2.8 0-3-69.8-7.9-140.3-.2-208.6 14.9-69.3 15.3-136.5 38.2-203.8 60.4-38.4 12.7-76.8 25.1-115.8 35.8-2 .5-1.2 3.4.7 2.9zM723.5 937.4c25.6 5.9 52 3.2 77.6-1.5 26.8-4.9 53.1-11.9 79.4-19.3 53-14.8 105.7-29.9 160.8-34.1 31.1-2.3 62.4-1.7 93.4 1.6 1.9.2 1.9-2.8 0-3-53.8-5.8-108.2-3.1-161.2 8.1-52.7 11.1-103.7 29.1-156.3 40.4-30.3 6.5-62.1 12-92.8 4.9-2-.4-2.8 2.5-.9 2.9zM1220.6 956.8c67-3.6 129 26.3 193.3 39.9 18 3.8 36.2 6.3 54.6 6.6 1.9 0 1.9-3 0-3-66.9-1.1-128.2-31.8-193.4-42.9-18-3.1-36.2-4.6-54.5-3.6-1.9.2-2 3.2 0 3zM244.7 648.2c69.3-.8 138.5 11.8 203 37.1 18.5 7.3 36.6 15.7 54.2 25 1.7.9 3.2-1.7 1.5-2.6-61.5-32.6-129.2-53-198.4-59.9-20-2-40.2-2.9-60.3-2.6-1.9 0-1.9 3 0 3zM314.5 530.9c54.7 13.7 104.6 40.6 156.3 62.5 52.2 22.1 107 37.4 163.1 45 31.6 4.3 63.6 6.2 95.5 5.7 1.9 0 1.9-3 0-3-57.5.9-115.1-6.1-170.7-20.7-27.3-7.2-54-16.2-80.1-27-25.9-10.7-51.3-22.9-76.9-34.2-28.1-12.4-56.6-23.8-86.4-31.2-1.8-.5-2.6 2.4-.8 2.9zM687.2 703.6c51.9 20 108.9 9.1 159.8-8.5 27.4-9.5 54-20.9 81.2-30.8 26.7-9.7 53.8-18.1 81.3-25.2 31.8-8.2 64.1-14.6 96.6-19.2 1.9-.3 1.1-3.2-.8-2.9-56.3 8-111.7 21.4-165.4 40-52.8 18.3-103.9 44.2-159.8 52.1-30.9 4.4-62.8 2.9-92.1-8.4-1.8-.7-2.6 2.2-.8 2.9z" fill="#e8e8e8"/></g><g><ellipse cx="497.8" cy="515.9" rx="10.2" ry="10" fill="#5222d0"/><ellipse cx="887.7" cy="650.2" rx="7.8" ry="7.6" fill="#5222d0"/><ellipse cx="1064.8" cy="105.2" rx="5.2" ry="5.1" fill="#5222d0"/><ellipse cx="505.3" cy="795.8" rx="7.5" ry="7.3" fill="#5222d0"/><circle cx="1152.2" cy="456.3" fill="#5222d0" r="1.8"/><ellipse cx="477.6" cy="500.8" rx="9.9" ry="9.7" fill="#ec615b"/><ellipse cx="516.2" cy="767.6" rx="3.4" ry="3.3" fill="#ec615b"/><ellipse cx="333.8" cy="222.8" rx="7.4" ry="7.2" fill="#ec615b"/><ellipse cx="1089.6" cy="386.3" rx="7.4" ry="7.2" fill="#ec615b"/><ellipse cx="1119.5" cy="360.6" rx="6.2" ry="6" fill="#ec615b"/><path d="M444.5 656.5c-9.2.2-13.1 13-10.1 20.6 1.4 3.5 4.5 4.4 8 3.8 1.1-.2 2.5-.9 3.7-.9 4.7.3 4.6 3.2 3.2 6-1 2-2.1 3.6-2.6 5.8-.6 2.8-.1 5.9 2.8 7.1 1.6.7 3.5-.5 4.9 0 5 1.6 1 7.9.6 11-.4 3.4.5 7.3 3.8 8.9 2.9 1.4 6.4.5 7.9-2.4.9-1.7-1.7-3.2-2.6-1.5-3.4 2.7-5.4 1.7-6.2-3.2 0-1.4.2-2.7.6-4 .5-2.2 1.5-4.2 1.7-6.5.1-1.6 0-3.3-1.2-4.5-2.4-2.2-8.2 1-9.5-2.9-.8-2.4 2.8-6.4 3.5-8.6 1.4-4.3-.3-8.6-5.4-8.5-4.2.1-9.2 4.4-10.7-3.1-1.1-5.2 1.4-14.1 7.8-14.2 1.7 0 1.8-3-.2-2.9zM1001.8 557.5c-10.1.2-19.5 7.2-21.9 17.2-2.1 8.7 3.3 19.1 13.2 13.7 3.5-1.9 7-5.3 7.6-9.5.4-3.3-1.7-6.1-5.2-5.8-4.9.4-9.4 6.2-12 9.8-3 4.1-6.1 9.8-5.6 15.1 1 9.1 14.1 10.9 18.7 3.7.8-1.2-.8-3-2.1-2.1-6.9 5.3-14.1 14-11.4 23.4 2.1 7.4 10.1 12.7 17.6 10.1 1.8-.6 1-3.5-.8-2.9-6.7 2.3-13.7-3.3-14.3-10.1-.6-7.3 4.9-13.7 10.4-17.9l-2.1-2.1c-2 3.2-6.5 3.9-9.8 2.2-4.7-2.5-3.4-7.9-1.6-11.9 1.5-3.4 3.7-6.5 6.2-9.2 1-1.1 3.6-4.1 5-4.3 1.3.3 2.7.7 4 1-.1 1.3-.5 2.4-1.2 3.5-2.7 4.4-9.5 7.9-13.2 2.8-2.5-3.3-.9-9.5.8-12.8 3.4-6.6 10.2-10.8 17.5-10.9 2.1-.1 2.1-3.1.2-3zM216.4 406c3.2-3.9 8.7-2.6 10.3 1.9 1 2.7.9 5 3.4 6.9 4.5 3.4 10.5.8 15.3-.2 12.5-2.5 8.4 10 15.5 14.9 3.1 2.2 7.8 1.6 9.4-2 .8-1.7-1.8-3.3-2.6-1.5-2.6 5.8-7.4-1.7-8.2-4-.5-1.4-.8-2.8-1.4-4.1-.9-2.1-2.1-4.1-4.1-5.4-5.6-3.5-11.8.8-17.5.9-6.1.2-5.5-4-7.6-8.1-.9-1.8-2.4-3.1-4.3-3.9-3.7-1.4-7.9-.6-10.3 2.5-1.3 1.5.9 3.6 2.1 2.1zM227.1 434.3c6.3-6.8 15.4-3.6 19.1 3.8 2.3 4.6 3.9 9.6 8.9 11.9 7.6 3.5 17.5-.4 20.1-8.3.6-1.8-2.3-2.6-2.9-.8-1.9 5.8-8.9 8.6-14.5 6.9-6.9-2-7.4-9.9-11.2-14.9-5.2-6.9-15.8-7-21.6-.7-1.3 1.4.8 3.5 2.1 2.1z" fill="#ec615b"/><path d="M936.8 873.4c3.7-4.3 8.7-4.2 13.2-1.2 1.5 1 3 2 4.9 1.3 2.4-.9 2.8-4.1 4.5-5.7 3.5-3.3 9.3-3.3 12.9-.3 1.5 1.2 3.6-.9 2.1-2.1-5.4-4.5-14.3-4.1-18.6 1.9-.4.6-.9 2.2-1.4 2.5-2.3 1.5-3.2-.8-4.7-1.4-1.6-.6-3.1-1.3-4.8-1.4-4-.3-7.7 1.3-10.3 4.3-1.1 1.4 1 3.5 2.2 2.1zM966.1 878.5c6.8-10.1 31.4 3.6 33.9-12.6.3-1.9-2.6-2.7-2.9-.8-1.3 8.5-13.1 6.5-19.1 6.3-5.6-.1-11.2.7-14.5 5.6-1.1 1.6 1.5 3.1 2.6 1.5zM436.1 920.5c3.9-6.7 9.1-12.3 15.5-16.6 1.6-1.1.1-3.7-1.5-2.6-6.8 4.7-12.4 10.6-16.6 17.7-1 1.6 1.6 3.1 2.6 1.5zM450.3 915.7c5.3-3.6 10.6-7.3 15.9-10.9 1.6-1.1.1-3.7-1.5-2.6-5.3 3.6-10.6 7.3-15.9 10.9-1.6 1.1-.1 3.7 1.5 2.6z" fill="#5222d0"/></g><g><path d="M446.8 63.2c-.9 77.6-20.9 154.6-57.6 223-10.3 19.3-22 37.8-34.8 55.5-1.1 1.6 1.5 3.1 2.6 1.5 45.8-63.3 76.1-137.5 87.6-214.9 3.2-21.6 4.9-43.4 5.2-65.2.1-1.8-2.9-1.8-3 .1zM459.3 66.5c48.8 29.9 109.2 39.1 164.9 26.6 15.8-3.5 31.1-8.9 45.6-15.8 1.7-.8.2-3.4-1.5-2.6-50.7 24.2-110.6 27.2-163.8 9.6-15.3-5.1-30-11.9-43.7-20.3-1.6-1.1-3.1 1.5-1.5 2.5zM694.6 76.6c21.3 33.8 55.2 58.8 93.4 70.2 46.1 13.8 95.8 4.7 141.2-7.5 25.3-6.8 50-16.1 72-30.3 1.6-1 .1-3.6-1.5-2.6-19.4 12.4-40.7 21.1-62.7 27.6-23 6.7-46.8 11.9-70.6 14.8-22.9 2.8-46.2 2.8-68.7-2.5-19-4.5-37.2-12.5-53.5-23.3-18.8-12.5-34.9-28.8-47-47.9-1-1.6-3.6-.1-2.6 1.5zM1013 111c-7 38.2-12.4 78.2-10.5 117.1 1.5 31.9 10.2 65.2 36.2 85.8 15.5 12.3 34.4 19.1 52.9 25.7 1.8.7 2.6-2.2.8-2.9-16.3-5.9-33-11.8-47.3-21.8-13.7-9.5-23.8-22.8-30.1-38.2-12.3-30.2-10.7-64.5-8.2-96.4 1.8-23 4.9-45.9 9-68.6.4-1.8-2.5-2.6-2.8-.7zM362.1 360.3c74.6 11.7 143.4 54.4 187.3 115.9 12.3 17.3 22.6 36 30.4 55.7.7 1.8 3.6 1 2.9-.8-28-70.6-86.5-127-156.4-155.9-20.4-8.4-41.7-14.4-63.4-17.8-1.9-.3-2.7 2.6-.8 2.9zM599.1 534.4c35.3-27.4 82.1-34.2 125.4-27.8 46.2 6.8 88.1 29 125.9 55.6 22.8 16 44.3 33.7 65.8 51.4 1.5 1.2 3.6-.9 2.1-2.1-38.8-32-78.2-64.4-123.9-86.1-40.8-19.4-86.8-29.1-131.8-21.4-23.8 4.1-46.4 13.4-65.6 28.2-1.5 1.3.6 3.4 2.1 2.2zM914.9 595.1c17.2-74.3 64.1-140.3 126.9-183.2 18-12.3 37.3-22.7 57.5-30.9 1.8-.7 1-3.6-.8-2.9-71.6 29.2-131.5 85.3-165 155-9.4 19.6-16.6 40.1-21.5 61.2-.4 1.9 2.5 2.7 2.9.8z" fill="#e8e8e8"/><path d="M463.8 417.3c15 6.4 26.3 19.1 37 31 11.1 12.3 21.3 25.4 30.7 39.1 18.2 26.7 32.7 55.7 43.1 86.3.6 1.8 3.5 1 2.9-.8-10.7-31.3-25.7-61.1-44.4-88.4-9.2-13.4-19.3-26.2-30.2-38.3-10.9-12-22.4-25-37.6-31.4-1.7-.9-3.3 1.7-1.5 2.5zM691.4 92.6c16.5 26.6 42.4 46.1 72.2 55.3 1.9.6 2.6-2.3.8-2.9-29.1-8.9-54.4-28-70.4-53.9-1-1.7-3.6-.1-2.6 1.5zM448.6 41.9c32 21.7 72.5 28.7 110 19.7 1.9-.5 1.1-3.3-.8-2.9-36.8 8.9-76.4 1.8-107.7-19.4-1.6-1-3.1 1.6-1.5 2.6zM342.6 322.1c16-17.7 29.9-37.1 41.4-58 .9-1.7-1.7-3.2-2.6-1.5-11.4 20.7-25.1 39.9-40.9 57.4-1.3 1.4.8 3.5 2.1 2.1zM439.7 204.9c-1.4 14.2-8.9 27.6-14.7 40.4-6 13.1-12.2 26-18.5 38.9-.9 1.7 1.7 3.2 2.6 1.5 7-14 13.7-28.2 20.2-42.5 5.6-12.3 12.2-24.8 13.5-38.4.1-1.8-2.9-1.8-3.1.1zM905.3 542.5c15.7-40.5 41-76.8 73.4-105.7 1.4-1.3-.7-3.4-2.1-2.1-32.8 29.3-58.3 66-74.2 107-.7 1.8 2.2 2.5 2.9.8z" fill="#161616"/><path d="M434.8 84.4c-1.7 10.7-3.5 21.4-5.2 32.1-.3 1.9 2.6 2.7 2.9.8 1.7-10.7 3.5-21.4 5.2-32.1.3-1.9-2.6-2.7-2.9-.8zM690.6 50.3c21.6 25.8 48.4 46.8 78.6 61.6 1.7.8 3.2-1.7 1.5-2.6-30-14.7-56.6-35.5-78-61.1-1.2-1.5-3.3.6-2.1 2.1zM867.7 166.8c25.2 1.2 50.3-3.7 73.1-14.5 1.7-.8.2-3.4-1.5-2.6-22.4 10.5-46.9 15.3-71.6 14.1-2-.1-1.9 2.9 0 3zM957 121c21.3-10.4 40.5-24.4 56.9-41.6 1.3-1.4-.8-3.5-2.1-2.1-16.2 17-35.2 30.8-56.3 41.1-1.7.8-.2 3.4 1.5 2.6zM605.2 515.2c25.2-26.5 63.6-38.7 99.6-32.3 1.9.3 2.7-2.6.8-2.9-37.1-6.6-76.5 5.7-102.5 33.1-1.4 1.3.7 3.5 2.1 2.1z" fill="#ec615b"/><path d="M382.3 347.8c21.2 4.4 41.6 11.5 60.9 21.3 1.7.9 3.2-1.7 1.5-2.6-19.5-9.9-40.2-17.2-61.6-21.6-1.9-.4-2.7 2.5-.8 2.9zM461 104.1c1.2 11.7 1.4 23.5.7 35.2-.1 1.9 2.9 1.9 3 0 .7-11.8.4-23.5-.7-35.2-.2-1.9-3.2-1.9-3 0zM851.6 506.7c11.8-23 30.9-41.3 54.1-52.6 1.7-.8.2-3.4-1.5-2.6-23.7 11.5-43.2 30.3-55.2 53.7-.9 1.7 1.7 3.3 2.6 1.5z" fill="#5222d0"/><path d="M789 291.1c8.8-6.1 19-8.9 29.7-8.3 1.9.1 1.9-2.9 0-3-11.2-.6-22 2.4-31.2 8.8-1.6 1-.1 3.6 1.5 2.5zM813.3 264.1c8.7 1.8 17.1 4.3 25.3 7.6 1.8.7 2.6-2.2.8-2.9-8.2-3.3-16.6-5.8-25.3-7.6-1.9-.4-2.7 2.5-.8 2.9zM595.3 187c3.1-14 10.2-26.5 20.4-36.6 1.4-1.4-.7-3.5-2.1-2.1-10.6 10.4-18 23.4-21.2 37.9-.5 1.9 2.4 2.7 2.9.8zM617.3 190.2c14.9-11.6 31.7-20.3 49.8-25.9 1.8-.6 1.1-3.5-.8-2.9-18.6 5.7-35.8 14.7-51.1 26.6-1.5 1.3.6 3.4 2.1 2.2z" fill="#ec615b"/><path d="M587.2 388c3.7 9.6 4.1 19.6 1.3 29.5-.5 1.9 2.4 2.7 2.9.8 3-10.4 2.5-21-1.3-31.1-.7-1.8-3.6-1-2.9.8zM612.8 391.3c5.3 6.4 11.9 11.6 19.3 15.3 1.7.9 3.2-1.7 1.5-2.6-7.3-3.6-13.6-8.6-18.7-14.9-1.2-1.4-3.3.7-2.1 2.2zM938.9 371.6c4.5 5 6.5 11.5 5.4 18.2-.3 1.9 2.6 2.7 2.9.8 1.3-7.8-.9-15.3-6.2-21.1-1.3-1.5-3.4.6-2.1 2.1zM963.8 367c3.7 4.2 7.3 8.3 11 12.5 1.3 1.5 3.4-.7 2.1-2.1-3.7-4.2-7.3-8.3-11-12.5-1.2-1.5-3.3.6-2.1 2.1zM818.7 402.8c6.9-12.1 16-22.6 27.1-31 1.5-1.2 0-3.8-1.5-2.6-11.5 8.8-21 19.5-28.2 32.1-.9 1.7 1.7 3.2 2.6 1.5z" fill="#5222d0"/><ellipse cx="1181.5" cy="172.4" rx="14.6" ry="14.2" fill="#ec615b"/><ellipse cx="1208.4" cy="206.8" rx="12.3" ry="11.9" fill="#5222d0"/><g><path d="M470.6 286.2c1.4 7.3 3.1 15 5.3 23 7.3 26.1 17.7 47.9 28 65.3 3 .7 7.3 1.7 12.6 2.3 7.3.9 19.1 2.4 32.4-1.4 3.2-.9 1.8-.8 15.9-6.6s14.9-5.6 20.3-8c9.2-4 17.5-9.8 33.8-21.1 4.7-3.3 11.2-7.9 18.8-13.6.5-3.2 1.1-7.9 1-13.6-.2-9-2.1-15.5-4.8-24.9-4.3-14.7-7.3-24.7-9.2-31-3.8-2.4-7.9-4.8-12.6-7-15.5-7.5-30.2-10.5-41.5-11.7-11.6.9-20.8 3-27 4.7-27.2 7.5-45.9 21.6-57.5 30.5-6.9 5.2-12.2 9.9-15.5 13.1zM893.2 249.5c-8 8.6-16.5 18.9-24.6 31-4 6-7.5 11.8-10.6 17.4 6.1 9.1 12.2 18.2 18.4 27.2 13.7 5.3 27.4 10.6 41.1 16 13-13.6 26.1-27.2 39.1-40.9-3.4-11-6.8-21.9-10.1-32.9-6.7-3.4-14.4-6.8-23.2-9.9-11.2-3.8-21.3-6.3-30.1-7.9z" fill="#fff"/><path d="M469.6 287.1c3.4 32.2 17.6 61.5 33 89.6.9 1.7 3.5.2 2.6-1.5-15.1-27.5-29.3-56.4-32.6-88.1-.2-1.9-3.2-2-3 0z" fill="#161616"/><path d="M472.4 287.9c24.5-26.7 58.1-44 94-48.7 1.9-.2 1.9-3.2 0-3-36.7 4.8-71.1 22.2-96.2 49.5-1.2 1.5.9 3.6 2.2 2.2z" fill="#161616"/><path d="M566.6 238.8c16.3 24.5 23.9 53 31.2 81.1.5 1.9 3.4 1.1 2.9-.8-7.4-28.4-15.1-57.1-31.5-81.8-1.1-1.6-3.7-.1-2.6 1.5z" fill="#161616"/><path d="M506.1 376.6c18.3-5.5 35.9-12.8 52.7-21.9 8.3-4.5 16.3-9.5 24.1-14.9 7-4.8 14.3-9.8 18.1-17.6.9-1.7-1.7-3.2-2.6-1.5-4.1 8.3-12.5 13.5-19.9 18.5-7.3 4.9-14.9 9.5-22.7 13.7-16.1 8.6-33 15.5-50.4 20.8-1.9.6-1.1 3.5.7 2.9zM568.2 239c19.8.8 38.8 7.4 54.8 19.2 1.6 1.1 3.1-1.5 1.5-2.6-16.4-12.1-35.9-18.8-56.3-19.6-1.9-.1-1.9 2.9 0 3z" fill="#161616"/><path d="M622.8 256.9c9.1 20.9 13.9 43.3 14 66.2 0 1.9 3 1.9 3 0-.2-23.4-5.1-46.3-14.5-67.7-.7-1.8-3.2-.3-2.5 1.5z" fill="#161616"/><path d="M599.1 322.5c12.4 8 27.1 5.8 40.6 2.2 1.9-.5 1.1-3.4-.8-2.9-12.7 3.4-26.5 5.6-38.2-1.9-1.7-1-3.2 1.6-1.6 2.6zM504.5 377.1c17.8 4 36.3 2.7 53.3-4 1.8-.7 1-3.6-.8-2.9-16.5 6.5-34.4 8-51.7 4-1.9-.4-2.7 2.5-.8 2.9z" fill="#161616"/><path d="M558.6 372.9c29.7-11.2 57.3-27.3 81.5-47.9 1.5-1.3-.7-3.4-2.1-2.1-23.8 20.2-50.9 36.1-80.1 47.1-1.9.7-1.1 3.6.7 2.9zM890.9 249.2c-12.7 15-24.3 30.9-34.7 47.5-1 1.6 1.6 3.1 2.6 1.5 10.3-16.4 21.8-32.1 34.2-46.9 1.3-1.4-.8-3.6-2.1-2.1z" fill="#161616"/><path d="M892.3 251.8c18 2.9 35.3 8.6 51.4 16.9 1.7.9 3.2-1.7 1.5-2.6-16.4-8.5-33.9-14.2-52.2-17.2-1.8-.3-2.6 2.6-.7 2.9zM856.3 299.9c15.6 7.1 31 14.5 46.3 22.3 1.7.9 3.2-1.7 1.5-2.6-15.3-7.7-30.7-15.1-46.3-22.3-1.8-.8-3.3 1.8-1.5 2.6z" fill="#161616"/><path d="M944.5 267.3c-13.4 17.9-26.4 36.1-39 54.6.7-.2 1.4-.4 2.1-.5-1.1-.6-2.2-1.3-3.4-1.9-1.7-1-3.2 1.6-1.5 2.6 1.1.6 2.2 1.3 3.4 1.9.7.4 1.6.1 2.1-.5 12.5-18.5 25.5-36.8 39-54.6 1-1.6-1.6-3.1-2.7-1.6z" fill="#161616"/><path d="M944.2 269c4.5 10.5 7.8 21.3 10 32.5.4 1.9 3.3 1.1 2.9-.8-2.2-11.4-5.7-22.5-10.3-33.2-.7-1.7-3.3-.2-2.6 1.5zM906.5 324.2c3.9 5.2 7.3 10.6 10.3 16.4.9 1.7 3.5.2 2.6-1.5-3-5.8-6.4-11.2-10.3-16.4-1.1-1.5-3.7 0-2.6 1.5z" fill="#161616"/><path d="M919.4 340.4c13-12 25.2-24.6 36.8-37.9 1.3-1.5-.9-3.6-2.1-2.1-11.6 13.3-23.8 26-36.8 37.9-1.4 1.3.7 3.4 2.1 2.1zM856.6 300.7c6.4 8.3 12.8 16.7 19.2 25 1.2 1.5 3.8 0 2.6-1.5-6.4-8.3-12.8-16.7-19.2-25-1.2-1.5-3.8-.1-2.6 1.5z" fill="#161616"/><path d="M876.4 326.8l40.2 15.3c1.8.7 2.6-2.2.8-2.9l-40.2-15.3c-1.8-.7-2.6 2.2-.8 2.9z" fill="#161616"/><path d="M501.2 260.1c12.7 33.6 25.5 67.2 38.2 100.9 9.5 2.7 19.1 5.3 28.6 8 7.1-3.2 14.2-6.5 21.3-9.7L565 348.8c-13-34-26-68.1-39-102.1-3.6 1.6-7.4 3.4-11.3 5.5-5.1 2.5-9.5 5.3-13.5 7.9z" fill="#ec615b"/><path d="M592.7 240.3c8.2 14.8 17.1 35.5 20.8 61.2 1.2 8.4 1.7 16.4 1.7 23.6-15.9 12.2-35.3 25.1-58.6 37.1-13 6.7-25.6 12.3-37.3 16.9h19.5c13.9-5.8 29.3-13.1 45.6-22.4 17.7-10.1 32.9-20.6 45.6-30.4-2.4-12-5-24.3-7.8-36.7-3.1-13.7-6.3-27-9.5-40.1-1.8-1.8-4.8-4.3-9.1-6.3-4.4-2-8.3-2.7-10.9-2.9zM513.3 252.5c-2.2-1.8.7-12.6 8.7-16 6.1-2.6 14-.5 19.5 5.5-3.1.9-7.8 2.3-13.4 4.6-10 4.1-13.3 7.1-14.8 5.9z" fill="#ec615b"/><path d="M527.2 242c4.7-3 11.5-8.2 17.4-16.5 10.1-14.3 10.9-28.9 10.8-35 1.7-.5 11.8-3.6 17.4 1.3 7.6 6.6.6 22.4-.9 25.7-4.4 9.9-11.6 15.3-13.9 16.9-12.8 9-26.8 8-30.8 7.6zM476 215.4c5-.8 7.8 8.1 18.2 16.9 9.3 7.8 19.7 11.3 27.8 13.1-3.4 2.6-9.8 6.9-18.7 8-12.9 1.6-30.5-3.3-34.7-15.6-3.1-9.3 1.8-21.6 7.4-22.4z" fill="#ec615b"/><path d="M911.6 253.3c-12.9 17.2-25.9 34.4-38.8 51.6 4.6 8.4 9.2 16.8 13.9 25.2 4 1.6 8 3.3 12 4.9-2.9-7-5.8-14.1-8.8-21.1 11.5-18.9 23.1-37.7 34.6-56.6-4.3-1.3-8.6-2.6-12.9-4z" fill="#5222d0"/><path d="M950.8 281.1c-13.2 14.7-26.5 29.3-39.7 44l-46.2-13.5 7.8 9.9c14.5 4.8 28.9 9.6 43.4 14.4 12.5-14.1 24.9-28.1 37.4-42.2-.8-4.2-1.7-8.4-2.7-12.6zM924.5 256.9c.5-2.1 7.9-4.2 12.9-.4 3.2 2.4 5.1 7.1 3.7 8.5-2.6 2.6-17.3-4.9-16.6-8.1z" fill="#5222d0"/><path d="M916.7 224.6c2.2-1.2 6.6 2.6 7.8 3.6 1.2 1 5.4 4.8 8.3 15.7 1.5 5.5 3.7 13.7 1.4 14.8-2.6 1.3-10.5-6.9-14.8-15.7-3.3-7-5.6-16.8-2.7-18.4zM974.7 260.1c.2-2.4-5.2-4.3-6.7-4.8-1.4-.5-6.7-2.2-18 .3-5.7 1.3-14.1 3.2-14.2 5.6-.1 2.8 10.9 5.5 20.8 5 7.9-.4 17.8-3 18.1-6.1z" fill="#5222d0"/><path d="M505.3 376.2c5.9-2.1 14.6-5.2 25-9.6 17.7-7.4 30.2-12.6 44.1-22 6.9-4.7 16.2-11.9 26.1-22.4 4.9-9.8 10.9-24.4 13.2-43 1.4-11.3 1.2-21.3.4-29.4 3.6 2.1 7.1 4.2 10.7 6.2 3.6 9.4 7.3 20.9 9.9 34.2 2.6 12.9 3.7 24.6 4 34.5-10.8 9.4-20.4 16.4-27.6 21.3-34.7 23.7-58.6 29.3-63.9 30.5-8.2 1.8-14.5 2.1-17.3 2.2-10.5.4-19-1.2-24.6-2.5zM858.3 298.3c6.4 9.1 12.7 18.2 19.1 27.2 13.3 5.2 26.7 10.3 40 15.5 12.7-13.8 25.4-27.5 38.1-41.3-3.1-10.6-6.3-21.2-9.4-31.8l-39 52.8c-16.3-7.4-32.6-14.9-48.8-22.4z" opacity=".09" fill="#353535"/></g></g><g><path d="M694.1 1067.7c4-5 6.4-7.3 7.3-6.7 2.3 1.4-5.9 21.6-24.7 60.7-46.1 2.2-69.5 1.1-70.1-3.4-.5-3.9 16.6-10.4 51.3-19.4l22.8-48.3c4.5 5.7 8.9 11.4 13.4 17.1z"/><path d="M717.5 748.9c-3.8 26.9-8.2 54.3-13 82.1-14.2 81.6-31.5 158.9-50.8 231.6 2.8 3.1 10.1 10.2 22.1 13.5 15.1 4.1 27.6-.4 31.2-1.8 22.6-79 45.1-158.1 67.7-237.1 29.7-32.4 24-74.3 1.3-89.5-15-10-38.2-8.6-58.5 1.2z" fill="#ec615b"/><path d="M718.7 750.6c2.9.3 1.1 45.2-1.2 85.6-5.2 91.7-22.3 172.2-42.6 239.3-2.2-.6-4.8-1.5-7.4-2.8-6.4-3.2-10.7-7.4-13.2-10.4 6.1-21.8 14.9-54.6 24-94.8 28.5-125.9 36.3-217.2 40.4-216.9z" opacity=".15" fill="#353535"/><path d="M701.8 855.5c-2.2 26.4-5.4 54.2-9.9 83.2-7.3 47.7-17 91.5-27.7 131.2-1.2-.2-3-.7-5-2-2.7-1.8-4-4.1-4.5-5.2 8-33.3 15.8-66.9 23.6-100.8 8.1-35.8 15.9-71.3 23.5-106.4z" opacity=".13" fill="#353535"/><path d="M885.6 1064.7c-4.4-5-7.1-7.3-8.1-6.7-2.5 1.4 6.5 21.6 27.1 60.7 50.7 2.2 76.3 1.1 77-3.4.6-3.9-18.2-10.4-56.4-19.4-8.4-16.1-16.7-32.2-25.1-48.3-4.8 5.7-9.6 11.4-14.5 17.1z"/><path d="M755.9 772.8c-3.7 17.8 4.7 32.5 7.8 37.4 33 88.2 65.9 176.5 98.9 264.7 5.6.8 17.2 1.6 30.6-3.1 15.1-5.3 23.9-14.8 27.3-19-19.7-42-32.1-77.2-39.7-101.1-19.9-62.5-46.7-122.9-65.7-185.7-3.2-10.5-8.6-28.9-20.8-31.2-14.2-2.6-34.1 17-38.4 38z" fill="#ec615b"/><path d="M786.9 735.4c-6.9 5 5.9 31.7 12 45 14.7 32.1 22.3 67 36.4 99.4 15.2 34.9 37.5 91.4 69 186.2 2.2-1.1 5-2.6 7.8-4.9 3.7-3 6.2-6.1 7.8-8.5-7.9-17.1-19.3-43-31.3-75.3-4.3-11.5-4.8-13.6-9.5-28-5-15.3-12.8-38.5-14.4-43.2-7.5-21.6-7.5-18.7-21.6-57-3-8.1-7.1-19.3-12-33.9-2.4-7.1-4.2-12.8-5.5-16.9-.2-.6-6.8-21.1-16.1-45.4-2.4-6.4-5-12.7-11.5-16-.4-.3-7.7-4-11.1-1.5z" opacity=".1" fill="#353535"/><path d="M835.7 828.5c-.6.2 12.8 41.9 76.9 232.1 2.6-2.5 5.2-5 7.8-7.6-3.9-8.7-10-22.5-17-39.7-16.1-39.3-23-62.2-41-112.7-10-28.1-26.1-72.3-26.7-72.1z" opacity=".12" fill="#353535"/><g><path d="M864 456.1c-2.3.2-3.9-6.6-6.4-6.5-2 .1-3.4 4.6-3.5 5.2-1.2 4.1-.6 8.3 3.5 19.3 1.2 3.2 2.8 7.3 4.9 12-1.1 7.8-3.1 18.6-6.7 31.3-4.5 15.7-12.1 41.5-32.2 68.1-6.2 8.2-15.5 19.1-29 30.3-4.5 10.8-5.1 19.8-4.9 25.4.1 3.3.5 18.2 6 19.6 3.7.9 8.1-4.5 10.3-7.2 22.4-28.3 33.7-42.4 38.2-50.6 10.5-18.8 19-34.1 26.2-57.1 5.3-16.8 7.8-31.5 9.2-42.3 2.3-3.8 5.5-9.2 9.2-15.8 10.1-18 13.7-26.1 15.9-35.1 2.3-9.3 2.7-17.3.4-18.2-1.7-.6-3.8 2.5-5.7 1.7-2.8-1.2.2-9.5-2.8-11.3-1.1-.7-3.3-.6-7.8 2.4-3.1-6.5-5.1-7.7-6.4-7.6-2.7.4-4 7.8-4.6 16.2-.8-4.1-2.8-12.7-5.3-12.7-2.1 0-4.3 6.3-4.9 11.3-.9 6.9 1.1 11.9-1.4 18.9-.5 1-1.2 2.5-2.2 2.7z" fill="#fff"/><path d="M860.5 484.8c-.3 13.2-4.5 25.9-8.5 38.4-3.9 11.8-8.3 23.5-13.7 34.7-10 20.8-23.5 39.8-41.2 54.7-1.5 1.2.7 3.4 2.1 2.1 18.4-15.4 32.2-35.3 42.4-56.9 5.3-11.2 9.7-22.8 13.5-34.6 4-12.4 8.1-25.1 8.3-38.3.2-2-2.8-2-2.9-.1zM878.3 502.2c-2.7 31.6-16.5 61.3-30.5 89.3-12.8 25.6-28.3 50.5-51.4 68-1.5 1.2 0 3.8 1.5 2.6 23.6-17.9 39.5-43 52.5-69.1 14.3-28.5 28.1-58.7 30.9-90.8.1-1.9-2.9-1.9-3 0z" fill="#161616"/><path d="M863 483.2c-3.4-7.3-6.6-15.8-7.1-23.9-.1-1.1-.3-5.8.5-6.4 2.5-1.7 3.2 1.2 3.8 2.4 1.1 2.1 1.9 3.6 4 4.8 1.7.9 3.2-1.6 1.5-2.6-3.5-2-3.2-7.5-7.2-9-3.4-1.3-4.6 1.5-5.3 4.4-2.4 10.3 2.8 22.6 7 31.8 1.1 1.8 3.6.2 2.8-1.5z" fill="#161616"/><path d="M866.4 459.2c3.4-7.8 2.6-15.8 2.9-24.1.1-1.9-.3-6.3.8-7.8 2-2.5 3.5 2.8 4 4.5 1.4 5.4 1.7 10.8 1.3 16.3-.2 1.9 2.8 1.9 3 0 .3-3.8-.1-30.3-8.6-26-3.5 1.8-3.3 8.9-3.4 12-.3 7.9.8 16-2.5 23.5-.8 1.8 1.8 3.4 2.5 1.6z" fill="#161616"/><path d="M878.7 448.3c.6-3.6 1.1-7.2 1.4-10.9.3-4.1-.3-8.7 1-12.6 1.1-3.6 1.7-4.3 3.2-1.1 1.1 2.3 1.5 4.7 1.8 7.1.5 4.5.9 9.8-.5 14.2-.6 1.9 2.3 2.6 2.9.8 1.6-5.3 1.2-11.8.3-17.2-.5-2.9-2.1-10.5-6-10.5-3.4 0-4.8 5.7-5.1 8.1-1 7-.8 14.2-1.9 21.2-.3 2 2.6 2.8 2.9.9z" fill="#161616"/><path d="M889.6 445.7c.4-3.1.4-6.3.4-9.4.1-2.7-.1-9.9 3.3-9.6 2.5.2 2.3 2.3 2.5 4.5.1 1.5.1 3.1.1 4.6 0 3.7-.2 7.3-.9 11-.4 1.9 2.5 2.7 2.9.8 1-4.9 4.4-25-4.6-25.2-8.3-.2-6.1 18.8-6.7 23.4-.2 1.8 2.8 1.8 3-.1z" fill="#161616"/><path d="M900.3 436.9c1.2-.1 2.3-.2 3.5-.3.2.9.4 1.8.5 2.8.2 1.8.3 3.5.3 5.3-.1 3.2-.6 6.5-1.5 9.6-1.6 6.1-4.3 11.9-7.3 17.5-5.5 10.4-11.4 20.7-17.1 31-.9 1.7 1.7 3.2 2.6 1.5 4.8-8.7 9.7-17.4 14.5-26.1 4.5-8.1 9-16.6 10.9-25.8 1-5 3.1-16.5-2.1-20-3.3-2.3-7.6.8-7.2 4.6.1 1.8 3.1 1.8 2.9-.1z" fill="#161616"/><path d="M895.2 425.6c-1.5.1-1.9 6.3-2.9 13.7-1.6 13-3.4 27.6-9.6 39.8-2 4-5.6 9.9-12.1 16.3-1 7.1-2.9 17.3-6.1 29.3-5.6 21-13.8 50.8-37 78.7-6.3 7.5-16 17.9-30.3 28-.4 9.8-.8 19.5-1.3 29.3 6.2-4.7 15.2-12.2 24.5-22.9 12.2-14.1 20.1-30.1 35.4-61.5 12.2-25.1 15.5-34.8 17.5-41.8 3.8-12.8 5.7-23.9 6.7-31.9 6.8-10.7 11.8-20.2 15.3-27.7 6.1-13 15.9-34 9.9-39.2-1.7-1.4-4.2-1.3-6.1-1-.9-4.2-2.5-9.2-3.9-9.1z" opacity=".08" fill="#353535"/><path d="M891.4 484.2c-5.3 5.6-10.6 11.3-15.9 16.9-.5 4.8-1.4 11.9-3.5 20.4-4 16-9.8 27.2-12.1 31.9-5.9 11.8-13.6 29.8-21 56.7 3.3-5.7 20.8-36.1 30.6-62.1 3.7-10 5.7-15.2 7.3-23.3 2-9.7 1.5-14.2 4.1-22 2.9-8.5 7.3-14.7 10.5-18.5z" opacity=".1" fill="#353535"/></g><g><path d="M613.6 434.2c-3.2.9-3.3 9.6-2.8 14.5.8 8.7 4.2 15.2 5.7 18 6.4 11.8 12.6 22.9 18.9 33.6.8 7.2 2.2 17 5 28.4 4.9 20 11.2 33.6 19.9 52.3 13.8 29.5 22 46.4 39.5 64.4 6.6 6.7 12.6 11.7 16.7 14.9 1.5-1.7 10.7-12.3 8.9-27.4-1.4-12.3-9.2-19.8-11.4-21.8-4.8-4-12.1-10.5-19.6-19.7-15.8-19.6-22.4-39.2-32-68.6-2.6-8-6.1-19.3-9.6-33.2 1.9-6.2 3.5-11.1 4.6-14.2 3.3-9.5 5.4-14.3 3.9-20.4-.4-1.6-1.2-4.6-3.2-5.2-2.3-.6-5.8 2.2-8.5 7.3-1.5-8.2-2.2-15-2.5-20.1-.4-7.4-.2-12.8-1.8-13.2-1.7-.4-4.3 5.6-4.6 6.2-2.5 5.6-2.5 10.9-2.1 14.2.8-18.6-1.3-23.3-3.6-23.9-1.9-.5-4.3 2-5 2.8-4.7 5-2.3 12.3-2.1 12.8-2.1-11.1-4.3-11.8-5-11.8-1.8-.1-3.6 3.9-4.3 6.2-.8 2.8-.3 5.3 0 6.6-1.6-1.5-3.5-3.1-5-2.7z" fill="#fff"/><path d="M651.9 485c.3 12.8 4 25.2 7.8 37.4 3.8 12.1 8.1 24 13.4 35.5 9.9 21.5 23.3 41.4 41.2 56.9 1.5 1.3 3.6-.9 2.1-2.1-17.3-15-30.3-34-40-54.7-5.3-11.2-9.6-22.9-13.3-34.7-4-12.5-8-25.2-8.3-38.4 0-1.8-3-1.8-2.9.1zM634.7 502.5c2.6 31.6 15.8 61.3 29.4 89.6 12.6 26.3 28.1 51.9 51.3 70.1 1.5 1.2 3.6-.9 2.1-2.1-22.7-17.7-37.7-42.5-50.2-68-13.7-28.2-27.1-58-29.7-89.5-.1-2-3.1-2-2.9-.1z" fill="#161616"/><path d="M655 485c4.2-9.4 9.5-22.1 6.6-32.6-.7-2.6-2-4.7-5-3.5-3.9 1.5-3.5 7-7 9-1.7 1-.2 3.6 1.5 2.6 1.6-.9 2.5-2.1 3.4-3.7.4-.8.8-2.6 1.5-3.2 3.9-2.9 3.2 3.4 3.2 5.2-.2 8.4-3.5 17.2-6.9 24.8-.7 1.6 1.9 3.1 2.7 1.4z" fill="#161616"/><path d="M651.6 457.9c-3.1-7.2-2.2-15-2.4-22.6-.1-3.2.3-11-3.4-12.9-8.3-4.3-8.8 22.3-8.5 26 .2 1.9 3.2 1.9 3 0-.4-5.2-.2-10.4 1-15.5.3-1.3 1.4-7.3 3.9-6.2 1.1.5 1 7.4 1 8.6.2 8.3-.5 16.3 2.8 24.1.8 1.8 3.4.3 2.6-1.5z" fill="#161616"/><path d="M640 447.7c-1.1-7-.9-14.1-1.9-21-.3-2.5-1.6-8.2-5.1-8.3-3.6-.1-5.2 7.1-5.7 9.7-1.1 5.7-1.5 12.4.1 18 .5 1.8 3.4 1.1 2.9-.8-1.2-4-.9-8.6-.6-12.8.2-2.5.6-5.1 1.5-7.5 1.5-3.8 2.1-4.6 3.5 0 1.1 3.7.6 8 .9 11.8.3 3.9.8 7.8 1.5 11.7.3 1.9 3.2 1.1 2.9-.8z" fill="#161616"/><path d="M629.5 445.9c-.6-4.5 1.6-23.7-6.6-23.4-8.8.3-5.4 20.4-4.5 25.2.4 1.9 3.3 1.1 2.9-.8-.7-3.6-.9-7.3-.9-11 0-2.7-.8-8.8 2.4-9.1 3.3-.3 3.1 7 3.2 9.6.1 3.2 0 6.3.4 9.4.3 2 3.4 2.1 3.1.1z" fill="#161616"/><path d="M619.2 437.1c.4-3.7-3.7-6.9-7-4.6-4.9 3.4-3.1 14.3-2.2 19.1 1.6 8.9 5.6 17.1 9.9 25.1 4.9 9.3 10 18.5 14.9 27.7.9 1.7 3.5.2 2.6-1.5-5.7-10.6-11.6-21.1-17.1-31.8-2.7-5.3-5.2-10.8-6.6-16.7-.8-3.1-1.3-6.3-1.4-9.6 0-1.2 0-2.4.1-3.7 0-1.3.2-2.6.5-3.8.1-1.5 1.3-1.6 3.4-.3-.3 2 2.7 2 2.9.1z" fill="#161616"/><path d="M623.7 425c2.8 1 .8 13 .3 17.5-1.1 10.3 1.2 25.9 17.5 48.1 4.3 21.4 12.5 50.6 29.3 82.2 14.2 26.8 30.3 47.2 43.7 61.8 1 8.8 1.9 17.6 2.9 26.5-6.2-4.3-14.8-11.1-23.3-21-7.4-8.7-11.8-16.3-18.2-28.4-16.5-31.3-24.8-47-30.6-66-3.2-10.4-7-25.4-9.2-44-7.9-10.2-13.3-19.6-16.9-26.8-7-13.9-8.8-22.7-8.6-30.6.2-9 1.8-10.2 2.5-10.5 1.5-.6 3.5.6 4.8 1.6-.1-.5-1.1-5 1.9-8.3.5-.4 2.5-2.6 3.9-2.1z" opacity=".09" fill="#353535"/><path d="M615.7 460.7c1-.5 7.1 8.1 11.5 15.3 10.3 16.9 14.5 32 15.6 35.7 6.6 22.9 15.1 42.3 32.2 81 5.2 11.7 13.1 28.7 24.2 48.8-3.2-3-7.8-7.5-12.7-13.4-4.3-5.1-18.4-22.4-33.1-62.1-5.7-15.5-12.4-36.4-17.2-62.1-3.4-5.8-8.1-14.1-13.1-24.5-2.2-4.7-8.5-18.1-7.4-18.7z" opacity=".09" fill="#353535"/></g><g><path d="M757.7 602.4c-3.5-.3-9.7-.8-17.8 0-9.4 1-17.8 1.8-24.1 7.3-4.7 4.1-6.1 9.2-8.7 19.3-1.5 5.9-3.5 13.9-3.3 24.7.4 20 8 22.6 12 46.8 2 11.7 1.8 20.8 1.7 31.7-.2 14.5-1.7 26.8-3.3 36.3 4.3 3.4 10.9 8 19.9 11.6 5.5 2.2 21.1 8.1 41.1 4.6 21-3.6 33.9-15.4 38.2-19.7-7-18.9-7.7-34.1-7.1-44.4.8-12.5 3.4-15.2 7.1-42.1 2.8-20 2.7-28.3 2.5-32.8-.7-18-1.1-27.1-7.1-33.2-5.9-6-21-7.4-51.1-10.1z" fill="#fff"/><path d="M752.7 601.7c-7.4-.5-14.8-.1-22.1 1.2-6.2 1.1-12.6 2.2-16.7 7.3-7.5 9.2-10.7 21.9-11.3 33.5-1.5 29.6 13.2 56.6 18.2 85.2.3 1.9 3.2 1.1 2.9-.8-4.5-25.8-16.9-49.9-18.1-76.3-.5-12.1 1.3-24.5 7.5-35.1 2.1-3.6 4.4-7.1 8.5-8.6 2.8-1 5.9-1.6 8.8-2.2 7.3-1.4 14.8-1.7 22.2-1.3 2 .2 2-2.8.1-2.9z" fill="#161616"/><path d="M713.9 700.1c2.9 22 2.6 44.2-1 66.1-.3 1.9 2.6 2.7 2.9.8 3.7-22.2 4.1-44.6 1.1-66.9-.3-1.9-3.3-1.9-3 0zM765 604.4c13.4-.8 29.9.8 41.3 8.8 6.9 4.9 7.2 13.1 7.9 20.8.7 6.9 1 13.8.5 20.8-2 27.3-13 53.2-12.9 80.8 0 1.9 3 1.9 3 0-.1-31.1 14.1-60.4 13.1-91.6-.4-11.9 0-27.2-11.4-34.2-11.9-7.3-27.8-9.2-41.5-8.4-2 .1-2 3.1 0 3z" fill="#161616"/><path d="M804.9 705.6c-.2 19.6 2.2 39 7 58 .5 1.9 3.4 1.1 2.9-.8-4.7-18.7-7.1-37.9-6.9-57.2 0-1.9-3-1.9-3 0z" fill="#161616"/><path d="M713.1 769c13.6 11.3 30.9 18.1 48.7 18.2 20.1.1 36.9-9.7 52.4-21.6 1.5-1.2 0-3.8-1.5-2.6-14.7 11.2-30.4 20.8-49.3 21.1-17.5.3-34.7-6.2-48.1-17.3-1.6-1.2-3.7.9-2.2 2.2z" fill="#161616"/><path d="M788.8 603.7c3.1 7.5 7.1 18.8 9.1 32.9 3.9 28.3-2.7 50-10.6 75.1-5.9 18.7-15.8 44.5-33.2 73.4 5.5.5 12.3.5 19.9-.9 19.8-3.6 33-14.4 38.9-19.9-.7-5-1.9-12.8-3.6-22.2-2.7-14.7-3.6-15.8-3.9-21.1-.4-6.5.7-5.7 6.6-33.2 2.3-10.8 4-20.6 5-33.4.1-1.1.1-2.2.2-3.3.5-16.5.7-26.6-6.3-35.2-6.7-8.2-16.4-11.1-22.1-12.2z" opacity=".11" fill="#353535"/><path d="M817.7 651.6c-.7-.2-4.2 5.3-12.4 27.2-9 24.1-20.1 58.8-28.7 103.7 4.4-.6 10.5-1.9 17.2-4.9 9-4.1 15-9.6 18.4-13.3-3-10.5-6.4-26.1-6.3-45.1.1-37.4 13.4-67.1 11.8-67.6z" opacity=".08" fill="#353535"/></g><g><path d="M721.6 529.6c-3.9 8-2.8 16.1-1.9 19.9-.4 0-5.1-.2-7.6 3.2-3 4-.2 9 .3 9.8.7 1.2 1.6 2.9 3.5 3.4 3 .9 5.8-1.7 6-1.9 1.5 3.8 4 8.6 7.9 13.5 6 7.6 12.7 12.1 17.2 14.6.2 4.8.4 9.5.5 14.3 1.1 1 3.4 2.8 6.8 3.4 6.7 1.3 11.9-3.1 12.5-3.7l-.3-18c2.6-2 5.6-4.8 8.5-8.5 5.8-7.6 7.9-15.3 8.7-19.9 1.1.4 2.9.8 5.2.8 2.2 0 5-.1 6.3-1.9 1.4-2-.1-4.9-1.6-8-1.5-2.9-2.6-3.3-3-3.4-1.7-.5-3.3.5-3.8.8.4-3.2.6-9.2-1.9-15.9-.7-1.9-4.7-12.1-14.4-17.5-15.9-8.6-40.9-1.3-48.9 15z" fill="#fff"/><path d="M719.8 529.8c-5.9 25.9 3.7 59.3 33.1 64.9 1.9.4 2.7-2.5.8-2.9-27.8-5.3-36.5-36.8-31-61.2.4-1.9-2.5-2.7-2.9-.8z" fill="#161616"/><path d="M753.3 594.6c4.1 1.2 9.7-2.7 13-4.9 4.4-2.9 8.3-6.6 11.4-10.9 7.7-10.3 10.6-23.3 9.4-35.9-.2-1.9-3.2-1.9-3 0 1.1 10.9-.9 22-6.8 31.3-2.5 3.9-5.6 7.4-9.2 10.4-2.9 2.4-10 8.2-14 7.1-1.9-.5-2.7 2.4-.8 2.9zM744.5 592.2c1.5 4.1 1.9 8.4 1.2 12.7-.3 1.9 2.6 2.7 2.9.8.8-4.9.5-9.6-1.2-14.3-.6-1.8-3.5-1.1-2.9.8z" fill="#161616"/><path d="M765.2 588.8c-.5 5.1-.1 10.1 1.2 15.1.5 1.9 3.4 1.1 2.9-.8-1.2-4.7-1.5-9.5-1.1-14.3.2-1.9-2.8-1.9-3 0z" fill="#161616"/><path d="M745.8 606.8c6.9 7.7 21.3 7.5 23.8-4.2.4-1.9-2.5-2.7-2.9-.8-2.1 9.5-13.3 8.9-18.8 2.9-1.3-1.4-3.4.7-2.1 2.1zM746.4 594.2c5.8 5.3 14.9 4.1 18.6-3 .9-1.7-1.7-3.2-2.6-1.5-2.8 5.3-9.5 6.5-13.9 2.4-1.4-1.3-3.5.8-2.1 2.1z" fill="#161616"/><path d="M752.4 596.4c1.4-.1 2.7 0 4 .4 1.9.5 2.7-2.4.8-2.9-1.6-.4-3.2-.6-4.8-.5-1.9.1-1.9 3.1 0 3zM720.1 564.3c-4.1 3.3-7.7-1.3-8.1-5.2-.5-3.8 2.8-8.5 7-5.9 1.6 1 3.1-1.6 1.5-2.6-6.2-3.9-12.2 2.7-11.5 8.9.8 6.6 7.3 11.7 13.2 6.9 1.5-1.2-.6-3.3-2.1-2.1zM787.6 549.7c3.2-3 6.3 2.7 6.2 5.3 0 1.6-.8 3.2-2.2 4.1-1.1.7-3.7 1.6-4.6.2-1-1.6-3.6-.1-2.6 1.5 1.5 2.5 4.9 2.6 7.4 1.6 2.9-1.2 4.8-3.9 4.9-7 .3-5.5-6-12.8-11.3-7.8-1.3 1.3.8 3.5 2.2 2.1zM747.4 529.5c.8 7 .4 13.6-.3 20.6-.4 4.7 2.1 6.7 5.8 9.7 1.5 1.2 3.6-.9 2.1-2.1-2.6-2.2-4.9-3.7-4.8-7.7 0-1.9.5-4 .7-5.9.4-4.9.2-9.8-.4-14.6-.3-1.9-3.3-1.9-3.1 0zM730.7 543.7c-.1-2.2 3.1-3.6 4.9-3.5 2.1 0 3.2 1.7 4.3 3.3 1.1 1.6 3.7.1 2.6-1.5-2-2.9-4.3-5.3-8.1-4.7-3.2.6-6.9 2.9-6.8 6.5.1 1.9 3.1 1.9 3.1-.1zM765 541c2.7-5.1 10-4.3 11.3 1.4.4 1.9 3.3 1.1 2.9-.8-1.8-8.2-12.9-9.5-16.8-2.2-.8 1.7 1.7 3.3 2.6 1.6zM727.8 533.1c1.7-2.6 4.6-4.3 7.7-4.7 1.9-.2 1.9-3.2 0-3-4.3.5-7.9 2.6-10.3 6.2-1.1 1.6 1.5 3.1 2.6 1.5zM765 527.5c3.6-.2 6.9.9 9.5 3.3 1.4 1.3 3.6-.8 2.1-2.1-3.2-2.9-7.3-4.4-11.7-4.2-1.9.1-1.9 3.1.1 3zM731.5 551.4v-.2c0-.8-.7-1.5-1.5-1.5s-1.5.7-1.5 1.5v.2c0 .8.7 1.5 1.5 1.5s1.5-.6 1.5-1.5zM736.1 550.7h.2c.8 0 1.5-.7 1.5-1.5s-.7-1.5-1.5-1.5h-.2c-.8 0-1.5.7-1.5 1.5.1.8.7 1.5 1.5 1.5zM735.9 557.3h.2c.8 0 1.5-.7 1.5-1.5s-.7-1.5-1.5-1.5h-.2c-.8 0-1.5.7-1.5 1.5s.7 1.5 1.5 1.5zM768.3 548.5h.2c.8 0 1.5-.7 1.5-1.5s-.7-1.5-1.5-1.5h-.2c-.8 0-1.5.7-1.5 1.5.1.8.7 1.5 1.5 1.5zM777.1 548.3c1.9 0 1.9-3 0-3s-1.9 3 0 3zM773.8 553.1c1.9 0 1.9-3 0-3-2 0-2 3 0 3zM740.7 566.2c6.1 11 22.1 9.4 26-2.5.6-1.8-2.3-2.6-2.9-.8-3.1 9.6-15.7 10.4-20.5 1.8-.9-1.7-3.5-.2-2.6 1.5z" fill="#161616"/><path d="M705 541.7c-3.7 5.5-9 15-11.1 27.7-1.5 9.1-4.1 25 5.9 37.6 2.7 3.4 12.6 14.5 26.2 12.7 9.1-1.2 18.8-8 20.6-17.5.9-4.4-.1-8.2-1-10.4-4.3-2.1-12-6.5-18-15.1-3-4.2-4.8-8.3-5.8-11.5-.5.4-2.1 1.6-4.3 1.5-2.6-.1-4.2-1.9-4.6-2.4-3.1-3.5-2.8-10.7 1.3-13.1 2.1-1.2 4.5-.8 5.8-.5-.6-3.7-1.2-11.6 3-19.9 2.8-5.6 7.1-9.7 17-15.9 8.2-5.1 11.8-4.7 13.1-4.5 4.4.8 7.1 4.3 8.5 6.1 6.3 8 14.5 18.3 24.3 31 .4-.2 3.1-1.5 5.8-.3 1.9.9 2.8 2.6 3.4 3.9.5 1.1 1.3 2.7.9 4.6-.4 2.4-2.3 4.6-4.9 5.4-3.2 1-5.8-.7-6.2-1-.8 3.8-2.4 9.5-6.2 15.6-3.9 6.2-8.4 10.3-11.5 12.7-.4 2.4-.9 6.8 1 11.8 3 8.2 10.8 13.4 18 15 13.5 2.9 24.4-7.2 27.2-9.9 9.6-9 15.4-24.1 10.5-38.6-3.7-10.8-11.9-16.7-15.1-18.8-3.9-9-7.9-16-11.1-21-9-14.1-15.2-23.6-26.5-27.1-6.9-2.1-13.2-1.3-17.4-.3-6.8-1.5-12.1-.9-15.7 0-16.6 4.1-29.2 20.7-33.1 42.2z" fill="#5222d0"/><path d="M773.6 530.6c-.8.3.8 5.5 1.6 10.7.1.7 1.8 13.6-3 25.9-5.4 13.8-16.6 21.2-21.5 24 3.1.7 6.3 1.4 9.4 2.2.9 5.4 1.7 10.9 2.6 16.3 2-2.4 4.1-4.8 6.1-7.2.9 1.7 2.5 4.2 5 6.5.8.8 6.6 6 15.2 6.7 9.6.9 16.7-4.3 20.7-7.2 2.7-1.9 10.7-7.9 14.4-19.4 4-12.5.1-23-1.1-25.9-1.3 5-4 12.5-9.8 19.8-1.4 1.8-14 17.5-21.8 14.8-6.7-2.3-9-18.1-5.7-38.8.2.2 1.8 2.1 4.1 2 2.9-.1 4.2-3 4.4-3.3 1.4-3-.3-6.3-2-8.1-2.2-2.4-5.2-2.8-6.1-2.8-1.3-1.3-3.2-3.3-5.2-5.9-4.8-5.9-6.6-10.5-7.3-10.3z" opacity=".08" fill="#353535"/><path d="M749.4 552.8c.8-1.3 5.2-1.6 6.5 1.1 1 2.1-.3 4.9-1.7 5.2-2.2.6-5.9-4.6-4.8-6.3zM726.3 595.1c-2.1 3.6-6.3 6.9-10.5 6.5-2.5-.2-5.3-1.7-15-17.2-3.2-5.1-5.7-9.5-7.4-12.4-.9 3.3-2.1 9.2-1.1 16.3.4 2.8 1.4 7.6 4.1 12.8 1.7 3.3 5.7 10.6 14.2 15.2 2.5 1.4 6.9 3.7 12.8 3.7 9.9-.1 16.3-6.7 17.6-8.1 2.3-2.3 5.6-5.8 6.1-11.3.5-5.3-2-9.4-2.6-10.2-3-4.6-6.2-4.1-11.3-8.5-6.5-5.6-8.3-12.5-9.1-12.2-1.2.7 7.9 15.6 2.2 25.4z" opacity=".09" fill="#353535"/><path d="M785.3 553c-.6-.2-2.4 6.1-7.6 14.6-7.4 12.1-16.5 20-23.1 24.8 4.6-1.3 12.8-4.3 19.6-11.7 10.8-11.6 12-27.4 11.1-27.7z" opacity=".13" fill="#353535"/></g></g></svg>