<svg xmlns="http://www.w3.org/2000/svg" width="1600" height="1200"><path d="M1347.3 949.9c-9.6-24.4-11-51.1-3.9-76.3-.7.3-1.5.6-2.2.9 1.8 1.2 3.5 2.5 5.3 3.7.7.5 2.1 0 2.2-.9 6.6-46.5 26-90.5 56-126.7-.8-.2-1.7-.4-2.5-.7 16.4 68.7-3.9 139.2-28.7 203.2-.7 1.8 2.2 2.6 2.9.8 25-64.6 45.2-135.5 28.7-204.8-.2-1-1.8-1.5-2.5-.7-30.2 36.6-50 81.1-56.7 128.1.7-.3 1.5-.6 2.2-.9-1.8-1.2-3.5-2.5-5.3-3.7-.8-.6-2 0-2.2.9-7.2 25.7-5.9 53.1 3.9 77.9.6 1.8 3.5 1 2.8-.8z" fill="#e8e8e8"/><path d="M1409.7 819c6.3-15.3 14.2-29.8 23.5-43.6-.7.2-1.4.4-2.1.5 1.2.9 2.5 1.8 3.7 2.6.7.5 1.7.1 2.1-.5 8.7-15.7 18.9-30.5 30.6-44.1l-2.4-.3c15.4 26.5 3.7 59.2-5.7 85.7-10.2 29.1-22.9 57.3-38.7 83.7-9 15-19 29.4-30 42.9-1.2 1.5.9 3.6 2.1 2.1 20.2-24.8 36.8-52.1 50.3-81 6.7-14.3 12.6-28.9 18-43.7 5.3-14.7 10.5-29.7 12.9-45.2 2.5-15.8 1.7-32-6.4-46.1-.5-.8-1.7-1-2.4-.3-11.8 13.9-22.2 28.8-31.1 44.7.7-.2 1.4-.4 2.1-.5-1.2-.9-2.5-1.8-3.7-2.6-.7-.5-1.6-.1-2.1.5-9.4 13.9-17.3 28.7-23.8 44.3-.5 1.9 2.4 2.7 3.1.9zM1400.6 751.6c-13.2 61.1-33.3 120.6-42.8 182.4-.3 1.9 2.6 2.7 2.9.8 9.5-61.9 29.6-121.4 42.8-182.4.4-1.9-2.5-2.7-2.9-.8z" fill="#e8e8e8"/><path d="M1465.9 734.3c-10.3 62.8-40.9 119.3-71.1 174.4-.9 1.7 1.7 3.2 2.6 1.5 30.3-55.4 61-112.1 71.4-175.1.3-1.9-2.6-2.7-2.9-.8zM1359.6 825.1c7.1 11 11.8 23.2 13.8 36.2.3 1.9 3.2 1.1 2.9-.8-2-13.2-6.8-25.7-14.1-36.9-1.1-1.6-3.7-.1-2.6 1.5zM1380.6 843.3c10.1-15.5 20.2-31.1 30.3-46.6 1.1-1.6-1.5-3.1-2.6-1.5-10.1 15.5-20.2 31.1-30.3 46.6-1.1 1.6 1.5 3.1 2.6 1.5z" fill="#e8e8e8"/><path d="M1420.8 790.6c-.4 20.8 1.1 41.5 4.3 62 .3 1.9 3.2 1.1 2.9-.8-3.2-20.3-4.6-40.7-4.2-61.2.1-2-2.9-2-3 0zM1449.8 803.6c8.2-8.3 16.2-17 23.8-25.9 1.2-1.5-.9-3.6-2.1-2.1-7.6 8.9-15.5 17.5-23.8 25.9-1.4 1.4.7 3.5 2.1 2.1zM263.6 898c-21.8-15.5-36.9-39-42-65.3-.3.6-.7 1.2-1 1.8 2.4-.7 4.6-.1 6.4 1.7 1.3 1.3 3-.3 2.4-1.8-13.3-30-20.3-62.5-20.4-95.3-.4.5-.7 1-1.1 1.4 1 .5 2.1 1.1 3.1 1.6.7 1.2 2.9.8 2.8-.8l-2.1-26.1c-.6-7.7-1.5-15.8 3.5-22.3-.7.2-1.4.4-2.1.5 7 5 11.1 13.1 15.2 20.4 4 7.2 7.8 14.6 11.4 22 7.5 15.6 13.9 31.7 19.2 48.2 10.5 32.2 16.8 65.6 18.9 99.4.1 1.9 3.1 1.9 3 0-2.2-35.2-8.9-70.1-20.1-103.6-5.5-16.4-12-32.4-19.6-47.9-3.9-8-8-15.8-12.4-23.5-3.8-6.7-7.7-13.1-14.1-17.7-.7-.5-1.6-.1-2.1.5-4.5 5.9-4.6 13.3-4.2 20.5.7 9.8 1.6 19.6 2.4 29.5.9-.3 1.9-.5 2.8-.8-1.5-2.6-3.6-3.4-6.5-3-.6.1-1.1.8-1.1 1.4.2 33.4 7.3 66.3 20.8 96.8l2.4-1.8c-2.6-2.7-5.8-3.5-9.3-2.5-.8.2-1.2 1-1 1.8 5.3 27.1 20.9 51.1 43.3 67.1 1.6 1.5 3.1-1.1 1.5-2.2z" fill="#e8e8e8"/><path d="M254.6 761.2c-.9-5.7-1.6-11.4-1.9-17.1-.3-5.3-1.8-13.2 2.2-17.4 2.3-2.3 3.4-3.4 3.9-6.9.7-5.6.7-11.3 1.3-16.9 1.2-11.7 2.9-23.2 5.3-34.7.4-1.9.6-5.5 1.6-7.2 2.4-3.9 6.1.2 8 2.1 3.4 3.4 6.1 7.4 8.4 11.6 9.6 17.6 12.2 39.3 14.8 58.9 2.9 21.8 4.1 43.8 3.5 65.8-.6 25-4 49.9-12.6 73.5-.7 1.8 2.2 2.6 2.9.8 16.7-46.1 15.2-98.4 8.3-146.2-2.9-20.3-6-43.4-18.3-60.6-2.7-3.7-10.9-15.5-16.2-10.2-2.8 2.7-3 9-3.7 12.5-1.3 6.6-2.5 13.2-3.4 19.9-.9 6.5-1.6 13-2.2 19.5-.3 3.5 0 7.5-.8 10.9-.8 3.3-3.2 4.3-4.8 6.9-2.6 4-1.6 10.3-1.4 14.8.3 6.9 1.1 13.8 2.2 20.7.3 2 3.2 1.2 2.9-.7z" fill="#e8e8e8"/><path d="M266.7 658.9c16.1 62.4 20.6 127.3 13.3 191.3-.2 1.9 2.8 1.9 3 0 7.3-64.3 2.7-129.5-13.4-192.1-.5-1.8-3.4-1-2.9.8zM211 692.8c23.5 60.1 41.8 122.1 54.9 185.3.4 1.9 3.3 1.1 2.9-.8-13-63.2-31.4-125.2-54.9-185.3-.8-1.8-3.7-1-2.9.8z" fill="#e8e8e8"/><path d="M211.5 784.8c16.4 4.6 30 15.4 38.3 30.3.9 1.7 3.5.2 2.6-1.5-8.7-15.5-23.1-26.8-40.1-31.6-1.9-.6-2.7 2.3-.8 2.8zM244.7 746c-1.8 15.5-2.1 31-.9 46.5.1 1.9 3.1 1.9 3 0-1.2-15.5-.9-31 .9-46.5.2-1.9-2.8-1.9-3 0zM255.3 726c13.6 17.7 23.1 38.1 27.9 59.9.4 1.9 3.3 1.1 2.9-.8-4.9-22-14.4-42.7-28.2-60.6-1.1-1.6-3.7-.1-2.6 1.5zM290.1 690c-5 11.6-8.5 23.6-10.4 36.1-.3 1.9 2.6 2.7 2.9.8 1.8-12.2 5.2-24 10.1-35.4.8-1.7-1.8-3.3-2.6-1.5zM158.8 969.5c54.2-19.1 112-3.9 166.4 5.8 58.1 10.3 116.8 17.1 175.6 20.2 33.3 1.8 66.6 2.4 100 1.8 1.9 0 1.9-3 0-3-60.1 1-120.3-1.8-180.1-8.3-30.4-3.3-60.7-7.6-90.8-12.9-26.9-4.7-53.7-10.5-80.8-13.7-30.5-3.5-61.8-3.1-91.1 7.2-1.8.7-1 3.6.8 2.9zM472.9 967c89.7 22 182.6 16.2 273.6 7.8 46.8-4.3 93.5-9.4 140.4-11.9 46.8-2.5 93.5-1.7 140.2 2.9 54.3 5.4 108 15.3 161.4 26.5 1.9.4 2.7-2.5.8-2.9-92.8-19.5-186.5-33.8-281.5-30.4-93 3.3-185.2 18.6-278.3 20.3-52.3 1-104.8-2.7-155.7-15.2-2-.5-2.8 2.4-.9 2.9zM864.8 1030.5c73.6-15.2 148.5-.8 221.8 8.9 72.9 9.6 146.3 11.2 219.3 1.9 40.4-5.1 80.3-13.3 119.4-24.3 1.9-.5 1.1-3.4-.8-2.9-70.9 20-144.4 30.4-218.1 30.7-36.6.1-73-2.4-109.3-7-37.1-4.7-74-10.8-111.2-14.3-40.7-3.8-81.8-4.2-122 4.2-1.8.3-1 3.2.9 2.8zM1194.9 953.9c37.4 13.9 77.6 5.7 115.1-3.3 41.5-9.9 82.8-18.1 125.5-20.5 23.7-1.3 47.5-1.1 71.2.4 1.9.1 1.9-2.9 0-3-41.2-2.7-82.5-1.1-123.4 4.8-20.4 3-40.6 7.2-60.6 12.1-19.9 4.8-39.9 9.9-60.3 12.4-22.5 2.8-45.3 2.1-66.7-5.9-1.8-.5-2.6 2.4-.8 3zM1164.6 633.7c-2.9 9-5.9 17.9-8.8 26.9-.7 2.3-1.4 4.5-.7 6.9 1 3.2 4.4 5.1 4.5 8.7.6-.5 1.3-1 1.9-1.4-11.8-3.5-11.4 15.3-11 21.9.7 13.1 4.9 25.7 11.9 36.7 1 1.6 3.6.1 2.6-1.5-5-7.8-8.5-16.4-10.3-25.5-1-4.9-4.5-31.9 6-28.8.9.3 1.9-.5 1.9-1.4 0-2.4-.9-4-2.3-5.9-2.6-3.7-2.4-6.4-1-10.7 2.7-8.4 5.5-16.7 8.2-25.1.6-1.9-2.3-2.7-2.9-.8z" fill="#e8e8e8"/><path d="M1165.6 634.1c11.3 11.5 14.1 30.2 15 45.6 1 16.6-1.4 33.2-6.7 48.9-.6 1.8 2.3 2.6 2.9.8 5.8-17.1 8.2-35.3 6.6-53.3-1.3-15.3-4.5-32.8-15.6-44.2-1.5-1.3-3.6.8-2.2 2.2z" fill="#e8e8e8"/><path d="M1183.5 678.6c2-13.4 5.4-26.4 10.1-39.1-.7.3-1.5.6-2.2.9 2.1 1.4 4.2 2.9 6.3 4.3 1 .7 2.2-.2 2.3-1.3.9-22.3 18.3-39.4 23-60.6h-2.9c8 48.2-2.1 98.4-28.1 139.8-1 1.6 1.6 3.1 2.6 1.5C1221 682 1231.1 631 1223 582c-.2-1.5-2.6-1.4-2.9 0-4.8 21.6-22.2 38.7-23.1 61.4.8-.4 1.5-.9 2.3-1.3-2.1-1.4-4.2-2.9-6.3-4.3-.9-.6-1.9.1-2.2.9-4.7 12.7-8.1 25.7-10.1 39.1-.4 1.9 2.5 2.7 2.8.8z" fill="#e8e8e8"/><path d="M1219.8 589c-3.2 36.9-13.2 72.9-29.5 106.1-.8 1.7 1.7 3.2 2.6 1.5 16.5-33.8 26.7-70.2 29.9-107.6.1-2-2.9-1.9-3 0zM1164.2 636.5c4.1 29.8 8 60.2 1.7 89.9-.4 1.9 2.5 2.7 2.9.8 6.5-30.3 2.5-61.2-1.7-91.5-.2-1.9-3.1-1.1-2.9.8zM1018.9 736.7c15.4-1.2 30.9-.1 45.9 3.6 12.7 3.1 25.3 9.5 38.6 7.5 13.7-2.1 25.2-11.2 39.3-11.7 13.6-.5 27 4.2 40.4.3 1.9-.5 1.1-3.4-.8-2.9-14 4-28.1-1.5-42.2-.2-12.8 1.2-23.5 8.9-35.9 11.4-14.3 2.8-28.5-5-42.3-8-14.2-3.1-28.7-4-43.1-2.8-1.8-.1-1.8 2.9.1 2.8zM136.8 876.9c27.6 25.8 67.6-2.1 99.3 8.2 1.8.6 2.6-2.3.8-2.9-16.9-5.5-34.2-1.2-51.2 1.4-15.9 2.4-34.2 2.8-46.8-8.9-1.4-1.2-3.6.9-2.1 2.2z" fill="#e8e8e8"/><g><path d="M1326.7 913.4c-162.9 10.3-334.9 16.6-515.3 17.5-181.7.9-355-3.8-519-12.5 16.1-28.3 32.3-56.5 48.6-84.6 13.1-22.7 26.4-45.3 39.7-67.8 141 8 293.4 11.2 455.7 7.2 152.9-3.8 296.7-13.6 430.2-27.3 12.3 17.3 26.5 40.7 38.1 70.2 15 38.3 20.2 72.6 22 97.3z" fill="#fff" stroke="#161616" stroke-width="3" stroke-miterlimit="10"/><path d="M367.9 898c56.8 6.1 114 8 171.2 5.7 1.9-.1 1.9-3.1 0-3-57.1 2.3-114.3.4-171.2-5.7-1.9-.2-1.9 2.8 0 3zM469 883.6c27.7 1.1 55.5.4 83.2.4 28.1-.1 56.1-.1 84.2-.2 1.9 0 1.9-3 0-3-28.1.1-56.1.1-84.2.2-27.7.1-55.5.7-83.2-.4-1.9-.1-1.9 2.9 0 3zM838.7 876.3c84.7-5.4 169.3-11.8 253.9-19.2 1.9-.2 1.9-3.2 0-3-84.5 7.4-169.2 13.8-253.9 19.2-1.9.1-1.9 3.1 0 3zM1059.5 824.9c65.6-2.4 131.1-6.5 196.5-12.6 1.9-.2 1.9-3.2 0-3-65.4 6-130.9 10.2-196.5 12.6-1.9 0-1.9 3 0 3zM1116.9 889.1c55.1-2.4 110.2-4.8 165.3-7.3 1.9-.1 1.9-3.1 0-3-55.1 2.4-110.2 4.8-165.3 7.3-1.9.1-1.9 3.1 0 3z" fill="#161616"/><path d="M389.9 762.4c2.5 4.7 5 9.4 7.6 14.2 2.3 1.5 10.1 6.1 19.9 4.3 4.1-.7 7.3-2.3 9.4-3.6l8.4-14.7c-5.5-1.7-13.6-3.7-23.6-3.6-9.1.1-16.5 1.8-21.7 3.4z" fill="#fff" stroke="#161616" stroke-width="3" stroke-miterlimit="10"/><path d="M391.6 764.1c9 5.6 21.9 4.3 32 3.7 1.9-.1 1.9-3.1 0-3-9.5.5-22 2-30.5-3.3-1.6-1-3.1 1.6-1.5 2.6z" fill="#161616"/><path d="M368.3 696.7c8.5 22 17 44 25.4 66 .7 1.8 3.6 1 2.9-.8-8.5-22-17-44-25.4-66-.7-1.8-3.6-1.1-2.9.8z" fill="#161616"/><path d="M381.1 697.2c4.4 22.5 9.6 44.9 15.5 67.1.5 1.9 3.4 1.1 2.9-.8-6-22.2-11.2-44.6-15.5-67.1-.4-1.9-3.3-1.1-2.9.8z" fill="#161616"/><path d="M368.9 685.5c-1.5-4.8 2.5-9.3 1.4-14.3-1.3-5.3-6.5-7.5-5.9-13.6.4-4.2 2.5-8.2 1.8-12.5-.5-2.7-2.2-4.3-3.4-6.7-1.4-3-.8-5.8 0-8.9.8-3.5 2.1-7.3.7-10.9-.7-1.9-2.1-2.8-3.3-4.3-2.8-3.3-2.4-6.7-1.7-10.7 2.2-12.4 2.3-24.3-.9-36.6-.5-1.9-3.4-1.1-2.9.8 1.8 7 2.8 14.1 2.6 21.3-.2 6.1-1.8 11.8-2.3 17.8-.4 4.9 1.2 7 4.2 10.5 3.9 4.7.6 10.1-.1 15.4-.2 1.7-.2 3.5.3 5.2.8 2.8 3.3 4.7 3.8 7.7.8 4.8-2.2 9.5-1.9 14.3.4 5.2 5.8 7.9 6.2 12.9.4 4.7-3 8.5-1.5 13.4.6 1.8 3.5 1 2.9-.8zM383.4 683.2c-3.1-2.9.8-5.9-.3-9.3-.6-1.9-2.6-3.3-2.7-5.4-.1-1.9 1.2-4 1.5-5.9.5-3.6-1.4-5.3-2.3-8.6-1.2-4.5 1.5-9.5 2.3-13.9.6-3.4.3-6.3-.9-9.5-1-2.6-2-4.8-1.8-7.6.2-2.3 1.2-4.4 1.7-6.6 2-8-5.1-16.5-1.7-23.9.8-1.7-1.8-3.3-2.6-1.5-4 8.5 3.4 16.6 1.2 25.4-1.1 4.4-2.4 7.6-.9 12.1.9 2.5 2.2 4.9 2.3 7.7.2 2.8-.8 5.5-1.5 8.1-.9 3.4-1.9 7-1 10.5.8 2.9 2.7 5.1 2 8.3-.4 1.6-1.1 3.1-1.2 4.8-.1 1.6.1 2.8.9 4.2.4.7 1.6 1.8 1.7 2.3.2.8-.5 2.4-.7 3.1-.7 3.1-.5 5.4 1.9 7.7 1.4 1.4 3.5-.7 2.1-2z" fill="#e8e8e8"/></g><g><path d="M248.6 230.9c19.8 6.2 40.8 5.8 61.3 5.4 19.6-.4 39.1-1.7 58.5-3.7 38.7-4.1 77-11.4 114.6-21.5 76.1-20.4 149-52 217.1-91.4 38.6-22.3 75.6-47.1 111.1-74 1.5-1.2 0-3.8-1.5-2.6-62.1 47.1-129.1 87.9-200.3 119.7-71.4 31.9-147.2 54.9-224.9 64.9-21.3 2.8-42.8 4.6-64.3 5.3-23.4.8-48.1 2.1-70.7-5-1.9-.5-2.7 2.3-.9 2.9z" fill="#e8e8e8"/><path d="M766.5 77.7c26.7 23.1 58.2 39.6 90.6 53.3 34.8 14.7 70.8 26.9 107.4 36.3 72.4 18.8 147.5 27.2 222.2 24.9 42.6-1.3 87.1-4.2 127.8-17.8 1.8-.6 1-3.5-.8-2.9-36.2 12.2-75.3 15.3-113.2 17.2-36.7 1.8-73.5 1-110-2.4-73.9-6.8-146.8-24.1-215.8-51.4-37.7-14.9-75-32.6-105.9-59.3-1.7-1.3-3.8.8-2.3 2.1z" fill="#e8e8e8"/><path d="M365.5 128.8c36.7 21.2 80.4 26.4 121.8 30.8 42.6 4.5 85.6 5.7 128.5 3.8 84.6-3.8 168.8-19.8 248.8-47.5 45.1-15.6 88.8-34.9 130.7-57.6 1.7-.9.2-3.5-1.5-2.6-73.7 40.1-153.3 69.2-235.4 86.6-82.3 17.4-167.2 23-251.1 16.2-23.8-1.9-47.7-4.6-71.2-8.9-24.1-4.4-47.8-11-69.1-23.3-1.6-1-3.1 1.6-1.5 2.5z" fill="#e8e8e8"/><path d="M488.7 193.7V231c0 1.9 3 1.9 3 0v-37.3c0-2-3-2-3 0zM489.6 255.6v43.7c0 1.9 3 1.9 3 0v-43.7c0-1.9-3-2-3 0zM540.6 296.6v54.6c0 1.9 3 1.9 3 0v-54.6c0-2-3-2-3 0zM538.8 394.9v26.4c0 1.9 3 1.9 3 0v-26.4c0-1.9-3-1.9-3 0zM642.6 126.3v48.3c0 1.9 3 1.9 3 0v-48.3c0-1.9-3-1.9-3 0zM642.6 191.8v36.4c0 1.9 3 1.9 3 0v-36.4c0-1.9-3-1.9-3 0zM1072.3 144.5v62.8c0 1.9 3 1.9 3 0v-62.8c0-1.9-3-1.9-3 0zM1071.4 231.9v32.8c0 1.9 3 1.9 3 0v-32.8c0-1.9-3-1.9-3 0zM892.9 108.1v40.1c0 1.9 3 1.9 3 0v-40.1c0-1.9-3-2-3 0zM893.9 186.4v36.4c0 1.9 3 1.9 3 0v-36.4c0-1.9-3-1.9-3 0zM1172.5 251.9v35.5c0 1.9 3 1.9 3 0v-35.5c0-1.9-3-1.9-3 0zM1173.4 312v28.2c0 1.9 3 1.9 3 0V312c0-1.9-3-1.9-3 0z" fill="#161616"/><circle cx="491" cy="244.8" r="16.6" fill="#5222d0"/><circle cx="541.1" cy="429.3" r="11.4" fill="#5222d0"/><circle cx="645.4" cy="244.1" r="5.4" fill="#5222d0"/><circle cx="898.2" cy="257.1" r="7.6" fill="#5222d0"/><circle cx="897.7" cy="163.4" r="7" fill="#5222d0"/><circle cx="540.1" cy="379.6" r="7.8" fill="#ec615b"/><circle cx="643.1" cy="121.9" r="7.7" fill="#ec615b"/><circle cx="643.1" cy="190" r="7.7" fill="#ec615b"/><circle cx="894.4" cy="232.1" r="3.8" fill="#ec615b"/><circle cx="1073.9" cy="280.6" r="15.9" fill="#ec615b"/><circle cx="1176.6" cy="363.5" r="7.6" fill="#ec615b"/><circle cx="1073.8" cy="163.4" r="7" fill="#ec615b"/><circle cx="1073.9" cy="193.7" r="5.4" fill="#5222d0"/><circle cx="1174.9" cy="297.2" r="5.4" fill="#5222d0"/><path d="M416.5 374.9c-4.7 7.4-9.4 14.7-14.1 22.1-3.7 5.8-7.4 11.9-8.7 18.8-2.1 11.9 5.9 19.9 12.7 28.5 3.9 4.9 7.5 10.5 5.8 16.9-1.5 5.8-6.3 10.8-5.6 17.2.3 2.7 1.7 4.8 2.9 7.1 2 4 3.4 8.3 3.9 12.7.9 8.2-1 16.4-5.3 23.4-1 1.7 1.6 3.2 2.6 1.5 6.6-10.9 7.9-24.6 2.8-36.4-1.8-4.2-4.8-7.6-3.5-12.6.9-3.3 2.8-6.2 4.1-9.3 1.9-4.7 2.1-9.4.1-14.1-4.5-10.6-17-17.5-17.8-29.8-.5-8.3 4.4-15.9 8.6-22.6 4.7-7.4 9.4-14.8 14.1-22.1 1-1.4-1.6-2.9-2.6-1.3zM601.2 488.2c-7.4 7.5-11.1 18-9.9 28.5.6 5.5 2.8 10.1 5.4 15 3.9 7.4 4.8 13 1.8 20.8-1.8 4.6-4.1 9.3-3.5 14.3.6 5.7 5 8.7 7.7 13.4 5.7 10.2-5.8 20.9-3.1 31.8.5 1.9 3.4 1.1 2.9-.8-2.5-9.8 6.9-18.5 4.5-28.4-1.2-4.8-5.1-7.8-7.5-11.9-3.4-5.8-.2-11.9 1.9-17.6 1.7-4.5 2.9-9 1.9-13.8-1.3-5.9-5.3-10.7-7.4-16.3-4.2-11.3-1-24.4 7.4-32.9 1.4-1.4-.7-3.5-2.1-2.1zM1250.4 510c-10 11.7-19.7 26.8-18.7 42.9.5 7.7 3.9 13.9 8.1 20.2 4.9 7.3 9.1 14.2 6.7 23.3-3.2 11.9-15 23.8-10.9 36.9 2.5 8 10.5 12.4 12.4 20.8 2.2 10-2.4 20.5-6.5 29.4-.8 1.7 1.8 3.3 2.6 1.5 3.4-7.4 6.7-15.1 7.3-23.3.6-7.8-2-14-6.8-20-5.7-6.9-8.3-12.8-5.3-21.5 2.3-6.7 6.4-12.7 8.9-19.3 2.4-6.2 3-12.6.4-18.9-2.7-6.6-7.7-11.7-10.9-18-9-18 3.1-38.2 14.8-51.8 1.3-1.5-.8-3.6-2.1-2.2zM1278.5 616.5c-5.2 4.9-8.5 11.3-9.4 18.4-1.1 8.5 2.1 14.4 5.5 21.8 4.2 9.1-4 17.3-1.8 26.5 1.2 5 3.9 8.8 3.8 14.1-.2 5.5-2.4 10.5-6.2 14.4-1.3 1.4.8 3.5 2.1 2.1 5.1-5.2 7.8-12.3 6.9-19.6-.5-4.2-2.8-7.8-3.7-11.9-1.3-5.5 1.7-10.5 2.8-15.7 1.9-8.8-4.1-14-6-22-2.3-9.5 1-19.5 8.1-26.1 1.5-1.2-.6-3.3-2.1-2zM1000.4 337.6c-5.7 8.8-12 19.2-8.7 30.1 1.6 5.3 6 7.5 8.4 12.1 2.3 4.6.1 10-1.5 14.4-2.3 6.3-5.5 14 .3 19.4 2.3 2.1 5.1 3.3 6.1 6.6.8 2.7.1 5.9-.4 8.5-1 4.8-2.4 9.6-1.8 14.5.2 1.9 3.2 1.9 3 0-.9-8.2 5.1-17.4 1.6-25.3-2-4.6-8.2-5.9-8.8-11.1-.5-3.9 1.6-8.2 2.9-11.8 2.5-6.9 4.3-13.8-1.1-19.8-5-5.5-7.6-10.8-6-18.4 1.3-6.5 5.1-12.3 8.7-17.8 1-1.6-1.6-3.1-2.7-1.4z" fill="#e8e8e8"/><path d="M589.3 232c-5.9 4.1-6.9 11.4-2.8 17.1 3.7 5-2 7.3-.9 12 .4 1.7 1.8 2.7 2.6 4.2 2 3.7-.3 7.6-2.2 10.9-1 1.7 1.6 3.2 2.6 1.5 1.8-3.1 3.8-6.7 3.5-10.4-.1-1.7-.8-2.8-1.5-4.3-.5-.9-1.1-1.2-1.5-2.3-.5-1.9.2-2.3 1.1-4.1 1.3-2.5 1.8-4.6.4-7.2-1.3-2.4-3.4-3.8-3.6-6.8-.2-3.2 1.3-6.3 3.9-8.1 1.5-1 0-3.6-1.6-2.5zM446.2 307c-1.9 2.1-3.1 4.4-3.3 7.2-.2 3.2 2.4 6.5 1 9.4-1 2.1-2.1 2.9-1.9 5.5.2 2.7 4.7 10.1.6 11.7-1.8.7-1 3.6.8 2.9 5-1.9 4-7.2 2.6-11.3-1.1-3.2-.2-4.8 1.2-7.8.3-.7.8-1.2.9-2 .2-1.6-.7-2.5-1.3-3.8-1.6-3.5-1.2-6.9 1.4-9.7 1.4-1.4-.8-3.6-2-2.1zM1211.4 338.1c-4-.3-6.9 2.7-7.5 6.6-.9 5.7 3.8 9.7 6.2 14.3 1.6 3.2 1 5.7 0 8.8-.5 1.6-1.1 1.1-1.2 2.9-.1 1.5.5 2.6 1.5 3.7 2.7 3.1 4.9 4.5 4.6 9.1-.3 4.1-2.2 8-4 11.5-.9 1.7 1.7 3.2 2.6 1.5 2.1-4 4.2-8.4 4.4-13 .3-4.5-1.5-6.5-3.9-9.9-.8-.5-1.1-1.3-1-2.4-.8-1.2-.6-2.2.4-3.1.2-.9.7-1.6.9-2.6.4-2.1 0-4.2-.8-6.3-.8-2.2-2.2-4-3.5-5.9-1.1-1.6-2.4-3.4-2.9-5.3-.8-2.9 0-7.3 4.3-7 1.8.3 1.8-2.7-.1-2.9z" fill="#5222d0"/></g><g><path d="M901.9 882c-19.7 3-36.3 3.7-47.8 3.7-6.3 91.7-5.4 138.2 2.8 139.5 6.9 1.1 19-29.9 36.2-93 23.7-5.9 47.5-11.8 71.2-17.7 2.4-23.2-3-32.2-8.4-36.3-10-7.5-24-.9-54 3.8z" fill="#161616" stroke="#161616" stroke-width="3" stroke-miterlimit="10"/><path d="M805.2 719.5c-16.6 15.1-10.9 56.1 13.8 99 5.8-.7 14.9-1.3 25.8-.4 4.5.4 18.6 1.8 54.6 14.9 7.5 2.8 17.9 6.7 30.3 12-9.7 2.6-19.4 5.2-29.2 7.8 1.1 11.7 3.1 25 6.7 39.2 6.6 26.3 16.4 47.8 25.4 63.9 22.5-6.6 40.9-13.1 54.2-17.9 31.9-11.7 48.8-20.1 65-31.4 17.3-12.1 26.4-22.3 29.2-35.1 1.6-7.4.7-13.8.4-16.1-2-12.4-8.9-20.8-16.1-28.8-15.8-17.7-23.7-26.5-36.6-36.3-29.5-22.3-56.4-34-86.3-46.7-23.1-9.8-38.5-16.3-60.9-21.7-35.8-8.3-62.7-14.8-76.3-2.4z" fill="#ec615b"/><path d="M874.3 721.4c30.1 8.8 59.4 20 87.8 33.5 24.9 11.8 49.9 24.9 71.5 42.2 10 8 19.3 16.9 27.4 26.9 8.8 10.9 20.2 25.6 20 40.3-.2 13.7-13.2 26.2-22.7 34.8-10.1 9.1-21.6 16.3-33.8 22.2-29.8 14.4-62.8 20.3-93 33.8-1.8.8-.2 3.4 1.5 2.6 29-13 60.6-18.9 89.5-32.2 12.2-5.6 23.9-12.5 34.3-21.2 9.7-8.1 20.7-18.8 25.4-30.8 5.1-13-1.8-26.4-8.7-37.2-7.5-11.8-16.6-22.5-26.9-32-20.4-18.9-44.7-32.9-69.4-45.3-32.7-16.5-66.9-30.1-102.1-40.4-1.9-.6-2.7 2.2-.8 2.8z" fill="#ec615b"/><path d="M980 829.9c-13.3 3.8-26.7 7.6-40 11.4-13.1 3.7-26.5 7-39.3 11.6-1.8.7-1 3.6.8 2.9 12.8-4.7 26.2-7.9 39.3-11.6 13.3-3.8 26.7-7.6 40-11.4 1.8-.5 1-3.4-.8-2.9z" fill="#ec615b"/><path d="M899.5 853.1c3.3 36.3 13.4 71.8 30.8 103.9.9 1.7 3.5.2 2.6-1.5-17.1-31.6-27.1-66.6-30.4-102.3-.1-2-3.1-2-3-.1zM930.1 845c-34.7-19.9-74.1-30.3-114.2-28.7-1.9.1-1.9 3.1 0 3 39.5-1.7 78.4 8.6 112.6 28.3 1.8.9 3.3-1.7 1.6-2.6z" fill="#ec615b"/><path d="M813.9 755.4c9.3 2.1 22.9 5.6 39 10.9 11.9 3.9 34.4 11.8 86.1 37.9 17.4 8.8 40.3 20.7 66.8 35.6-33.7 14.9-67.4 29.8-101.1 44.6-1.8-10.3-3.7-20.5-5.5-30.8 8.7-2.8 17.4-5.5 26.1-8.3-13.3-7.3-32.1-15.9-55.7-21.3-19.5-4.5-36.7-5.6-50.2-5.5-1.9-21.1-3.7-42.1-5.5-63.1z" opacity=".11" fill="#3d3d3d"/><path d="M819.3 818.1c15.9-2.8 41.7-5.4 72.3.8 26.4 5.3 46.6 15.2 59.7 22.9-16.5 9.4-32.9 18.7-49.4 28.1-1.1-5.5-2.1-11.1-3.2-16.6 8.8-2.8 17.6-5.5 26.5-8.3-11.7-6.3-26.6-13-44.6-18.2-24.1-6.9-45.4-8.7-61.3-8.7z" opacity=".11" fill="#3d3d3d"/><g><path d="M689.4 914.3c14.9 5.2 29.8 10.4 44.6 15.6 3.1 64.3 7.6 96.6 13.4 96.8 7.1.3 16.2-46.1 27.4-139.3-23.7-5.7-47.3-11.5-71-17.2-4.7 14.7-9.5 29.4-14.4 44.1z" fill="#161616" stroke="#161616" stroke-width="3" stroke-miterlimit="10"/><path d="M819.2 818.2c-.9-28.7-4.2-52.5-7.4-69.9-6.7-36.7-12.5-42.5-17.6-44.9-11.1-5.1-22.4 4.7-50.6 17.6-23.1 10.6-20.1 6.1-59.7 21-29 10.9-64 25.9-101.2 47.7-8 4.7-26.8 16-44.9 36.4-17 19.1-18.2 29.2-18.2 34.1 0 5 1.2 16.2 17.6 33 19.3 19.7 41.1 28.2 104 48.3 17.3 5.5 33.1 10.5 47.2 14.8 7.6-14.5 13.4-27.1 17.6-36.9 11.8-27.6 14.3-40.6 15.3-47.2 1.1-7.3 1.6-13.4 1.7-17.6-10.2-2.7-20.5-5.3-30.7-8 11.6-6.6 26-13.4 43.2-18.8 33.8-10.5 63.5-11.1 83.7-9.6z" fill="#ec615b"/><path d="M695.3 847.4c4.4 1 8.9 2 13.3 3s9.4 1.5 13.1 4.3c1.5 1.2 3-1.4 1.5-2.6-3.5-2.7-7.8-3.3-12-4.2-5-1.1-10.1-2.3-15.1-3.4-1.9-.4-2.7 2.5-.8 2.9z" fill="#ec615b"/><path d="M751.6 718.8c-43.8 11.5-86.4 27.1-127.4 46.4-21.6 10.2-42.5 22.6-61.4 37.2-21 16.2-58.6 49.7-38.4 79.1 9.3 13.5 23.4 23.5 37.4 31.6 11.4 6.7 23.5 12.3 35.8 17 7.2 2.7 14.7 4.7 22.1 7 22.5 6.8 45 13.9 67.4 21.1 1.8.6 2.6-2.3.8-2.9-18.5-6-37-11.9-55.6-17.5-9.7-3-19.6-5.5-29.2-8.9-23.6-8.1-47.9-20.3-66-37.5-5.9-5.6-12-12.2-14.2-20.1-2.8-9.8.7-19.6 5.6-28 7.9-13.6 19.6-24.9 31.7-34.8 19.4-15.8 41.3-28.9 63.9-39.7 41.2-19.7 84.3-35.4 128.5-46.9 1.7-.7.9-3.6-1-3.1z" fill="#ec615b"/><path d="M633 833.1c14.9 3.8 29.9 7.6 44.8 11.3 14.7 3.7 29.7 6.9 44.1 11.7 1.8.6 2.6-2.3.8-2.9-14.4-4.7-29.4-7.9-44.1-11.7-14.9-3.8-29.9-7.6-44.8-11.3-1.9-.4-2.7 2.5-.8 2.9z" fill="#ec615b"/><path d="M721 853.5c-3.7 36.2-15.2 71.3-34.1 102.3-1 1.7 1.6 3.2 2.6 1.5 19.2-31.6 30.8-67.2 34.5-103.9.2-1.9-2.8-1.8-3 .1zM691.4 847.9c39.1-20 82.6-29.9 126.5-28.3 1.9.1 1.9-2.9 0-3-44.4-1.7-88.5 8.4-128 28.7-1.7.9-.2 3.5 1.5 2.6z" fill="#ec615b"/><path d="M798.3 763.6c-43 20.9-71.3 35.6-84 41.7-33.4 15.8-66 30.3-97.7 43.7 24.2-2.7 47.8 8.5 60.1 28.7 13.9 22.8 11 53-7.5 73.8 6.4 2.3 12.8 4.6 19.1 6.8 5.4-8.6 10.8-18.4 15.7-29.4 13-28.9 18.3-55.7 20.5-76.5-9.1-3-18.2-5.9-27.3-8.9 8.2-3.6 17.1-7.1 26.6-10.2 36-11.8 69.1-14.6 95.5-14.2-.3-7.2-.7-14.5-1.2-22-1-14.3-2.5-28-4.2-41-3.6 1.7-9 4.4-15.6 7.5z" opacity=".13" fill="#3d3d3d"/><path d="M815.8 816.5c-.1-1.3-25.8-3.6-56.9.8-35.2 5-62.7 16.5-80.6 25.7 9.1 6.8 18.2 13.7 27.3 20.5-4.9 29.9-9.7 59.8-14.6 89.7 10.1-16.6 21.5-39.8 28.1-69.1 2.6-11.7 4-22.5 4.7-32.4-2.7-.8-5.5-1.6-8.3-2.4-6.5-1.8-12.8-3.4-19-4.7 4.9-2.2 11.8-5.2 20.2-8.3 54.3-20.2 99.1-18.2 99.1-19.8z" opacity=".15" fill="#3d3d3d"/></g><g><path d="M892.2 486.5c5.1-1.7 12.8 6.2 17.4 10.8 7.4 7.5 11.1 15.1 12.2 17.4 13.6 28.2 11.2 17 22.7 43.2 14.1 32.3 23.7 62.8 23.7 62.8 4.7 14.9 7.6 26 16.7 39.7 10.3 15.4 18.8 19.5 22.3 20.9 11.6 4.8 22.6 2.7 27.5 1.4 5.3-5.2 9.4-9.7 12.2-12.9 5.7-6.5 8.1-10 12.6-10.5 1-.1 5.6-.6 8 2.1 1.1 1.2 1.3 2.5 2.4 2.8 1.4.4 2.8-1.2 4.5-2.8.7-.7 5.3-5 10.1-7 2.5-1.1 7.3-2.5 8.7-.7 1.4 1.8-1.7 5.6-.3 7 1.4 1.4 4.8-1.8 8.4-.3 2 .9 3.7 3.1 3.8 5.2.2 2.6-2 3.2-2.4 6.6-.4 2.8.9 3.3.7 5.6-.4 3.5-3.6 4-8 9.1-2.5 2.9-1.8 3.1-6.3 9.8-1.7 2.5-3.9 5.8-5.6 7.7-6.6 7.4-17.8 8-23.7 8.4-11.4.6-20.4-2.8-25.5-5.2-3.4 2.4-8.6 5.4-15.3 7.7-17.3 5.7-32.5 1.7-38.7 0-24.7-6.9-39.2-25.6-48.8-38.4-14.3-19-19.5-35.5-28.9-65.5-2.9-9.1-11.6-38-15-76.7-1.4-17.6-3.7-45.4 4.6-48.2z" fill="#fff"/><path d="M895 490.1c8.8 2.9 14.9 10 20 17.5 5.3 7.7 10 15.8 14.5 24.1 9.1 17 16.7 34.7 23.8 52.6 7.2 18 13.8 36.2 20.5 54.3 5.4 14.4 11.9 29.7 24.4 39.3 11.6 8.9 28.1 12.6 41.1 4.5 1.6-1 .1-3.6-1.5-2.6-13.8 8.6-31.6 2.6-42.3-8.3-12.2-12.6-17.4-30.1-23.3-46.1-12.5-34.2-25.3-69-43.2-100.9-7.8-13.9-17-31.9-33.2-37.3-1.8-.6-2.6 2.3-.8 2.9z" fill="#161616"/><path d="M894 587c8.9 30.8 16.4 63 34.7 89.8 15.1 22.2 37.5 39.9 65 42.1 14.9 1.2 30-2.4 42-11.4 1.5-1.1 0-3.8-1.5-2.6-14 10.6-32.1 13.3-49.1 9.8-16.8-3.5-31.3-13.2-42.8-25.6-26.1-28.3-34.8-66.9-45.2-102.8-.7-1.9-3.6-1.1-3.1.7zM1039.6 682.8c4.2-5.9 8.1-12.7 13.2-17.8 3-3 7.9-6 12.2-3.6 3.7 2.1 4 6.9 1.8 10.1-1.1 1.6 1.5 3.1 2.6 1.5 4.7-6.7-.2-15.7-8.4-15.3-4.9.3-8.9 3.4-11.9 7.1-4.3 5.2-8 11-12 16.5-1.2 1.5 1.4 3 2.5 1.5z" fill="#161616"/><path d="M1053.5 669.7c-2.2 4.4.5 9.5 5.4 10.3 5.9.9 10.2-4.1 11.2-9.4.4-1.9-2.5-2.7-2.9-.8-.6 3.2-2.3 6.5-5.8 7.2-3.3.7-7-2.2-5.3-5.7.8-1.8-1.8-3.3-2.6-1.6zM1033.7 708.4c11.5 2.3 22.4 7.6 34.3 5.1 9.6-2 17.8-7.9 23.1-16 1.1-1.6-1.5-3.1-2.6-1.5-5.2 7.9-13.4 13.4-22.8 14.9-10.8 1.7-20.9-3.3-31.3-5.4-1.8-.3-2.6 2.6-.7 2.9z" fill="#161616"/><path d="M1062 677c-3.2 1.9-2.8 6.3-.1 8.6 2.3 1.9 5.4 1.6 8.2 1.6 4.8-.1 8.8.7 13 3.1 1.7.9 3.2-1.6 1.5-2.6-3.1-1.8-6.4-3-10-3.4-1.7-.2-3.4-.1-5.2-.1-1.1 0-2.2.1-3.2-.1-1.2-.3-5.1-3-2.7-4.4 1.6-1.1.1-3.7-1.5-2.7z" fill="#161616"/><path d="M1064 678.3c7.5-4.3 16.7-3.4 23.1 2.5 1.4 1.3 3.5-.8 2.1-2.1-7.4-6.8-18-8-26.7-3-1.7 1-.2 3.6 1.5 2.6zM1070.5 666.1c3.3-2.4 6.5-4.7 9.8-7.1 1.4-1 2.7-2 4.2-2.9 1-.6 2-1.2 3.1-1.6 4.7-1.6 5.8.7 3.2 6.9-1.8.6-1 3.5.8 2.9 5.4-1.9 7.3-9.2 1.7-12.3-3.1-1.8-6.8-.5-9.6 1.1-5.1 2.9-9.8 7-14.6 10.4-1.7 1.2-.2 3.8 1.4 2.6z" fill="#161616"/><path d="M1076.9 674.1c4-2.5 8-5.1 12-7.6 1.8-1.1 3.6-2.4 5.6-3.3 1.5-.8 3.1-1.1 4.8-1.1 3.5 0 4.8 2.1 3.9 6.2-1.2 1.5.9 3.6 2.1 2.1 3.8-4.8.4-10.7-5.4-11.2-3.8-.4-7.2 1.5-10.3 3.4-4.8 2.9-9.5 6-14.2 9-1.7.9-.2 3.5 1.5 2.5z" fill="#161616"/><path d="M1088.6 678.8c2.7-1.5 5.4-2.9 8.1-4.2.9-.5 3.9-2.3 4.8-2.1 2.5.5.8 3 .2 4-1 1.6 1.6 3.2 2.6 1.5 1.6-2.6 3-7.7-1.3-8.5-2.3-.5-4.8 1.1-6.8 2.1-3.1 1.5-6.2 3-9.2 4.7-1.6.9 0 3.5 1.6 2.5z" fill="#161616"/><path d="M1084.4 678.1c7.2 4 8.6 12.9 2.9 18.9-1.3 1.4.8 3.5 2.1 2.1 7-7.3 5.4-18.7-3.5-23.6-1.6-.9-3.2 1.7-1.5 2.6z" fill="#161616"/><path d="M1102.8 677c-3.2 4.1-6.9 7.7-11 10.7-1.5 1.1-.1 3.7 1.5 2.6 4.4-3.2 8.3-6.9 11.7-11.2 1.1-1.5-1-3.6-2.2-2.1zM1054.2 688.7c6.3.5 12.2 2.5 17.5 6 1.6 1.1 3.1-1.5 1.5-2.6-5.8-3.7-12.1-5.8-19-6.4-1.9-.1-1.9 2.9 0 3z" fill="#161616"/><path d="M882.1 510.7c1.8 12.8 4.7 30.8 9 52.4 2.8 14 4.8 24.3 8.5 38 5.6 20.8 10.2 38.3 21 58.6 7.1 13.3 11.9 22.4 21.9 32.2 7.1 6.9 25.7 25.1 53.7 25.5 17.1.2 30.6-6.3 38.5-11.2 4.7 2.6 12.8 6.1 23.3 6.3 4.9.1 14.1.2 22.8-5.8 3-2.1 11-7.5 11.6-16.6.1-1.4.5-9-4.9-13-6-4.4-15.8-1.8-16.6 1.3-.7 2.9 6.5 5.3 6.3 9.4-.3 5.2-12.1 8.4-14.3 9-70.4 19-108.3-12.5-108.3-12.5-11.5-9.6-17.6-20-31.8-55.5-11.7-29.2-26.4-69.1-40.7-118.1z" opacity=".09" fill="#3d3d3d"/></g><g><path d="M596.4 702.5c4.6 3.4 16.8 11.3 33.5 11.2 15.6-.1 26.6-7.2 32.8-11.2 10.3-6.6 16.2-13.9 21.6-20.9 16.8-21.3 23.5-43.5 28.3-59.6 4.3-14.4 2.6-13.6 6.7-26.1 7.7-23.4 14.3-28.7 20.9-45.4 10.9-27.6 11.6-60.5 3-64.1-4-1.6-9.9 3.1-21.6 12.7-3.5 2.9-9.7 8-16.2 15.9-5.2 6.4-14.3 19-24.4 49.1-8.2 24.6-6.4 28.6-16.1 55.8-6 16.9-9.8 23.8-14.4 30.1-5.2 7-13.8 18.4-29.4 24.4-11.9 4.6-22.6 4-28.5 3.2-.8-4-3.5-15-12.8-20.4-2.3-1.4-7.9-4.6-11.9-2.2-2.3 1.4-3.1 4-3.4 5.4-4.4-6.2-9.2-8.9-11.9-10.1-2.6-1.1-7.9-3.5-10.1-1.3-2 2-.2 6.6 0 7.2-2.8-1.5-6-1.3-8.3.4-1.7 1.3-3.6 3.9-2.9 6.7.5 1.9 2 3.1 2.5 3.4-.6 1.7-1.1 4.3-.2 7 .5 1.4 1.1 2.3 4.7 6.3 4.6 5.2 4.7 5 5.6 6.3 2.5 3.7 2 5.7 3.6 9 2.8 6.1 8.8 9 10.8 9.9 6.4 3.1 12.3 2.3 22 .9 6.2-.7 11.6-2.1 16.1-3.6z" fill="#fff"/><path d="M742.9 483.7c-15.3 7.7-29.1 18.3-39.8 31.8-10.7 13.5-18.1 29.1-23.7 45.3-5.6 16.4-9.6 33.3-13.9 50-4.1 16.2-11 33-21.8 45.9-12.6 15.1-32.2 20.9-51.3 18.7-1.9-.2-1.9 2.8 0 3 15.1 1.7 30.8-1.2 43.3-10.1 13.2-9.4 21.5-25.1 27.4-39.9 6.3-15.7 9.1-32.8 13.7-49 4.9-17.5 10.9-34.9 20.5-50.4 11.4-18.5 27.7-32.9 47.1-42.6 1.8-1 .2-3.6-1.5-2.7z" fill="#161616"/><path d="M721.4 581.9c-9.1 34.6-16.5 71.9-39.3 100.6-9.9 12.4-22.8 23-38.4 27.2-16.2 4.4-33.7 1.9-46.8-8.9-1.5-1.2-3.6.9-2.1 2.1 19.9 16.4 48.3 14.7 69.1.7 22.8-15.3 36.3-41.1 45.1-66.4 6.2-17.8 10.5-36.3 15.3-54.5.5-1.9-2.4-2.7-2.9-.8zM594 676.9c-3.5-5.4-6.8-11.1-10.7-16.2-2.7-3.6-6.3-7-11.1-7.4-8.3-.5-11.9 9-7.9 15.3 1 1.6 3.6.1 2.6-1.5-1.9-3-1.8-8 1.6-10.1 4.8-3 9.7 1.9 12.3 5.3 3.9 5.1 7.1 10.7 10.6 16.1 1 1.6 3.6.1 2.6-1.5z" fill="#161616"/><path d="M576.4 666.9c1.6 3.4-1.7 6.8-5.2 5.6-2.9-1-4.2-4.3-4.7-7.1-.3-1.9-3.2-1.1-2.9.8.9 5 4.5 10.2 10.2 9.5 4.9-.6 7.1-6.1 5.2-10.3-.8-1.8-3.4-.3-2.6 1.5zM596.1 701.2c-9.2 2-18.2 6.9-27.8 5.4-9.1-1.4-16.7-7.2-21.3-14.9-1-1.7-3.6-.1-2.6 1.5 4.7 7.9 12.1 13.9 21.2 16 11 2.5 20.8-2.8 31.3-5.1 1.9-.4 1.1-3.3-.8-2.9z" fill="#161616"/><path d="M569.7 675.2c.7.5.8 1.5.5 2.2-.6 2-2.8 2.2-4.6 2.4-1.9.1-3.8-.2-5.8 0-3.4.4-6.5 1.6-9.4 3.4-1.6 1-.1 3.6 1.5 2.6 3.7-2.3 7.4-3.2 11.8-3.1 2.6.1 5.3.3 7.4-1.5 2.7-2.2 3-6.7 0-8.6-1.5-1-3 1.6-1.4 2.6z" fill="#161616"/><path d="M570.8 671.4c-7.9-5.1-17.9-3.7-24.5 3-1.4 1.4.8 3.5 2.1 2.1 5.7-5.7 14-6.9 20.9-2.5 1.6 1 3.1-1.6 1.5-2.6zM565.2 659.4c-4.1-3.3-8.1-6.8-12.4-9.8-2.6-1.8-5.9-3.6-9.1-2.4-6.3 2.3-5 10.7.5 12.8 1.8.7 2.6-2.2.8-2.9-3.7-4.4-3.4-6.4.9-6 1.6-.8 3-.7 4.2.3 1.7.8 3.3 2.5 4.8 3.6 2.7 2.2 5.5 4.4 8.2 6.6 1.4 1.1 3.6-1 2.1-2.2z" fill="#161616"/><path d="M559 667.2c-4.3-3-8.6-6.1-12.9-9-2.8-1.9-5.9-3.7-9.3-3.4-5.4.5-8.7 6.4-5.4 11 1.1 1.5 3.7 0 2.6-1.5-2.2-4-.4-6.1 5.2-6.3 1.3.4 2.5.9 3.6 1.6 1.4.8 2.7 1.8 4 2.7l10.8 7.5c1.5 1.1 3-1.5 1.4-2.6z" fill="#161616"/><path d="M548.3 671.9c-2.7-1.7-5.5-3.3-8.4-4.7-1.9-1-4.5-2.8-6.8-2-3.6 1.3-2.2 6.1-.8 8.5.9 1.7 3.5.2 2.6-1.5-.3-.6-1.4-2.4-1.1-3.1.4-1 2-.4 2.7-.2.8.2 1.6.8 2.4 1.2 2.7 1.4 5.3 2.9 7.9 4.5 1.6.9 3.2-1.7 1.5-2.7z" fill="#161616"/><path d="M549.3 671.2c-8.4 5.2-9.5 16.3-3.2 23.6 1.3 1.5 3.4-.7 2.1-2.1-5-5.8-4.1-14.8 2.6-18.9 1.6-1 .1-3.6-1.5-2.6z" fill="#161616"/><path d="M531.7 674.5c3 4.2 6.5 8 10.6 11.3 1.5 1.2 3.6-.9 2.1-2.1-3.9-3.1-7.2-6.6-10.1-10.7-1.2-1.6-3.8-.1-2.6 1.5zM578.2 681.4c-6.3.6-12.2 2.7-17.4 6.4-1.6 1.1-.1 3.7 1.5 2.6 4.8-3.4 10-5.5 15.9-6 2-.2 2-3.2 0-3z" fill="#161616"/><path d="M737.9 523.5c-12.5 30.4-22.1 54.9-28.2 70.9-14.3 37.2-18.3 50.2-31.8 67.3-11.5 14.5-25.1 32.6-48.1 36.1-14.4 2.2-26.6-2.2-33.7-5.4-1.8 1.4-15.5 11.2-28.8 6-7.4-2.9-14.7-10.4-13.2-15 1.5-4.7 11.5-4.4 11.4-6.6-.1-1.8-7-4.3-13.2-2.4-.9.3-7 2.3-9 7.8-2.6 7.3 4.2 14.8 6 16.8 9.2 10.2 23.3 9.7 25.8 9.6 10.1-.3 17.5-4.8 21-7.2 4.5 3.8 12.4 9.4 23.4 11.4 20.3 3.8 36.7-7.6 45.7-13.2 25.7-16.3 35.4-42.3 43.3-61.9 3.8-9.5 5.5-15.7 14.8-53.6 5.8-24 10.8-44.6 14.6-60.6z" opacity=".17" fill="#3d3d3d"/><path d="M536 656.9c3.4-.6 7.8 8.4 10.8 15.6-1.5 7.7-3.4 9.4-4.8 9.6-4 .7-10.8-9.1-9.6-18 .1-.7.9-6.7 3.6-7.2z" opacity=".17" fill="#3d3d3d"/></g><g><path d="M741.8 484.4c-18.9 21.7-19.3 48.5-19.4 95.5-.1 56.9 10.1 104.8 21 140.5 16.4 4.9 40.2 10.1 69.1 10.1 28.5 0 52-5.2 68.3-10.1 3.7-15.3 8.6-37.8 12.4-65.2 13.1-92.9 21.7-154-12.4-184-34.4-30.2-106.7-23.9-139 13.2z" fill="#fff" stroke="#161616" stroke-width="3" stroke-miterlimit="10"/><path d="M835.5 453.9c4.3 8.8 10 22.4 13.6 39.7 3.3 15.8 8.4 50.9-20.5 138.3-8.2 24.9-20.6 58.3-39.1 96.7 7.9.8 16.4 1.3 25.4 1.2 25.7-.1 48-4.3 65.7-9.3 7.6-37.2 13-68.9 16.7-93 4.6-29.6 7.8-54.6 6.8-86.2-1.2-40-8-51.6-11.8-57-16.3-23.8-45.7-29-56.8-30.4z" opacity=".1" fill="#3d3d3d"/><path d="M902.5 513.4c-4.5 13.6-11 34.6-17.4 60.8-8 32.7-9.2 46.4-13.6 63.9-5.9 22.8-18.2 55-47.1 91.8 9.5.3 22.2-.4 36.6-4.3 7.6-2.1 14.3-4.8 19.8-7.4 5.1-27.8 9.6-53.9 13.6-78.1 7.1-42.4 9.6-59.9 9.9-83.1.3-18.3-.8-33.3-1.8-43.6z" opacity=".13" fill="#3d3d3d"/></g><g><path d="M791.1 430.3c-3.3 4.5-1.7 8.6-2.4 25.4-.5 11-1.6 19.8-2.4 25.4 3.4 2.4 13 8.5 26.6 8.5 16 0 26.7-8.4 29.6-10.9-1.3-3.6-2.9-9-4.2-15.7-3.7-19.1.1-25-4.2-31.5-7.7-11.5-35.1-12-43-1.2z" fill="#fff" stroke="#161616" stroke-width="3" stroke-miterlimit="10"/><path d="M750.6 376.4c-.4 14.2 2.8 24.8 5.4 33.3 3.9 12.5 8.2 26.5 20.6 39.3 10.8 11.2 23.4 17 33.3 20 7.6-3.1 20.1-9.4 31.5-21.8 12.4-13.5 17.1-27.2 20.6-37.5 3-8.9 8.1-25 6-46-1.5-14.7-3.1-30.6-15.7-42.9-18.6-18.1-45.8-13.4-49.6-12.7-26.4 4.9-39.7 25.8-42.9 31.5-8.6 14.6-9 28.9-9.2 36.8z" fill="#fff" stroke="#161616" stroke-width="3" stroke-miterlimit="10"/><path d="M803.1 387.3c-.6 12.8.6 25.5 3.7 37.9.3 1 1.8 1.5 2.5.7 2.3-2.7 3.8-5.6 4.5-9.1.4-1.9-2.5-2.7-2.9-.8-.6 3.1-1.7 5.4-3.7 7.8.8.2 1.7.4 2.5.7-3-12.2-4.1-24.6-3.6-37.1 0-2-3-2-3-.1zM824.1 391.7c7.1 7.5 21.4 9.6 25.2-2.5.6-1.8-2.3-2.6-2.9-.8-3.1 9.9-14.7 6.8-20.1 1.1-1.5-1.3-3.6.8-2.2 2.2zM774 411.1c0-.3-.1.1-.2.1-.1.1-.3.1-.5.1-.3-.6-.7-1.2-1-1.8.1-.1.1-.2.2-.3-.8.2-1.3 1-1 1.8.2.8 1.1 1.3 1.8 1 .9-.3 1.5-.9 1.9-1.8.3-.7-.3-1.7-1-1.8-1.3-.3-2.8.4-3.1 1.8-.1.8.2 1.7 1 1.8.8.4 1.8 0 1.9-.9zM788.8 407.2c-.2 1.5-.6 1.6-1.2.3-1.1-.9-.9-1.3.6-1.1-.7-.4-1.6-.2-2.1.5-.4.7-.2 1.7.5 2.1 1.7 1 3.8-1.2 2.5-2.8-1.3-1.6-3.9-.2-3.4 1.7.2.8 1.1 1.3 1.8 1 1.1 0 1.5-.9 1.3-1.7zM783.4 417.6c0 .2-.1.4-.3.6.2-.2-.2.1-.1 0s-.3.1 0 0h-.2-.2c-.1 0-.1-.1-.2-.1.1.1.1 0-.1-.1-.4-.4-.4-1-.1-1.4.4-.4 1.1-.2 1.3.2-.4-.7-1.3-.9-2.1-.5-.7.4-1 1.4-.5 2.1.6 1 1.9 1.3 2.9.7 1-.5 1.4-1.8.8-2.8-1.2-1.9-4.4-.8-4.4 1.3 0 .8.7 1.5 1.5 1.5 1 0 1.7-.6 1.7-1.5zM834.3 404.9c.7.1 1.1.5 1.2 1 .1.6-.3 1-1.2 1.3-.3-.1-.5-.1-.8-.2-.5-.3-.6-.7-.3-1.2.5-.8 2-.5 1.7.6.2-.8-.2-1.7-1-1.8-.8-.2-1.6.2-1.8 1-.4 1.4.8 2.9 2.3 2.7 1.3-.2 2.1-1.5 1.7-2.8-.2-.7-.9-1.3-1.7-1.3-.6 0-1.2.4-1.5.9-.6 1.1.2 2.9 1.6 2.8.8-.1 1.5-.6 1.5-1.5-.2-.7-.8-1.6-1.7-1.5zM845.6 406c.1 0 .1-.1 0 0l-.5.5c-.6-.2-1.1-.4-1.7-.7v-.8c0-.1.1-.1.1-.2l.5-.5c.6.2 1.1.4 1.7.7V405.7c.2-.8-.2-1.7-1-1.8-.8-.2-1.6.2-1.8 1-.5 2 2.5 3.2 3.4 1.2.4-.8 0-1.8-.8-2.2-.9-.5-1.9-.2-2.4.6-.5.7-.1 1.7.5 2.1.7.4 1.6 0 2-.6zM840.1 415.9c-.1-.3 0 0-.1.1 0 .1-.3.3 0 .1l-2.4-.3c-.6-.9.5-1.7 1.3-1.3-.7-.4-1.6-.2-2.1.5-.4.7-.2 1.7.5 2.1.8.4 1.8.3 2.4-.4.6-.6.8-1.7.3-2.5s-1.7-1-2.4-.3-1 1.8-.7 2.7c.3.8 1 1.3 1.8 1 1.1 0 1.7-.9 1.4-1.7zM796.5 433.5c7.1 7.4 18.4 7.2 25.1-.7 1.2-1.5-.9-3.6-2.1-2.1-5.6 6.6-14.8 7-20.9.7-1.3-1.4-3.4.7-2.1 2.1zM778.1 372.9c3-3.3 7.2-4.7 11.6-3.8 1.9.4 2.7-2.5.8-2.9-5.4-1.1-10.8.5-14.5 4.6-1.3 1.4.8 3.5 2.1 2.1zM825.1 366.8c4.6-.5 8.8.6 12.5 3.3 1.6 1.1 3.1-1.5 1.5-2.6-4.1-3-9-4.3-14-3.7-1.9.2-1.9 3.2 0 3zM772.7 392.6c7.1 7.5 21.4 9.6 25.2-2.5.6-1.8-2.3-2.6-2.9-.8-3.1 9.9-14.7 6.8-20.1 1.1-1.4-1.4-3.6.8-2.2 2.2z" fill="#161616"/><path d="M805.7 329.8c6.5 7.8 14.3 16.2 23.7 24.7 12.8 11.6 25.3 20.6 36.2 27.4-.6 9-2.5 22.8-9.3 38.3-6.7 15.4-15.6 26.1-21.7 32.6-.6 4.8-.8 13 3.1 21.2 9.1 19.1 35.3 27.7 55.4 21.2 2.4-.8 19.3-6.5 24.8-21.7 1.5-4.2 2.3-9.3 0-22.8-3.3-19.5-9.1-33.8-10.8-38.2-4.8-12.2-11-29.8-16.6-52.8-1.8-8-9.2-36.7-35.2-53.3-6.8-4.4-21.4-13.7-39.8-10.9-8 1.2-14.2 4.3-18.1 6.7-8.4.7-23.4 3.1-37.8 13.5-32.6 23.4-31.7 65.6-31.6 69.9-1 5.3-2.7 13.3-5.7 22.8-7.4 23.2-13.6 26.1-15 40.4-.4 3.6-2.2 21.8 9.8 36.7 2.5 3.1 10.2 12.4 23.3 15 17.4 3.5 36.1-6.3 43.8-21.7 4.3-8.6 4.2-16.9 3.8-21.3-2.9-2.6-29.6-26.8-26.4-64.5 3.6-42.9 42.3-62.3 44.1-63.2z" fill="#5222d0"/><path d="M842.7 366.1c1.8 6.8 3.8 17.1 2.7 29.5-1.4 15.8-7 26.9-12.8 38.3-4.6 9-11.8 21.3-23.2 34.2 1.8-.3 3.9-.9 6-1.7 4.9-1.8 8.6-4.3 11.1-6.4-.8 9.4-1.6 18.8-2.3 28.2 5.7-2.5 11.4-4.9 17.1-7.4-1.2-10-2.5-19.9-3.7-29.9 2.4-3 5.8-7.4 9.4-13.1 5-7.9 12.1-19.3 15.8-35.2 1.2-5.1 2.4-12.6 2.3-21.8-7.4-4.8-14.9-9.8-22.4-14.7z" opacity=".11" fill="#3d3d3d"/><path d="M865.2 382.6c-.8-.2-3 10.1-9.7 25.5 0 0-5 11.4-10.7 21.1-5.3 9-15.8 24.1-35.6 39.9 2.2 1 4.5 2 6.7 3 6.5-.7 13-1.3 19.5-2-.3-5.5-.7-11-1-16.4 7.8-8 18.5-21.1 25.2-39.9 5.4-15.7 6.6-31 5.6-31.2z" opacity=".16" fill="#3d3d3d"/><path d="M715.5 426.9c-.2 3.3 0 9 2.7 15.1 3.9 8.7 13 18.2 22.8 18.1 11.9-.1 25.1-14.5 24.5-34.9 1.9 4.8 4.8 10.6 9.1 16.8 4.9 7.1 10.2 12.4 14.4 16.1.1 3.3-.2 8.4-2 14.1-1 3.2-3.5 9.7-9.1 15.8-2.4 2.6-10.2 11-22.8 13.1-18.3 3-32.1-9.7-34.6-12.1-16.4-15.7-13.6-37.9-13.1-41.3 1.4-9.7 5.4-16.8 8.1-20.8z" opacity=".29" fill="#3d3d3d"/><path d="M865.9 382.2c.8 4.9 1.9 12.7 2.7 22.5 1.7 21 0 26.6 3.4 37.3.5 1.7 8.2 25.3 19.5 25.5 8.8.2 18.6-13.6 22.5-33.9 3.1 10.1 4.4 18.7 5 24.8 1 9.9.1 13.2-.3 14.8-2.8 9.1-10.2 14.1-14.1 16.8-13.8 9.4-28.7 8-30.9 7.7-3.5-.4-19.7-2.5-30.5-16.1-1.7-2.1-7.1-9.2-8.7-19.8-.5-3.5-.5-6.6-.3-8.7 6.1-6 14.2-15.5 20.8-28.9 8.2-17 10.3-32.5 10.9-42z" opacity=".12" fill="#3d3d3d"/></g></g></svg>