<svg xmlns="http://www.w3.org/2000/svg" width="1600" height="1200"><path d="M1098.7 701.7c-.1 16.2-.3 32.5-.4 48.7 0 4-.1 8-.1 11.9 0 2.7-.6 6.1.5 8.7 1.7 4.4 7.4 3.2 9.5 6.9.2-.7.4-1.4.5-2.1-7.3 3.6-9.2 11.7-9.8 19.2-.5 7.2-.8 18.8 8.6 20.2-.1-.9-.2-1.8-.4-2.7-14.2 6.5-8.5 31.9-2.5 42.1 4.4 7.5 10.9 13.6 17.6 19 3.8 3.1 7.6 6 11.5 9 2.3 1.8 4.6 3.5 6.8 5.3 1.2.9 6.3 3.7 6.5 5.4.4-.5.7-1 1.1-1.4h.2c.2.7.4 1.4.5 2.1.1-.1.1-.2.2-.3.8-1.7-1.7-3.2-2.6-1.5-.1.1-.1.2-.2.3-.4.8-.2 1.5.5 2.1.7.6 1.2.6 2.1.3.6-.2 1.2-.8 1.1-1.4-.4-3.1-3.5-4.5-5.9-6.3-3.5-2.8-7.1-5.5-10.6-8.3-6.6-5.1-13.3-10.2-19-16.2-6.4-6.7-10.8-14.5-12.1-23.8-1.1-7.6-2.1-19.8 6.3-23.7 1.1-.5.9-2.6-.4-2.7-8-1.2-6.9-12.6-6.3-18.7.6-6 2.3-12.3 8.2-15.2.7-.4.9-1.4.5-2.1-2.1-3.6-7.2-2.9-9.1-6.1-1.5-2.4-.5-8-.4-10.9 0-4 .1-8 .1-11.9.1-15.2.2-30.5.4-45.7.1-2.1-2.9-2.2-2.9-.2z" fill="#e8e8e8"/><path d="M1100.3 702.5c14 .7 23.8 11.4 32.2 21.4 4 4.8 8.2 9.3 12.3 13.8 4.2 4.5 9.7 13.6 2.1 18-1.3.8-.7 2.8.8 2.8 11.6.3 16.7 14.4 20.3 23.3 4.3 10.8 7.7 21.9 10.2 33.2 5.1 23.2 6.1 47.1 3.2 70.6-.2 1.9 2.8 1.9 3 0 3.1-26.2 1.5-52.8-5-78.3-3-12-7-24.1-12.4-35.3-3.8-8-9.7-16.3-19.3-16.5.3.9.5 1.9.8 2.8 14.6-8.4-3.5-24.4-9.4-31.3-10.5-12.2-21.1-26.7-38.7-27.6-2 0-2 3-.1 3.1z" fill="#e8e8e8"/><path d="M1150.5 738.5c7-24.8 16.8-48.7 29.4-71.2-.7.2-1.4.4-2.1.5 2.7 1.6 5.5 3.2 8.2 4.8 1.4.8 2.7-.8 2.1-2.1-7.2-14.4 14.4-23.6 21.7-32.2-.6.1-1.2.2-1.8.2 1.4.8 2.9 1.6 4.3 2.4.7.4 1.6.2 2.1-.5 8-13.6 22.1-21.2 35.7-28.2-.7-.6-1.5-1.1-2.2-1.7-4.3 14.1 2.5 29.5 3.8 43.6.7 7.6.8 15.3.2 23-.3 3.8 0 9.5-1.5 12.9 0 2.5-1.4 3.9-4.3 4.4-.9.1-1.7.2-2.6.3-2 .2-4.1.4-6.1.6-.8.1-1.6.6-1.5 1.5.1 2 .7 2.6 2.2 3.9 1.9 1.6 3.4 1.8 4.3 4.6.5 1.5.5 3.2.5 4.7-.1 8.1-1.3 16.4-2.7 24.4-1.4 7.8-3.4 15.5-5.8 23-2.1 6.3-4.9 15.7-12.7 16.7-1 .1-2 1.2-1.3 2.3 5.8 8.9-2.8 19.7-7 27.4-4.6 8.2-8.8 16.6-12.7 25.1-7.8 16.9-14.2 34.4-19.4 52.3-.5 1.9 2.4 2.7 2.9.8 5.9-20.6 13.6-40.6 23-59.8 4.4-9.1 9.7-17.7 14.3-26.7 3.3-6.5 5.9-14.1 1.6-20.7-.4.8-.9 1.5-1.3 2.3 5.9-.7 9.7-4.9 12.3-10 3.9-7.8 6-16.8 7.9-25.3 2.1-9.4 3.5-19 4-28.6.2-3.2.5-6.8-.9-9.8-.8-2-5.9-5.1-6-6.5l-1.5 1.5c5.6-.6 13.6.8 15.5-5.6 2.5-8 2.4-17.9 2.3-26.1 0-8.8-.9-17.5-2.5-26.1-1.8-9.7-5-19.4-2-29.2.4-1.3-1.1-2.3-2.2-1.7-14.1 7.3-28.6 15.2-36.8 29.3.7-.2 1.4-.4 2.1-.5-1.4-.8-2.9-1.6-4.3-2.4-.5-.3-1.4-.3-1.8.2-8.4 9.9-30.5 19.3-22.2 35.8l2.1-2.1c-2.7-1.6-5.5-3.2-8.2-4.8-.7-.4-1.7-.2-2.1.5-12.6 22.8-22.6 46.9-29.7 71.9-.8 2 2.1 2.8 2.7.9zM1079.8 636.3c-16.8 1.2-25.7-18.5-22.9-32.7 2.7-13.9 16.3-23.7 30.2-23.3 18.3.4 27.7 18.3 24.4 35-2.9 14.9-17.9 25.9-32.9 20-1.8-.7-2.6 2.2-.8 2.9 12 4.7 26-.8 32.6-11.7 7-11.6 6.2-28.2-1.9-39-8.2-11-23.9-12.5-35.8-7.2-11.9 5.2-19.7 16.9-19.4 29.9.3 14.2 10.8 30.2 26.4 29.1 2-.1 2.1-3.1.1-3zM1233.3 416.6c-5.8 10.8-12.5 21-20.1 30.6-1.2 1.5.9 3.6 2.1 2.1 7.8-9.8 14.7-20.2 20.6-31.2.9-1.7-1.7-3.2-2.6-1.5z" fill="#e8e8e8"/><path d="M1233.2 419c3.6 9.5 7.4 19 11.3 28.4.7 1.8 3.6 1 2.9-.8-3.9-9.4-7.7-18.9-11.3-28.4-.7-1.8-3.6-1-2.9.8z" fill="#e8e8e8"/><path d="M1232.5 420.4c-.7 37.2-5.5 74.2-14.4 110.3-.5 1.9 2.4 2.7 2.9.8 9-36.4 13.8-73.6 14.5-111.1.1-2-2.9-2-3 0zM1249.8 481.5c2.6 21.4 2 43-1.9 64.2-.3 1.9 2.5 2.7 2.9.8 3.9-21.5 4.6-43.3 2-65-.3-1.9-3.3-1.9-3 0z" fill="#e8e8e8"/><path d="M1238.3 523.1c3.5 8 9.6 15.3 10 24.3.1 1.5 2 2.1 2.8.8 3.5-6.1 7.1-12.2 10.6-18.3 1-1.7-1.6-3.2-2.6-1.5-3.5 6.1-7.1 12.2-10.6 18.3.9.3 1.9.5 2.8.8-.4-9.7-6.7-17.2-10.4-25.8-.8-1.9-3.4-.4-2.6 1.4zM556 1029.4c60.3-5.6 120.7-12.9 181.2-15.4 61-2.5 122.3-.9 183.3.7 35 .9 70 2.6 104.8 5.9 1.9.2 1.9-2.8 0-3-61.2-5.8-122.6-6.5-184-7.2-30.8-.4-61.6-.7-92.3.3-29.9.9-59.7 3.4-89.5 6.1l-103.5 9.6c-1.9.1-1.9 3.1 0 3zM869.8 985.2c25.1 4.7 49.9 4.5 75.2 2.2 26-2.4 51.9-3.9 78-5.1 52.4-2.3 104.8-4.4 157.1-6.6 29.9-1.3 59.8-2.5 89.7-3.8 1.9-.1 1.9-3.1 0-3-52.5 2.2-104.9 4.4-157.4 6.6-51.6 2.2-103.5 3.3-155 7.7-14 1.2-28 2.8-42 3-15 .2-30-1.2-44.8-4-1.9-.2-2.7 2.7-.8 3zM189.4 964c46.6 1.3 93.2 1.1 139.8-.6 1.9-.1 1.9-3.1 0-3-46.6 1.7-93.2 1.9-139.8.6-2-.1-2 2.9 0 3zM240.3 1004.2c17-3.6 35-1.3 52.2-.5 17.3.9 34.5 1.7 51.8 2.6 35.2 1.8 70.3 3.6 105.5 5.3 1.9.1 1.9-2.9 0-3-35.8-1.8-71.7-3.6-107.5-5.4l-53.7-2.7c-16.3-.8-32.9-2.7-49 .8-1.9.4-1.1 3.3.7 2.9zM509.9 928c61.8 4.2 122.6-11.8 184.3-11.6 1.9 0 1.9-3 0-3-61.7-.2-122.5 15.7-184.3 11.6-1.9-.2-1.9 2.9 0 3zM463.6 617.2c.5-1.7 1-3.4 1.8-5 .5-.7.9-1.3 1.4-2 2.1-.2 4.3-.5 6.4-.7.6.4 1.1 1.6 1.5 2.2 1.5 2.1 3.1 3.9 5.4 5.3 4.4 2.6 9.7 3.2 14.4 1.4 12.3-4.5 16.9-20.8 31.9-19.2 4 .4 7.8 2 10.7 4.8 2.2 2.1 3.9 4.7 6.2 6.7 4.1 3.4 9.2 3.9 14.1 2.1 6-2.1 10.6-6.6 15.1-10.9 6.1-5.7 15-12.6 23.1-6.5 5.3 3.9 8.4 9.9 15 12 6.2 2 12.8.8 18-3.1 1.5-1.1 0-3.8-1.5-2.6-7.2 5.4-16.2 4.5-22.5-1.8-4.2-4.1-7.8-9.2-14-9.9-14.6-1.8-22.2 16-34.6 20.1-9.4 3.1-12.5-5.3-18.7-9.9-4.6-3.4-10.4-4.8-16.1-3.9-6 .9-10.6 4.5-14.8 8.6-4.9 4.9-10.1 11.6-17.7 11.6-5.1 0-9-2.8-11.8-6.8-1.6-2.2-2.9-4-5.8-4.3-6.3-.6-9 6-10.5 10.9-.5 1.9 2.4 2.7 3 .9zM617.8 565.5c3.6-10.5 16.2-1.6 21 2.3 4.2 3.4 9.1 6.9 14.8 6.7 9.4-.4 14.4-10 22.1-14 10.7-5.5 17.2 8.8 27.6 7.4 4.6-.6 7-4.3 9.9-7.5 3.1-3.4 6.3-3.4 10.7-2.4 4.1 1 8.3 2 12.4 3 1.9.5 2.7-2.4.8-2.9-4.1-1-8.3-2-12.4-3-2.8-.7-5.6-1.5-8.4-.7-5.5 1.7-7.1 9-12.6 10.3-5.9 1.4-11.7-5.2-16.8-7.3-4.3-1.8-8.5-1.8-12.6.4-4.4 2.3-7.7 6.2-11.6 9.3-2.6 2.1-5.5 4-8.9 4.2-5.2.3-9.5-3.3-13.3-6.3-4.6-3.6-9.5-7.9-15.8-7.4-4.5.3-8.2 2.7-9.7 7-.7 1.9 2.2 2.7 2.8.9zM1069.9 273.7c-.9 18.7-1.5 37.5-1.7 56.3 0 1.9 3 1.9 3 0 .2-18.8.8-37.5 1.7-56.3.1-1.9-2.9-1.9-3 0z" fill="#e8e8e8"/><path d="M1071.9 275.1c23.1-3.2 46.6-6.3 69.6-.9 1.9.4 2.7-2.4.8-2.9-23.5-5.6-47.6-2.4-71.2.9-1.9.2-1.1 3.1.8 2.9z" fill="#e8e8e8"/><path d="M1139.6 275.2c.5 38-.2 76.1-2.2 114.1-.1 1.9 2.9 1.9 3 0 2-38 2.7-76 2.2-114.1 0-1.9-3-1.9-3 0zM1070.7 379.1c.5 4.8.7 9.8 1.6 14.5.5 2.3 1.3 3.9 3.3 5.3 6.3 4.1 16.5 1.7 23.4 1.3 9.8-.6 19.7-1.2 29.5-1.8 4.4-.3 11.4-1.5 8.7-7.6-.8-1.8-3.4-.2-2.6 1.5.5 1.1-5.1 2.9-6.1 3.1-1.6.3-3.3.2-4.9.3-2.9.2-5.9.4-8.8.5-5.9.4-11.8.7-17.7 1.1-5.4.3-11.4 1.4-16.8.2-6.8-1.6-5.9-12.6-6.6-18.3-.2-2-3.2-2-3-.1zM1052.5 375.4c-8.8 12.9-17.9 25.6-27.1 38.2-.3.4-.3 1.1 0 1.5 1.6 2.5 4.3 3.5 7.2 2.6 4.3-1.3 6.4-6.2 8.6-9.6 3.6-5.6 7.7-10.9 12.1-16 1.9-2.1 3.8-4.2 5.8-6.2 2.3-2.3 6.2-7.2 9.5-7.7 1.9-.3 1.1-3.2-.8-2.9-3 .5-5 2.9-7.2 4.9-2.9 2.7-5.7 5.5-8.4 8.5-5.2 5.8-10 12-14.2 18.5-1.2 1.8-2.2 4-3.7 5.6-1.6 2.3-3.3 2.5-5.3.6.6-.8 1.2-1.6 1.7-2.4 2.7-3.7 5.4-7.4 8-11.1 5.5-7.7 10.9-15.4 16.2-23.2 1.3-1.4-1.3-2.9-2.4-1.3z" fill="#e8e8e8"/><path d="M1068.1 379.1c12.4.3 24.3-7.2 29.2-18.6 4.4-10.3 2-23.7-7.3-30.5-10.7-7.7-24.4-1.9-32.7 6.5-4.9 5-9 11.3-10 18.3-.4 2.8-.3 5.6.4 8.3.4 1.6 1 3.1 1.8 4.5.2.4 4.8 6.9 2.8 6.8-1.9-.2-1.9 2.8 0 3 3.1.3 4.7-2.5 3.8-5.3-.7-2.3-2.9-3.9-4.1-6-1.8-3.3-2.2-7.1-1.7-10.8 1.7-12.8 15.3-26.2 28.5-26 13 .1 19.8 14.6 17.1 26-3 12.4-15.2 21.1-27.8 20.7-2 .1-2 3.1 0 3.1zM1082.3 285.7l-.1-.1v2.1c1.3-1.5 10.3-1.4 12.7-1.7 3.8-.4 7.7-.7 11.5-.9 3.8-.2 7.7-.4 11.6-.5 1.7 0 10.6.8 11.2-.8-.7 1.8 2.2 2.6 2.9.8.1-.2.1-.3.2-.5.2-.5 0-1.1-.4-1.5-2.2-2.2-6.2-1.2-9.1-1.2-5.5 0-10.9.2-16.4.6-5.1.3-10.2.8-15.4 1.3-2.6.3-9.1-.1-11 2.1-.5.6-.6 1.5 0 2.1l.1.1c1.5 1.6 3.6-.6 2.2-1.9zM1080.9 300.3c10.1 1.4 19.9 1 30 .6 1.9-.1 1.9-3.1 0-3-9.9.4-19.4.8-29.2-.5-1.9-.2-2.7 2.7-.8 2.9zM1074.1 311.6c-.3.3-.6.7-.9 1-.9 1-.3 2.5 1.1 2.6 17.4.3 34.8-.5 52.1-2.4 1.9-.2 1.9-3.2 0-3-17.3 1.9-34.7 2.7-52.1 2.4.4.9.7 1.7 1.1 2.6.3-.3.6-.7.9-1 1.2-1.5-.9-3.6-2.2-2.2zM1095.6 328c9.1.7 18.2.3 27.2-1.2 1.9-.3 1.1-3.2-.8-2.9-8.8 1.4-17.6 1.8-26.4 1.1-2-.1-2 2.9 0 3z" fill="#e8e8e8"/><path d="M1071.2 368.5c-8.1.4-15-6.7-12.4-14.9 2-6.5 9.5-13.4 16.3-14.5 3.3-.5 6.9.3 9.4 2.6 3.7 3.4 2.7 8.4 1 12.5-2.9 7.2-8.2 13.7-16.3 14.6-1.9.2-1.9 3.2 0 3 10.4-1.1 17.8-10 20.3-19.8 2.4-9.2-4.4-16.8-13.9-16-8.8.8-18.5 9.7-20.1 18.4-1.7 9.7 6.2 17.6 15.7 17.1 1.9-.1 1.9-3.1 0-3z" fill="#e8e8e8"/><path d="M1072.9 340.4c-4 8.6-7.7 17.3-11 26.1-.7 1.8 2.2 2.6 2.9.8 3.3-8.6 6.8-17.1 10.7-25.4.8-1.8-1.7-3.3-2.6-1.5zM1077.5 349c-2.6 5.4-5.1 10.8-7.7 16.2-.8 1.7 1.8 3.3 2.6 1.5 2.6-5.4 5.1-10.8 7.7-16.2.8-1.7-1.7-3.3-2.6-1.5zM334.1 185.7v27.4c0 1.9 3 1.9 3 0v-27.4c0-1.9-3-1.9-3 0z" fill="#e8e8e8"/><path d="M336 214.4h25.4c1.9 0 1.9-3 0-3H336c-1.9 0-1.9 3 0 3z" fill="#e8e8e8"/><path d="M363.2 211.2v-29.8c0-1.9-3-1.9-3 0v29.8c0 1.9 3 1.9 3 0z" fill="#e8e8e8"/><path d="M362.1 179.5h-26c-1.9 0-1.9 3 0 3h26c1.9 0 1.9-3 0-3zM346.8 216v30.5c0 1.9 3 1.9 3 0V216c0-1.9-3-1.9-3 0z" fill="#e8e8e8"/><path d="M311.6 246.1c11.1-10.6 22.7-20.8 34.7-30.5 1.5-1.2-.6-3.3-2.1-2.1-12 9.7-23.5 19.8-34.7 30.5-1.4 1.3.7 3.4 2.1 2.1zM350 216.6l36 27.3c1.5 1.2 3-1.4 1.5-2.6l-36-27.3c-1.5-1.2-3 1.4-1.5 2.6z" fill="#e8e8e8"/><path d="M300 249.7h19.9c1.9 0 1.9-3 0-3H300c-1.9 0-1.9 3 0 3z" fill="#e8e8e8"/><path d="M318.1 250.3v22.6c0 1.9 3 1.9 3 0v-22.6c0-2-3-2-3 0zM297.8 248.9v26.4c0 1.9 3 1.9 3 0v-26.4c0-2-3-2-3 0z" fill="#e8e8e8"/><path d="M299 277.1h18.5c1.9 0 1.9-3 0-3H299c-1.9 0-1.9 3 0 3zM337.6 249.6v26c0 1.9 3 1.9 3 0v-26c0-2-3-2-3 0z" fill="#e8e8e8"/><path d="M339.1 276.4h18.2c1.9 0 1.9-3 0-3h-18.2c-1.9 0-1.9 3 0 3zM340.1 251.1h16.1c1.9 0 1.9-3 0-3h-16.1c-1.9 0-1.9 3 0 3z" fill="#e8e8e8"/><path d="M355.1 249.2v24.7c0 1.9 3 1.9 3 0v-24.7c0-1.9-3-1.9-3 0zM380 249.2c-.3 6.5-.5 13-.5 19.5 0 1.9 3 1.9 3 0 0-6.5.2-13 .5-19.5.1-1.9-2.9-1.9-3 0z" fill="#e8e8e8"/><path d="M381.3 249.9c6.6-.7 13.2-1.5 19.8-2.2 1.9-.2 1.9-3.2 0-3-6.6.7-13.2 1.5-19.8 2.2-1.9.2-2 3.2 0 3z" fill="#e8e8e8"/><path d="M400.1 246.8c-.7 6.7-.5 13.3.7 19.9.3 1.9 3.2 1.1 2.9-.8-1.1-6.4-1.3-12.7-.6-19.1.2-1.9-2.8-1.9-3 0z" fill="#e8e8e8"/><path d="M382.3 271.3l19.8-3c1.9-.3 1.1-3.2-.8-2.9l-19.8 3c-1.9.3-1.1 3.1.8 2.9zM346.4 277.3c-3.7 5.6-6.9 11.5-9.8 17.5-.8 1.7 1.8 3.3 2.6 1.5 2.9-6.1 6.2-11.9 9.8-17.5 1-1.6-1.6-3.1-2.6-1.5z" fill="#e8e8e8"/><path d="M347.3 278.5c3.7 5 6.9 10.2 9.6 15.7.9 1.7 3.5.2 2.6-1.5-2.8-5.5-6-10.8-9.6-15.7-1.1-1.6-3.7-.1-2.6 1.5zM331.2 298.7c2.1 0 4.2 0 6.4.1 1 0 1.9.1 2.9.2 1.8.1 1.6-.5 1.9 1.1.7 3.8-.1 8.7-.4 12.6-.2 1.9 2.8 1.9 3 0 .2-3 .4-6.1.4-9.1 0-1.7.5-4.5-.4-6.1-.9-1.5-3-1.3-4.5-1.4-3.1-.2-6.2-.3-9.3-.3-1.9-.1-1.9 2.9 0 2.9z" fill="#e8e8e8"/><path d="M329.2 298.6c.3 3.5.6 6.9.9 10.4.2 2.8-.2 6.9.9 9.6.4 1.1.9 1.5 2 1.7 2.6.5 6.5-.8 9.1-1.2 1.9-.3 1.1-3.1-.8-2.9-1.8.2-4.6 1.3-6.3.9-1.9-.5-1.5-3.1-1.6-5.1-.4-4.5-.8-8.9-1.2-13.4-.2-1.9-3.2-2-3 0zM351.8 298.2c-.2 2.9-.3 5.9-.2 8.8 0 .7.9 7.3.6 7.5.5-.1 1-.3 1.5-.4-.1 0-.2-.1-.4-.1.4.5.7 1 1.1 1.4v-.4c-.4.5-.7 1-1.1 1.4.1 0 .2 0 .3-.1 1.9-.4 1.1-3.3-.8-2.9-.1 0-.2 0-.3.1-.7.1-1.1.8-1.1 1.4v.4c0 .6.5 1.3 1.1 1.4 2.6.5 2.6-1.9 2.5-3.8-.4-5-.6-9.9-.2-15 .1-1.7-2.9-1.6-3 .3z" fill="#e8e8e8"/><path d="M353.6 298.9c0-.7 6.4-.9 7.3-.8 2.5.4 2 .6 2.4 2.4.3 1.2-.1 2.9-.2 4.1-.1 2.5-.1 4.9 0 7.4 0 1.4 1 5.6.3 6.6.7-.2 1.4-.4 2.1-.5-.1 0-.2-.1-.3-.1.2.6.5 1.1.7 1.7 0-.1.1-.2.1-.3.5-1.9-2.4-2.7-2.9-.8 0 .1-.1.2-.1.3-.2.6.1 1.4.7 1.7.1 0 .2.1.3.1.8.3 1.6.2 2.1-.5.7-1 .4-2 .3-3.2-.1-2.7-.3-5.5-.3-8.2 0-2.7.1-5.5.2-8.2.1-1.2.4-2.8-.4-3.9-1.7-2.3-7.1-1.6-9.3-1.3-2.5.3-5.8.6-6 3.6 0 1.8 3 1.8 3-.1z" fill="#e8e8e8"/><path d="M353.9 319.2c3-.2 6 .1 8.9.8 1.9.5 2.7-2.4.8-2.9-3.2-.9-6.4-1.2-9.7-1-2 .2-2 3.2 0 3.1zM391.5 271.9c-2.4 5.3-4.5 10.8-6.4 16.3-.6 1.8 2.3 2.6 2.9.8 1.8-5.3 3.8-10.5 6.1-15.6.8-1.8-1.8-3.3-2.6-1.5zM376.2 295.6c5-1.4 10.1-2.1 15.4-1.9 1.9.1 1.9-2.9 0-3-5.5-.2-10.9.5-16.2 2-1.9.5-1.1 3.4.8 2.9z" fill="#e8e8e8"/><path d="M376.1 294.2c-.9 2.8-.2 5.4.1 8.2.3 3.4.3 6.7.2 10.1-.2 4.4.9 4.9 5.3 4.5 3-.3 7.1.5 8.2-2.8 1-3.2.7-7.5 1-10.9.3-3.6.7-7.3 1-10.9.2-1.9-2.8-1.9-3 0-.4 4.2-.8 8.5-1.2 12.7-.2 1.7-.1 3.8-.5 5.5-.6 2.8-.9 3-3.8 3.3-.9.1-1.7.2-2.6.3-1.7.6-2.2.1-1.5-1.6-.4-1.4.2-3.6.1-5.1-.1-3.8-1.6-8.9-.5-12.5.7-1.9-2.2-2.7-2.8-.8zM395.7 274.7c2.3 3.5 4.3 7.2 6.2 11 .8 1.7 3.4.2 2.6-1.5-1.8-3.8-3.9-7.4-6.2-11-1.1-1.7-3.7-.2-2.6 1.5zM399.1 290.1h15c1.9 0 1.9-3 0-3h-.9c-1.9 0-1.9 3 0 3h.9c1.9 0 1.9-3 0-3h-15c-2 0-2 3 0 3z" fill="#e8e8e8"/><path d="M397.6 290c.4 3.8.7 7.6.8 11.4.1 2.7-.8 7.3.4 9.8.7 1.5 1.6 1.7 3.2 1.7 3.7-.1 7.7-1 11.4-1.5.6-.1 1.1-.9 1.1-1.4l-.3-20.3c0-1.9-3-1.9-3 0l.3 20.3c.4-.5.7-1 1.1-1.4-2.4.3-4.8.6-7.2 1-.8.1-3.1.8-3.8.2-.5-.4 0-3.5 0-4.1-.1-5.2-.4-10.4-.9-15.5-.3-2.1-3.3-2.1-3.1-.2zM286.6 298.2c5.2-4.8 10.5-9.3 16.2-13.4 1.5-1.1 0-3.7-1.5-2.6-5.9 4.3-11.5 8.9-16.8 13.9-1.4 1.3.7 3.4 2.1 2.1z" fill="#e8e8e8"/><path d="M301.9 283.5c3 4.3 5.5 8.8 7.5 13.5.8 1.8 3.4.2 2.6-1.5-2.1-4.8-4.6-9.3-7.5-13.5-1.1-1.6-3.7-.1-2.6 1.5zM273.3 303.7c2.7-.2 5.3-.4 8-.6 1.2-.1 2.5-.4 3.6-.3 1.4-.5 1.8-.4 1.2.4-.4.6-.6 1.2-.5 1.9-1.1 4.9-1.3 10.1-1.5 15.1.9-.4 1.7-.7 2.6-1.1-.1-.1-.2-.2-.3-.4-1.3-1.4-3.4.7-2.1 2.1.1.1.2.2.3.4.9 1 2.5.2 2.6-1.1.1-4.3.5-8.6 1.1-12.8.3-1.8 1.6-4.8.5-6.6-.9-1.4-2.4-1.1-3.8-1-3.9.3-7.7.6-11.6.9-2 .3-2 3.3-.1 3.1z" fill="#e8e8e8"/><path d="M275.3 300.8h-.4c-.5 0-1 .3-1.3.7-1.6 2.7-1.5 7.4-2 10.5l-2.1 13.2c-.1.8.2 1.7 1 1.8 4.7 1 9.1.8 13.6-.9 1.8-.7 1-3.6-.8-2.9-4 1.5-7.8 1.8-12 .9.3.6.7 1.2 1 1.8.3-2 3.8-22.1 2.8-22.2 2.1.3 2.1-2.7.2-2.9zM302.5 300.3l-.1.1h2.1c-.1 0-.1-.1-.2-.1v2.1c.1-.1 1.9-.1 2.3-.1 1.1-.1 2.3-.2 3.4-.2 2.1-.1 4.2 0 6.3.2-.4-.9-.7-1.7-1.1-2.6-.2.1-.4.3-.5.4-1.9.2-1.9 3.2 0 3 1.1-.1 1.9-.4 2.7-1.3.9-1 .3-2.5-1.1-2.6-2.9-.2-5.8-.3-8.7-.1-1.4.1-4.3-.2-5.3 1.1-.5.6-.7 1.6 0 2.1.1 0 .1.1.2.1.6.5 1.6.7 2.1 0l.1-.1c1.2-1.3-.9-3.4-2.2-2z" fill="#e8e8e8"/><path d="M301.3 301c-.3 4.1-.6 8.2-.8 12.3-.1 2.3-1.4 8.2 0 10.3.7 1 1.4 1.4 2.7 1.3 1.3 0 2.7-.9 3.9-1.2 2.4-.7 4.9-.9 7.4-.9 1.9 0 1.9-3 0-3-2.2 0-4.4.2-6.6.7-1 .2-2.9 1.3-3.8 1.1-.7.5-1 .4-.8-.4-.1-.8-.1-1.6 0-2.5.1-5.8.6-11.7 1-17.5.2-2.2-2.8-2.2-3-.2z" fill="#e8e8e8"/><path d="M314.2 301.3c-.8 6.7-1.2 13.4-1.1 20.2 0 1.9 3 1.9 3 0-.1-6.8.3-13.5 1.1-20.2.3-1.9-2.7-1.9-3 0zM1113 720.8c23.6 51.9 40.1 106.7 49.2 163 .3 1.9 3.2 1.1 2.9-.8-9.2-56.5-25.8-111.6-49.5-163.7-.8-1.7-3.4-.2-2.6 1.5zM1237.5 633c-29.2 44.6-54.6 91.6-72.6 141.9-.7 1.8 2.2 2.6 2.9.8 17.9-50.1 43.2-96.8 72.3-141.2 1-1.6-1.6-3.1-2.6-1.5z" fill="#e8e8e8"/><path d="M1102.8 775.6c16.2 4.4 30.1 14.4 39.4 28.4 1.1 1.6 3.7.1 2.6-1.5-9.7-14.6-24.2-25.2-41.2-29.8-1.9-.5-2.7 2.4-.8 2.9zM1141.8 734.1c-5.5 9.1-9.2 19-10.7 29.6-.3 1.9 2.6 2.7 2.9.8 1.5-10.3 5-20 10.4-28.9 1-1.6-1.6-3.1-2.6-1.5zM1172.9 677.9c4.9 5.4 8.3 11.6 10.9 18.3 1.2 3 2.2 6.1 3.1 9.1.9 2.9 3 7.2 1.8 10.1-.7 1.8 2.2 2.6 2.9.8 1.2-2.9 0-5.8-.9-8.6-1.2-4.1-2.5-8.2-4.1-12.2-2.8-7.2-6.5-13.9-11.7-19.7-1.2-1.4-3.3.7-2 2.2zM1206.8 689.4c12.5-14.4 28.7-24.6 47.1-29.6 1.9-.5 1.1-3.4-.8-2.9-18.8 5.1-35.6 15.6-48.4 30.3-1.2 1.5.9 3.7 2.1 2.2zM1171.5 769.7c9-8 19.6-13.6 30.8-17.8 5.1-1.9 10.2-3.4 15.4-4.9 2.9-.8 5.7-1.5 8.6-2.3 1.4-.3 7.3-2.7 8.4-2.1-.2-.7-.4-1.4-.5-2.1-.1.1-.1.2-.2.3.7-.2 1.4-.4 2.1-.5-.1 0-.2-.1-.3-.1-1.7-.9-3.2 1.7-1.5 2.6.1 0 .2.1.3.1.7.4 1.6.2 2.1-.5.1-.1.1-.2.2-.3.4-.7.2-1.6-.5-2.1-1.4-.8-2.9-.1-4.4.2-3.4.8-6.8 1.6-10.2 2.5-6.5 1.7-13 3.6-19.4 5.8-12 4.3-23.4 10.2-32.9 18.8-1.5 1.5.6 3.7 2 2.4zM1120.5 893.1c22.7 5.5 45.8 1.4 68.5-1.3 24.6-2.9 49.3-3.4 74-3.8 1.9 0 1.9-3 0-3-24.1.4-48.2.9-72.1 3.6-23.1 2.7-46.6 7.2-69.6 1.6-1.8-.5-2.6 2.4-.8 2.9zM1192.1 884.6c40.4-2.1 80.8-4.3 121.2-6.4 1.9-.1 1.9-3.1 0-3-40.4 2.1-80.8 4.3-121.2 6.4-1.9.1-1.9 3.1 0 3zM1076.4 595.9c-9.9 1.9-22-7.6-21.7-18.1.4-11.9 15.3-15.9 24.8-16 10.5 0 17.9 8.1 15.4 18.7-1.1 4.6-4 8.4-7.6 11.3-2.1 1.7-10.6 7.9-13 4.9-1.2-1.5-3.3.6-2.1 2.1 3.2 4 9.8-.1 13.2-2 5.2-3.1 9.9-7.8 11.9-13.6 4-11.7-3.1-23.4-15.4-24.3-11.7-.9-29.8 4.5-30.1 18.9-.2 12.6 13.6 23.2 25.5 21 1.8-.3 1-3.2-.9-2.9z" fill="#e8e8e8"/><path d="M308.8 643c-3.7 4.2-6.9 8.8-9.6 13.8-.9 1.7 1.7 3.2 2.6 1.5 2.6-4.7 5.6-9.1 9.2-13.2 1.2-1.4-.9-3.6-2.2-2.1z" fill="#161616"/><path d="M308.7 644.2c3 4.2 6 8.3 9 12.5 1.1 1.6 3.7.1 2.6-1.5-3-4.2-6-8.3-9-12.5-1.2-1.6-3.8-.1-2.6 1.5zM308.5 650.1c.9 35.3 1.7 70.6 2.6 106 0 1.9 3 1.9 3 0-.9-35.3-1.7-70.6-2.6-106-.1-1.9-3.1-2-3 0z" fill="#161616"/><path d="M314.4 758.9h133.2c1.9 0 1.9-3 0-3H314.4c-1.9 0-1.9 3 0 3z" fill="#161616"/><path d="M441.8 755.9c3.1 1.2 6.1 2.4 9.2 3.6-.4-1.1-.9-2.2-1.3-3.3-1.5 2.7-3.6 4.8-6.2 6.4-2.5 1.5-.2 5.4 2.3 3.9 3.3-1.9 6-4.7 7.9-8 .8-1.4 0-2.8-1.3-3.3-3.1-1.2-6.1-2.4-9.2-3.6-2.9-1.1-4.1 3.2-1.4 4.3z" fill="#161616"/><path d="M1209.8 215.8c-4-5.3 1.7-13.4 7.9-9.4 2.8 1.8 4.1 5.5 2.1 8.4-1.8 2.6-5.5 3.7-8.3 2.3-1.7-.9-3.2 1.7-1.5 2.6 4.1 2 9.1.8 12-2.8 3.1-3.9 2-9.4-1.8-12.4-3.7-2.9-8.9-2.9-12.1.7-2.9 3.3-3.4 8.6-.7 12.2.9 1.4 3.5-.1 2.4-1.6zM1293 596.1c-.2-4.7 3.3-7.9 7.9-7.9 1.9 0 3.4.5 5.2-.3 3.4-1.5 4.7-5.4 5.8-8.7 1.6-4.8 2.8-7.1 8.8-5.6 1.6.4 2.6 1.2 4.3.6 5-1.9 2-10.5 9.6-9.1 1.9.4 2.7-2.5.8-2.9-2.4-.5-4.7-.3-6.8 1.2-1.9 1.4-2.1 3.1-3.2 4.9-.1 1.9-1.4 2.7-3.8 2.4-.5-.3-1.1-.6-1.6-.8-1.1-.1-1.7-.7-2.9-.6-2.2.1-3.9 1.5-5.2 3.1-1.9 2.3-2.4 5.1-3.5 7.9-1.1 2.8-2.2 4.8-5.6 5.1-1.5.1-2.9-.4-4.4-.2-5.3.8-8.7 5.7-8.5 10.9.2 2 3.2 2 3.1 0zM344.3 753.2c14.1-28.3 16.3-60.2 24.6-90.3 2.1-7.7 4.2-16.7 10-22.5 8.5-8.5 19.3-2.5 22.8 7.5 2.6 7.6 2.7 16.4 3.2 24.4.5 8.6.9 17.2 1.4 25.8 1.1 18.4 3 36.9 9.2 54.4.6 1.8 3.5 1 2.9-.8-6.5-18.4-8.3-37.9-9.3-57.3-.5-9.5-.9-19.1-1.6-28.6-.6-7.6-.9-15.9-4.5-22.8-2.8-5.4-8.2-9.8-14.5-9.8-6.5 0-11.9 4.5-15.2 9.7-4.3 6.9-6.3 15.6-8.3 23.4-2.2 8.7-4 17.5-5.8 26.3-4 20.2-8.1 40.5-17.4 59.1-1 1.7 1.6 3.2 2.5 1.5zM358 629.2c-2-2.9 2.1-6.8 4.5-3.6 2.3 3-2 6-4.4 3.7-1.4-1.3-3.5.8-2.1 2.1 2.1 2 5.5 2.2 7.9.5 2.7-1.9 3-5.5 1-8.1-2-2.6-5.7-3.3-8.2-1.1-2.2 2-2.9 5.5-1.2 8 1 1.6 3.6.1 2.5-1.5zM380.1 615.9c-1.6-2.3 1.9-4.4 3.4-2 1.6 2.6-2.9 5.5-4.4 2.6-.9-1.7-3.4-.2-2.6 1.5 1.3 2.7 4.8 3.4 7.3 1.9 2.6-1.5 3.8-4.9 2.2-7.6-1.4-2.3-4.7-3.5-7.1-2-2.3 1.5-3.1 4.7-1.6 7 1.3 1.7 3.9.2 2.8-1.4zM371.4 593.9c-.8-2.3 1.7-4.7 3.7-2.8 2 1.9-.3 4.6-2.6 3.8-1.8-.6-2.6 2.3-.8 2.9 5.2 1.7 9.6-4.9 5.5-8.8-1.8-1.8-4.6-2.1-6.7-.6-1.9 1.4-2.9 4-2 6.3.7 1.8 3.6 1.1 2.9-.8zM409.6 620.6c-.3-.2.1.1.2.3v.3c.2-.1 0 0 0 0h.4c.3 0 .6.1.9.2-.4-.5-.7-1-1.1-1.4v2.4c.4-.5.7-1 1.1-1.4-.8.3-1.6.4-2.4.2-1.8-.6-2.6 2.3-.8 2.9 1.3.4 2.8.4 4-.2.6-.3 1.1-.7 1.1-1.4v-2.4c0-.7-.5-1.3-1.1-1.4-1.6-.4-3.5-.6-4.5 1-.8 1.2-.7 3.1.8 3.7.7.4 1.6.2 2.1-.5.3-.9.1-1.9-.7-2.3zM576.6 222.5c.5.2-.6 5.2-.1 6.4.7 1.5 2.3 2.4 3.9 2.6 2.2.4 4.1-.6 5.9-1.7 1.8-1.1 6.1-4.9 7.4-.7.3.9-.7 3.1-.4 4.3.9 4 4.7 3.8 7.4 1.7 1-.8 1.6-1.8 2.4-2.7 1-2.4 2.5-2.9 4.4-1.5 0 .6.1 1.2.3 1.7 1 1.5 1.5 2.5 3.5 2.4 1.9-.1 1.9-3.1 0-3 .1 0-2.1-4.5-3.3-5-1.4-.6-3-.1-4.3.7-.9.5-1.6 1.3-2.3 2-1.5 1.5-1.4 3.7-3.8 2.2-2.3-1.4-.4-3.6-2-5.6-2.6-3.3-7-1.5-9.8.3-1.6 1-5.6 4.6-6.6-.7-.1-.7.5-1.8.5-2.5 0-1.6-.3-2.5-1.7-3.2-1.6-1.2-3.1 1.4-1.4 2.3z" fill="#5222d0"/><path d="M472 456.4c1.2 14 2.4 28 3.7 42 .2 1.9 2.8 1.9 3 0 0-.3.1-.7.1-1 .2-1.9-2.8-1.9-3 0 0 .3-.1.7-.1 1h3c-1.2-14-2.4-28-3.7-42-.2-1.9-3.2-2-3 0z" fill="#ec615b"/><path d="M474.3 457.5c4.2-.9 11.5-2.2 14.7 1.3 2.9 3.1 2.2 9.2 2.6 13.4.7 8.4 1.4 16.8 2.1 25.1.2 1.9 3.2 1.9 3 0-1-12-1.1-24.6-3.1-36.5-1.5-9.3-13.1-7.6-20.1-6.2-1.9.4-1.1 3.3.8 2.9zM499.9 401.1c3.2 32 4.3 64.1 3.3 96.3-.1 1.9 2.9 1.9 3 0 1-32.1-.1-64.3-3.3-96.3-.2-1.9-3.2-2-3 0z" fill="#ec615b"/><path d="M503.5 401.1c4.1.6 9.1.6 12.9 2 5.1 1.8 4.3 11 4.8 15.7.9 9.1 1.5 18.2 2.1 27.3 1.1 18.9 1.5 37.8 1.9 56.7 0 1.9 3 1.9 3 0-.5-21.8-1-43.7-2.5-65.5-.7-10.2-1.2-20.5-2.8-30.6-1.4-8.6-11.7-7.5-18.6-8.6-1.9-.1-2.7 2.7-.8 3zM528.9 382.3c3.4 38 6.9 75.9 10.3 113.9.2 1.9 3.2 1.9 3 0-3.4-38-6.9-75.9-10.3-113.9-.1-1.9-3.1-1.9-3 0z" fill="#ec615b"/><path d="M530.8 383.8c4.8-.9 9.7-1.2 14.6-.7 4.1.4 7 1.2 7.2 5.6.1 1.5.1 3.1.1 4.6.3 7.5.6 15 1 22.5 1.3 28.7 2.8 57.3 4.3 86 .1 1.9 3.1 1.9 3 0-1.6-31-3.2-61.9-4.6-92.9-.3-6.5-.6-12.9-.8-19.4-.1-2.9-.1-5.8-2.8-7.7-2.5-1.7-6.4-1.8-9.3-1.9-4.5-.3-9 .1-13.5 1-1.9.4-1.1 3.3.8 2.9z" fill="#ec615b"/><path d="M450.5 372.7c-3.3 6.5-6.5 13-9.8 19.5-.9 1.7 1.7 3.2 2.6 1.5 3.3-6.5 6.5-13 9.8-19.5.8-1.7-1.8-3.3-2.6-1.5z" fill="#161616"/><path d="M450.9 375.7c1.4 5.8 4.5 10.9 9.1 14.7 1.5 1.2 3.6-.9 2.1-2.1-4.2-3.5-7-8-8.3-13.3-.5-2-3.4-1.2-2.9.7z" fill="#161616"/><path d="M448.8 377.1c-.6 43.8 5.1 87.5 17 129.7.5 1.9 3.4 1.1 2.9-.8-11.8-41.9-17.5-85.3-16.9-128.9 0-1.9-3-1.9-3 0z" fill="#161616"/><path d="M469.4 509.4c23.4-2.2 46.9-3.4 70.4-3.5 21.9-.1 45.6-1 65.8 8.9 1.7.8 3.2-1.7 1.5-2.6-19.6-9.6-42-9.4-63.4-9.3-24.8 0-49.6 1.2-74.3 3.5-1.9.2-1.9 3.2 0 3z" fill="#161616"/><path d="M593.3 504.5c5.4 3.3 10.6 6.9 15.4 10.9l.3-2.4c-4.1 3.1-8.1 6.2-12.2 9.3-1.5 1.2 0 3.8 1.5 2.6 4.1-3.1 8.1-6.2 12.2-9.3.7-.5 1.1-1.7.3-2.4-5.1-4.2-10.4-8-16-11.3-1.7-.9-3.2 1.6-1.5 2.6zM458.1 427.8l4.5 5.4c.6.7 1.9.5 2.4-.3 8-15.7 15.9-31.5 24-47.2 2.1-4 5-.7 8 .4 1.9.7 3.9.5 5.8-.2 4.8-1.8 8-6.8 10.2-11.2 3.6-7.5 6.8-15.3 10.3-22.9.9-2.1 1.9-4.2 2.8-6.2.5-1.2 1.1-3.7 2.1-4.6 3.1-2.8 10.7 3.6 13.3 5.2 4.3 2.6 10.5 8.4 16.1 6.9 4.2-1.1 6.2-5.7 7.4-9.5 5.8-17.1 13.2-32.6 24.6-46.7.9-1.1.1-3-1.5-2.5-5.2 1.7-9.9 4.3-14.2 7.6-1.4 1.1.4 3.1 1.8 2.4 3.9-1.9 7.9-3.9 11.8-5.8-.7-.3-1.5-.6-2.2-.9 1.2 6 2.4 12 3.5 18 .4 1.9 3.3 1.1 2.9-.8-1.2-6-2.4-12-3.5-18-.2-1-1.4-1.3-2.2-.9-3.9 1.9-7.9 3.9-11.8 5.8l1.8 2.4c3.9-3.1 8.1-5.3 12.9-6.9-.5-.8-1-1.7-1.5-2.5-8.7 10.8-15.9 22.7-21.1 35.6-1.4 3.4-2.6 6.9-3.7 10.4-.9 2.8-2.3 8.8-6 9.4-4.2.7-9.6-4.1-13-6.2-3.4-2.1-6.7-4.4-10.2-6.3-4-2.1-6.5-1.3-8.5 2.6-3.8 7.5-6.9 15.5-10.4 23.2-2.6 5.8-5.9 17.5-13 19.4-4.8 1.3-9.2-5.9-13.5-1.7-2.5 2.4-3.8 6.9-5.3 9.9-2.3 4.5-4.5 8.9-6.8 13.4-4.5 8.9-9.1 17.8-13.6 26.7l2.4-.3-4.5-5.4c-1.3-1.3-3.4.8-2.1 2.3z" fill="#161616"/><path d="M893.4 179.3c-9.8-5.4-14-19.1-7.8-28.8 6.3-9.9 21.6-11.7 30.5-4.4 9.1 7.6 9.2 23.2.5 31.1-9 8.3-24.1 6.1-31.5-3.1-1.2-1.5-3.3.6-2.1 2.1 6.9 8.4 19.2 11.4 29.3 7.2 9.8-4.1 14.9-14.7 13.6-25-1.3-10.6-9.2-18.5-19.8-19.7-10.1-1.2-20.9 3.8-24.7 13.6-4.2 10.8.5 23.9 10.6 29.4 1.6 1.1 3.1-1.5 1.4-2.4zM936.8 197.7c-4.2-7.8 6.6-16.4 12-8 4.8 7.4-7 13-10.8 6.1-.9-1.7-3.5-.2-2.6 1.5 2.4 4.4 8 5.6 12.4 3.7 5.2-2.2 6.5-8.2 3.6-12.8-3-4.8-9.2-6.7-14-3.3-4.5 3.2-5.9 9.5-3.3 14.4 1.1 1.6 3.7.1 2.7-1.6z" fill="#ec615b"/><path d="M884.2 954.1h236c1.9 0 1.9-3 0-3h-236c-2 0-2 3 0 3zM1169.6 954.1h45c1.9 0 1.9-3 0-3h-45c-1.9 0-1.9 3 0 3zM657.5 999.5h157c1.9 0 1.9-3 0-3h-157c-1.9 0-1.9 3 0 3zM812.5 987.5h136c1.9 0 1.9-3 0-3h-136c-1.9 0-1.9 3 0 3zM447 979.3h41c2.9 0 2.9-4.5 0-4.5h-41c-2.9 0-2.9 4.5 0 4.5zM502 979.3h14c2.9 0 2.9-4.5 0-4.5h-14c-2.9 0-2.9 4.5 0 4.5z" fill="#161616"/><g><path d="M388.8 797.7c1.9.3 4.5 2.7 6.5 14.1L413 813c4.9-4.1 9.8-8.2 14.7-12.4.7 4 1.6 9.9 2.4 17.1 1.8 16.7.7 20.7 1.8 30 .5 4.1 2.8 21.4 13.5 38.2 8.2 12.9 13.6 13.3 20 25.9 5 9.9 6.5 19.2 7.1 25.3 1-.1 13.7-1.1 21.8 8.8 3.7 4.6 7.8 13.2 4.7 20-3 6.6-9.9 5.6-22.4 16.5-4.4 3.8-8.6 7.6-7.6 10.6 1 3.1 6.4 2.5 15.9 7.6 5 2.7 7.4 4.1 8.2 6.5 3 8.7-16 22.1-18.8 24.1-9.2 6.4-20.4 11.4-21.8 9.4-2.1-3 20.5-19.5 17.1-25.9-2.5-4.8-16.7 1.2-20-4.1-3.6-5.8 9.1-20.3 15.9-28.2 13.1-15.2 21.4-19 20-24.1-1.5-5.4-12.9-9-18.8-5.3-5 3.1-4 10.1-5.9 14.7-3.6 8.8-20.8 16-80 9.4.8-1.6 2-3.5 3.5-5.3 5.1-5.9 11.5-8 14.7-8.8-.9-1.5-6.1-10.4-2.9-21.2 2.4-8.2 8.1-12.7 10-14.1-4-7.9-8-16.5-11.8-25.9-2.4-6.1-4.6-12-6.5-17.7-5.6 0-12.1-1-17.1-5.3-7.5-6.6-4.5-14.7-12.3-20.6-7.3-5.6-16-3.1-17.5-7.9-.7-2.3.7-5 2.2-6.4 3.8-3.6 10.6-1.8 18 .2 5.1 1.4 12.4 4 20.5 8.9-2.7-3.9-7.6-12.1-7.9-23-.7-16.4 9.3-33.1 15.1-32.3z" fill="#161616"/><path d="M385.3 869.5c-6.9 3-4.3 23.3-1.8 41.8 1.6 11.7 4.3 27.2 9.4 45.3-14 10.8-13.3 13.9-12.9 14.7 1.3 2.7 10.6 1.1 13.5.6 3.1-.5 7.5-1.3 10-2.9 7.1-4.7 3.4-19 1.2-41.8-3.2-33 .6-46.8-10-54.7-1.4-1.1-6-4.5-9.4-3z" fill="#161616"/><path d="M316.9 910.9c.3-.1 2.9-1.4 2.8-1.5-.2-.1-.2 1.5-.2 1.9-.1 1.3-.5 2.9-.3 4.3.4 2 1.9 3 3.9 2.8 1.1-.1 1.9-.6 2.8-1.3.2-.2 1.6-1.4 1.7-1.4.2.1.2 2.3.3 2.5.4 1.9 1.8 3.5 3.9 3.3 1.9-.2 1.9-3.2 0-3-1 .1-1.3-5.3-3-5.9-.7-.3-1.5-.1-2.1.2-1.5.7-3.7 3.9-4.4 1.1-.5-2.1 1.6-5.1-.3-6.9-1.8-1.7-4.8.3-6.5 1.2-1.8 1-.3 3.6 1.4 2.7zM385.7 830.3c1.7-1.6 4.6-1.2 5.8.8.8 1.2 2.7.1 1.9-1.1-2-3.2-6.6-3.8-9.3-1.3-1 1 .6 2.6 1.6 1.6zM407.1 829.6c1.8-1.8 4.8-1.9 6.7-.2 1.1 1 2.7-.6 1.6-1.6-2.8-2.6-7.2-2.5-9.9.2-1 1 .6 2.6 1.6 1.6z" fill="#fff"/><path d="M389.6 841.3c-1.1 2.2-5.8 9.8-.7 10.4 2.1.2 4.1-1.7 5.3-3.1 1.7-2 2.7-4.5 3.6-6.9.7-1.8-2.2-2.6-2.9-.8-1.1 2.8-2.3 5.4-4.7 7.4-.5.4-.8 1.1-.6.2.1-.6.4-1.2.7-1.7.6-1.3 1.2-2.6 1.9-3.9.8-1.9-1.8-3.4-2.6-1.6z" fill="#ec615b"/><path d="M392.3 842.9c1.3-.6 2.3-1.4 3.5-2.2-.4.1-.8.1-1.2.2.1 0 .2.1.3.1-.3-.2-.6-.5-.9-.7 0-.6-.1-.6-.5.1-.3.3-.5.6-.8 1-.5.6-.9 1.2-1.3 1.8-.9 1.4-1.7 2.8-2.5 4.3-.9 1.7 1.7 3.2 2.6 1.5.9-1.6 1.8-3.3 2.8-4.8.8-1.2 2.5-2.5 2.6-4 .1-1.1-.8-2.1-1.8-2.1-.7-.1-1.2.3-1.7.7-.9.7-1.7 1.2-2.8 1.7-1.5.5 0 3.1 1.7 2.4z" fill="#ec615b"/><path d="M389.3 841.2c3.3.1 6.4-2.3 7-5.6.2-1.4-1.9-2-2.2-.6-.4 2.4-2.4 4.1-4.8 4-1.5-.1-1.5 2.1 0 2.2z" fill="#fff"/><path d="M394.4 834.9c.4 4 3.9 7.2 8 6.9 1.4-.1 1.4-2.4 0-2.3-2.8.2-5.5-1.7-5.8-4.6-.1-1.4-2.3-1.4-2.2 0z" fill="#fff"/></g><g><path d="M1002.1 646.4c-33.1 40.1-66.1 80.1-99.2 120.2l155.7 38.7c1.7-21.5 2.1-65.4-21.8-111.3-10.8-20.8-23.7-36.4-34.7-47.6z" fill="#5222d0"/><path d="M893.2 774.7c52.4 13.2 104.9 26.3 157.3 39.5-.6 8.4-2.3 20.1-7.3 33.1-5.9 15.6-14.2 26.9-20.2 33.9-43.2-35.5-86.5-71-129.8-106.5z" fill="#ec615b"/></g><g><ellipse cx="885.5" cy="773.9" rx="174.3" ry="178.7" fill="none" stroke="#161616" stroke-width="3" stroke-miterlimit="10"/><path d="M887.7 770.1c.4-.4 1.4-.1 1.6.4.1-.4.1-.8.2-1.2-.1.2-.4.1-.5 0-.8-.3-1.6.3-1.8 1-.2.8.3 1.6 1 1.8 1.2.4 2.6.1 3.4-.8 1-1 .7-2.4-.2-3.3-1.6-1.6-4.1-1.7-5.7-.2-1.6 1.4.5 3.6 2 2.3z" fill="#161616"/><path d="M993.1 634.5c-31.9 46.4-66.2 91.2-102.7 134.1-1.2 1.5.9 3.6 2.1 2.1 36.7-43.1 71.1-88 103.2-134.7 1.1-1.6-1.5-3.1-2.6-1.5z" fill="#161616"/><path d="M888.9 772c56.4 10.1 112.4 22 168 35.8 1.9.5 2.7-2.4.8-2.9-55.6-13.7-111.6-25.7-168-35.8-1.9-.3-2.7 2.6-.8 2.9z" fill="#161616"/><path d="M888.7 771.5c42.7 39.1 86.7 76.7 132 112.9 1.5 1.2 3.6-.9 2.1-2.1-45.2-36.1-89.3-73.8-132-112.9-1.4-1.3-3.6.8-2.1 2.1z" fill="#161616"/><path d="M885.6 595.6c3.7 16.5 6.2 40-2.9 64-20.7 54.8-80.8 57.5-103.6 102.2-12.4 24.3-15.5 64.5 23.7 134.5v35.3c-11.6-6.5-24.4-15.3-36.7-27.3-46.7-45.7-53.9-105.4-55.4-128.1.1-16.4 2.4-69.7 41.7-117.3 8.9-10.8 40.5-47.8 94.3-59.7 15.7-3.4 29.3-3.9 38.9-3.6z" opacity=".21" fill="#6d6c6c"/></g><g><path d="M589.6 876c6.9 17.4 13.8 34.7 20.6 52.1-4.1 9-10.4 22.3-19.1 38.2-11.4 20.8-16.8 27.8-15 29.9 2.6 3 19.5-4.5 85.1-53.6-4.1-11.4-8.3-22.9-12.4-34.6-6-17-11.8-33.8-17.5-50.5-13.8 6.2-27.7 12.4-41.7 18.5z" fill="#161616"/><path d="M774 571.2c11.1 18.9 3.2 48.2 2.1 52.1-6.1 22.7-19.9 24.9-70.5 72.8-31.7 30.1-40.8 42.3-47.5 55.7-9.1 18.4-12.4 35.5-13.7 47.1 4.1 24 8.2 47.9 12.3 71.9-10.5 6.8-25.2 14.9-44 20.6-13.2 4-25.2 6-35.1 6.9-9.2-23.3-22.4-66.3-15.3-118.6 8.6-63.7 42.3-105.4 70.3-140 42.6-52.6 91.9-86.7 134.1-108.7-1.4 7.5-2.2 18.3 2 29.7 2 5.4 4.2 8.6 5.3 10.5z" fill="#ec615b"/><path d="M757.4 544.1c-12.5 33.8-27.5 60-41.1 79.7-40.5 58.9-70.4 63.7-94.3 118.4-15.3 35-18.6 68.4-19.6 80.4-2.5 27.9-.3 51.6 2.5 69 5.6-.2 12.6-1 20.3-3.2 14.9-4.3 25.5-11.8 31.6-17.1-1.7-8.1-4.2-20.1-7-34.8-3.8-20.4-5.7-30.7-5.7-38 0-21.5 9.1-37.7 16.5-50.6 3.5-6.1 13.7-23 49.4-55.7 37.7-34.5 53.4-40.5 63.3-65.8 5.9-15.1 5.8-27.1 5.7-31-.9-26.3-15.7-44.7-21.6-51.3z" opacity=".2" fill="#6d6c6c"/><path d="M778.9 603.6c-20.5 17.2-49.8 42.9-83.5 75.9-48.9 48-57.6 62-61.4 69-10.6 19.5-28.8 63.9-10.8 138 5.9-2.4 12-5.1 18.4-8.2 5.1-2.5 10-5.1 14.6-7.6-4-23.4-8-46.8-12-70.3.3-8.8 1.7-22 7.6-36.7 1.4-3.5 5.5-13.2 15.8-27.2 8.2-11.2 16.1-18.8 31.6-33.5 12.4-11.8 24.4-24.2 37.3-35.4 23.2-20.1 33.6-25.6 39.2-41.1 3.3-9.1 3.5-17.4 3.2-22.9z" opacity=".27" fill="#6d6c6c"/></g><g><path d="M699.7 873.8l45.6 35.1c-20.2 51.2-20.2 64.5-16.1 66.8 6.8 3.9 29.1-20.2 41.8-37.9 11.3-15.9 17.9-30.8 21.7-41.2-6.2-7.9-13.3-16.1-21.2-24.5-10.9-11.6-21.6-21.5-31.7-30.1-13.3 10.7-26.7 21.2-40.1 31.8z" fill="#161616"/><path d="M855.7 571.2c8.9 23.6 3.5 46.4 2.1 52.1-10.2 42.4-48.1 77.4-61.5 89.6-22.9 21-41.9 31.5-52.5 59.5-3.7 9.6-5.2 18.1-5.8 23.9 7.3 16.7 14.6 33.4 21.9 50-4.8 10.3-15.3 29.3-36.5 43.8-9 6.2-17.8 10-25 12.5-15.2-15.5-56.4-61.5-54.2-123 1.7-47.2 28.4-85.2 49-114.7 20.7-29.5 26-25.9 52.1-63.6 22.6-32.7 26.9-47.6 45.9-54.2 19.1-6.7 47.1-3 59.4 13.6 2.4 3.5 3.5 6.4 5.1 10.5z" fill="#ec615b"/><path d="M809.2 566.7c1.1 9.2 1.9 25-2.7 43.2-16 61.9-74.6 67.3-102.8 134.3-5.5 13.1-18.3 44.8-8.2 81.5 7.8 28.6 26 47.2 36.3 56.2 4-2.1 10.6-6.3 16.4-13.7 7.2-9.2 9.5-18.6 10.3-23.3-7.1-17.1-14.2-34.3-21.2-51.4 1.3-7.6 4-18.5 10.3-30.2 8.6-16.2 19-24.4 32.4-36.5 24.6-22.1 40.3-36.1 53.9-55.4 8.6-12.3 21.1-30.4 25.2-56.9 3.4-21.6-.2-39.7-3.3-50.6-15.5 1-31.1 1.9-46.6 2.8z" opacity=".24" fill="#6d6c6c"/><path d="M860.1 598.8c-7.9 14.5-21.5 37.1-42.5 61.3-40.4 46.5-67.8 56.2-86.6 92-8.1 15.4-15.5 40.8-6.4 81.6 11.5 4.6 23.1 9.2 34.6 13.9-7.3-17.2-14.5-34.3-21.8-51.5.7-8.5 2.8-21.1 9.9-34.1 6.3-11.6 13.3-17.7 28.7-31.7 25.5-23.2 38.3-34.8 43.5-40.6 11.9-13.1 24.9-27.8 33.1-50.5 6-16.1 7.3-30.6 7.5-40.4z" opacity=".25" fill="#6d6c6c"/></g><g><path d="M616.7 431.8c-2.7-6-7.4-14.7-16-22.6-10.8-9.9-25.9-17-28.3-14.1-1 1.2-.9 5.4 17.3 25.5" fill="#fff" stroke="#161616" stroke-width="2" stroke-miterlimit="10"/><path d="M579 415.4c-3.9 2.4-10.8 7.5-14.5 16.3-1.4 3.4-3.2 7.8-1.9 12.9 2.3 8.8 12.9 12.5 13.8 12.9 4.3 1.5 5.4.4 8.5 2.2 5 2.9 4.8 6.8 8.5 10.4 7.6 7.3 23 4.4 23.7 1.3.4-1.7-4-3.3-3.6-6.4.2-1.9 2.1-2.7 3.4-3.9 7-6.4.3-25.1-.9-28.2-1.1-2.9-2.8-7.1-5.8-11.8" fill="#fff" stroke="#161616" stroke-width="2" stroke-miterlimit="10"/><path d="M560.9 443.3c2.3 6 6.7 11.3 12.8 13.7 6.2 2.5 10.8-.8 10.9-7.4 0-1.9-3-1.9-3 0-.1 7.7-7.7 4.9-11.5 1.8-2.9-2.3-5-5.4-6.3-8.9-.7-1.8-3.6-1.1-2.9.8z" fill="#161616"/><path d="M568.4 435.1c3 5.6 7 11.8 13.2 14.1 5.6 2.1 8.9-1.3 9.5-6.6.2-1.9-2.8-1.9-3 0-.9 7.9-8.6 2.4-11.3-.4-2.4-2.5-4.2-5.5-5.8-8.6-.9-1.7-3.5-.2-2.6 1.5zM577.4 421.6c1.8 4 3.6 8.1 6.1 11.7 1.7 2.5 4.1 6.1 7.4 6.7 7.8 1.5 5.3-9.6 3.8-13.4-.7-1.8-3.6-1-2.9.8.7 1.7 2.2 5.2 1.6 7.1-1.7 5.5-6.3-1.3-7.3-2.7-2.5-3.6-4.3-7.7-6.1-11.7-.8-1.8-3.4-.3-2.6 1.5z" fill="#161616"/><path d="M578.9 417.1c3-1.5 6.7 1.2 8.8 3.2 2.1 2 3.5 4.6 4.6 7.2.7 1.8 3.6 1 2.9-.8-2.5-6.2-9.9-16.1-17.8-12.2-1.7.8-.2 3.4 1.5 2.6z" fill="#161616"/><path d="M795.8 386.4c3.2 9.5-1.7 17.6-15.4 42-23 40.6-24.4 44.2-29.7 50.6-12.5 15-19.6 23.5-32.7 29-23.9 10-50.4 1.2-64.9-4.3-13.5-5.2-23.5-11.9-30-16.9-4.4-3.6-7.8-6.4-10-8.1-4.6-3.7-6.7-5.3-8.5-8.5-.1-.1-1.8-3.2-2.2-6.7-1.5-10.7 9.1-19.7 9.9-20.4-12.7 3-17.1 2.4-17.9.6-1.9-4 11.9-18.7 21.6-15.4 4.6 1.5 6.9 6.7 8.6 10.5 3.3 7.2 2.9 13.9 2.5 17.3 6.1 4.2 14.8 9.1 25.9 12.4 21.9 6.4 40.7 3 50 .6 5.1-8.2 13.4-21.6 23.5-38.3 27.6-45.8 34.9-60.3 47.6-60.5 9.5-.1 18.9 7.8 21.7 16.1z" fill="#fff" stroke="#161616" stroke-width="2" stroke-miterlimit="10"/><path d="M611.4 445.7c-8.6-.4-9.8 10.7-10.9 17 1 .1 2 .3 2.9.4.1-4 1.9-7.3 3.8-10.7 1-1.7-1.6-3.2-2.6-1.5-3.9 6.3-6.3 14.1-.9 20.3l2.1-2.1c-1.5-1.3-2.3-3-2.4-5.1-1 .1-2 .3-2.9.4.5 1.6 1.1 3.1 1.9 4.6.9 1.7 3.5.2 2.6-1.5-.7-1.2-1.3-2.5-1.6-3.9-.4-1.6-3.1-1.3-2.9.4.3 2.9 1.2 5.1 3.3 7.2 1.4 1.4 3.4-.7 2.1-2.1-4.4-5.1-1.6-11.6 1.4-16.7-.9-.5-1.7-1-2.6-1.5-2.2 3.9-4.1 7.6-4.2 12.2-.1 1.7 2.7 2.1 2.9.4.8-4.6 1.5-15 8-14.8 1.9.1 1.9-2.9 0-3z" fill="#fff"/><path d="M780.5 374.4c-6.3 16.9-16.5 41-32.6 68.3-16.4 27.9-25 41.9-39.8 49.3-30.4 15.1-77.3 4.9-93.1-24-4.8-8.8-5.9-17.7-5.9-24.4-3.8 1.3-9.7 2.7-15.4.5-12.8-5.1-14-24.2-20.8-24-4.5.2-7.8 8.7-9 11.8-1.1 2.8-2.9 7.4-1.8 12.2 1.6 7.1 9.1 12.7 18.5 14.5 4.9 2.4 8 5.1 9.9 7.2 3.3 3.6 4.2 6.4 7.7 8.1 3.1 1.5 6.4 1.3 8.6.9 4.7 3.8 12.1 9.5 21.7 15.4 20.6 12.6 45.5 27.8 73.7 22.6 13.3-2.4 22.4-8.5 28-12.2 9.1-6.1 18.9-15.3 37.5-48.8 7.7-13.9 17.2-32.4 26.7-55.2.4-1 2.6-6.9-.5-13.1-3.8-8.2-12.9-9.1-13.4-9.1z" opacity=".21" fill="#6d6c6c"/><path d="M591.3 443.9c-1.4 1-.8 3-2.5 4.5-1.2 1-2.8 1-3.8 1 0 1.4-.2 3.2-1.3 4.8-1.4 2-3.3 2.4-3.2 3.2.2.9 3 .4 5.7 1.9 1.9 1.1 3.1 2.8 3.8 4.1 6.6-6.3 13.2-12.5 19.8-18.8-5 1.9-8.7 1.6-11.2 1-3.2-1-5.6-2.9-7.3-1.7z" opacity=".22" fill="#6d6c6c"/></g><g><path d="M795 366.8c-6.7 6.7-10.2 14.3-17 29.5-5.4 11.9-14.1 31.8-17 58.3-3.2 29.6 4.3 36.3-1.7 58.3-4.5 16.6-13 28.8-19.3 36.2 8.1 8.1 22.8 20.6 44.7 28.3 37.1 13 69.7 3.2 80.4-.6 8.9-24 17.7-48 26.6-71.9.1-20.3.9-37.6 1.7-51 2-32 5.3-56.5 7.4-71.4 2.4-17.5 4.9-32.2 6.8-43-22.5 1.2-41.1 3.8-54.4 6.2-43.6 8-53.9 16.8-58.2 21.1z" fill="#fff" stroke="#161616" stroke-width="2" stroke-miterlimit="10"/><path d="M848 346.4c4.5 10.7 10.3 28 11.6 49.7 3.1 51.6-21.8 92-40.7 122.6-8.6 13.9-21.9 33.2-41.6 54.1 7.6 4 18.5 8.5 32.2 10.7 24.8 4 45-2 55-5.8 8.4-24.2 16.7-48.3 25.1-72.5.5-16.5 1.4-33.6 2.7-51 3-40.6 7.9-78.7 13.9-114.1l-58.2 6.3z" opacity=".19" fill="#6d6c6c"/><path d="M865.9 343.3c7.2 18.6 14.7 45.7 13 78.3-4.8 90.7-76.6 145.6-89 154.8 7.6 2.7 17.9 5.5 30.4 6.3 18.6 1.2 33.7-2.6 43-5.8 9.2-24.2 18.5-48.3 27.7-72.5 0-22.1.8-45.7 2.7-70.7 2.6-33.7 6.9-64.9 12.1-93.1l-39.9 2.7z" opacity=".11" fill="#6d6c6c"/></g><g><path d="M903.9 338.2c8.1 3 20 8.8 28.6 20.5 9.6 13.1 11.7 28.9 6.2 79-5.1 46.6-9.5 56.6-11.2 84.6-1.9 30.8 1 56 3.7 72.1l34.2-8.1c12.4 3.3 19.9 9.4 23.6 13.1 3.7 3.6 11.5 11.2 9.3 17.4-1.4 4-6.5 6-8.7 6.8-4.3 1.7-7.9 1.5-11.8 1.2-8.3-.5-16.6-.8-24.9-1.2-4.3-.2-10.5-.4-18 0 10.1 8.7 14.4 14.3 13.1 16.8-1.8 3.3-13.8 1-36.1-6.8-1-8.1-2.6-20.4-5-35.4-6.2-39.2-10.7-53.2-13.7-74-3.1-21.5-2.1-40.9 0-79.6 1.6-27.4 4.5-63.6 10.7-106.4z" fill="#fff" stroke="#161616" stroke-width="2" stroke-miterlimit="10"/><path d="M950.3 610.3c7.7-3.2 15.7-1.4 23.1 1.9 6.3 2.7 12.5 6 17.4 10.8 1.4 1.3 3.5-.8 2.1-2.1-5.7-5.5-12.8-9.2-20.1-12.1-7.5-3.1-15.6-4.5-23.4-1.3-1.6.6-.8 3.5.9 2.8zM960.1 601.1c13.3-2.6 29.1 5.3 36.4 16.6 1.1 1.6 3.7.1 2.6-1.5-8.2-12.5-25-20.8-39.8-17.9-1.9.3-1.1 3.2.8 2.8zM971.6 594.2c5.3.2 9.9 2.5 14.5 5 1.7.9 3.2-1.7 1.5-2.6-5.1-2.7-10.2-5.2-16-5.4-1.9-.1-1.9 2.9 0 3z" fill="#161616"/><path d="M905.3 340.6c5 11.3 12.1 29.7 15.7 53.3 8.7 57.8-12.7 87.9-8.9 150.4.9 15.5 3.8 38.6 13 66.7 8-2.6 20.2-5.2 34.5-3.6 10.1 1.2 15.1 1.8 20.1 5.4 5 3.6 7.9 8.4 13 8.1 2-.1 4.7-1 5.8-3.1 2.7-4.9-4.7-13.3-7.2-16.1-3.6-4.1-11-11.1-24.6-15.2l-35.4 7.2c-2.3-10.2-5.5-27.2-5.8-48.3-.3-18 2.9-39.8 9.4-82.8 1.2-8 2.7-24.1 5.8-56.4 1-10.6 1.8-20.1-1.8-31.8-1.8-5.9-6.2-19.3-19.2-27.7-5.5-3.8-10.8-5.3-14.4-6.1z" opacity=".16" fill="#6d6c6c"/><path d="M927.2 623c1.3 3.2 4.1 8.7 9.8 13 3.5 2.6 9.6 5.8 10.7 4.5 1.4-1.6-3.9-10.4-12.1-14.8-3.1-1.7-6.2-2.4-8.4-2.7z" opacity=".22" fill="#6d6c6c"/><path d="M938.4 422.9c-9.1 25-20 65.1-17 114.6 1.5 25.3 6.4 47.1 11.6 64.4-5.2-19.8-6.7-36.2-7.2-47.4-1.2-29.9 4.2-46.7 9.8-101.6 1.4-12.7 2.3-23.2 2.8-30z" opacity=".4" fill="#6d6c6c"/><path d="M958.6 598.8c-.2-1.2 9.8-5.8 19.7-3.6 13.3 3 19.5 17 20.6 19.7-4.7-5.3-12.3-12.2-23.3-14.8-9.3-2.1-16.9-.3-17-1.3z" opacity=".22" fill="#6d6c6c"/></g><g><path d="M758.2 317.7c-4.2 3.9-5.1 12.1-6.8 28.2-1.9 18.5-2.7 27.9 1.2 32.6 7.1 8.6 22.4 9.1 33 4.4 12.5-5.6 16.8-17.7 17.9-20.7 4.9-13.9 3.3-34.9-11.5-44.5-10-6.6-25.5-7.7-33.8 0z" fill="#5222d0"/><path d="M779.8 332.3c1.5 7.2 9.5 7.8 16.3 19.3 4.9 8.3 5.9 16.8 6 22.9 6.1-.1 17.4-1.3 29.6-7.6 9.5-5 15.9-11.3 19.6-15.6-2.5-4.1-6.2-10.1-10.6-17.3-19-30.5-21.8-32.9-25.6-33.9-15.4-3.7-38.2 18.8-35.3 32.2z" fill="#fff" stroke="#161616" stroke-width="2" stroke-miterlimit="10"/><path d="M810.9 320.2c-4.6 9.7-9.3 19.3-15.7 28l2.4-.3c-.6-.7-1.2-1.5-1.7-2.2-.1.6-.2 1.2-.2 1.8 2.6-2.2 4.6-4.6 6.4-7.5-.9-.5-1.7-1-2.6-1.5-1.4 3-3.2 4.8-6.1 6.1l1.8 2.4c5.2-4.9 9.9-10.3 14.1-16.1 1.1-1.6-1.5-3.1-2.6-1.5-4 5.6-8.6 10.8-13.6 15.5-1.3 1.2.4 3 1.8 2.4 3.3-1.5 5.7-3.9 7.2-7.2.8-1.7-1.5-3.2-2.6-1.5-1.7 2.6-3.6 4.8-5.9 6.9-.5.4-.6 1.3-.2 1.8.9 1.4 1 1.6 2.2 2.8.7.8 1.8.4 2.4-.3 6.4-8.6 11.1-18.3 15.7-28 .6-1.8-2-3.3-2.8-1.6z" fill="#161616"/><path d="M714 243.4c-4.6 8.5-3.5 17.1-1.3 33.9 2.6 19 6 34.9 10.1 45.4.6 1.6 2.2 2.5 3.9 2.3 2.2-.2 5.5-1.9 7.4-2.5 2.4 4.3 6.4 10.1 12.6 15.5 12.3 10.6 25.8 13.1 31.8 13.8 5.9-2.2 20.5-8.7 30.2-24.3 6.4-10.4 7.7-20 8-22.2 1.7-14.4-3.1-25.6-5.4-30.2 2.1-1.3 5.3-3.6 7.5-7.5 4.6-8.1 4.4-21.5-2.9-25.1-5.5-2.7-14.2.3-20.1 8-1.9-3.3-4.8-7.7-9.2-12.1-1.1-1.1-9.2-9.3-18.4-13-18-7.1-44.8.7-54.2 18z" fill="#fff" stroke="#161616" stroke-width="2" stroke-miterlimit="10"/><path d="M740.4 331.7c6.9-1.8 10.9-7.6 14.4-13.3 1-1.6-1.6-3.1-2.6-1.5-3.1 5-6.6 10.3-12.6 12-1.9.4-1.1 3.3.8 2.8z" fill="#161616"/><path d="M749.5 318.2c2 .1 3.6.9 4.9 2.4 1.3 1.5 3.4-.7 2.1-2.1-1.8-2.1-4.3-3.2-7-3.3-2 0-2 3 0 3zM741.9 301.7v-.3c0-.8-.7-1.5-1.5-1.5s-1.5.7-1.5 1.5v.3c0 .8.7 1.5 1.5 1.5.8-.1 1.5-.7 1.5-1.5zM748.6 293.7c1.9 0 1.9-3 0-3s-1.9 3 0 3zM747.7 301.3c1.9 0 1.9-3 0-3s-1.9 3 0 3z" fill="#161616"/><path d="M709.7 277.5c-3.2-1.1-10-4-13.9-10.7-6.1-10.4-1.2-22.5 1.2-28.2 1.3-3.2 4.9-11.1 22.3-26.6 13.2-11.9 19.9-17.8 27.4-21.1 26.8-11.7 54.2-.5 59.2 1.6 7.4 3 12.8 6.7 23.5 13.9 13 8.8 21.3 14.5 27.8 24.3 7.9 12 3.1 15.1 9.9 28.6 10.8 21.4 25.7 18.8 34.6 38.6 1.5 3.3 9.8 21.7.4 37.8-7.7 13.1-23.4 17.8-35 17.5-21.5-.6-35-19-42.1-28.6-13.5-18.3-16.1-37.7-16.7-48.1 8.5-4.3 11.8-13.5 8.7-19.9-2.4-5.1-9.4-9.4-15.5-6.8-4.2 1.8-6.9 6.6-6.8 11.9-4 .7-16.3 2.2-29-4.8-9.4-5.1-14.5-12.3-16.7-15.9-5.6 2.2-14.6 6.4-23.5 14.7-8.5 8-13.3 16.4-15.8 21.8z" fill="#5222d0"/><path d="M774.9 283.3c11.1 10.4 16.5 21.9 18.2 25.8 7 16 6.6 30.7 5.9 38.2 3.6-6.1 7.1-12.2 10.7-18.4 5.8 13 11.5 26 17.3 38.9 3.1-.7 9.2-2.5 15.1-7.7 4.5-4 6.9-8.3 8.1-11-8.4-6-24.9-19.6-34.5-43-4.6-11.2-6.4-21.6-7-29.4 8.1-4.4 11.5-13.2 8.8-19.8-1.9-4.8-7.8-10.2-14.3-8.4-5.5 1.5-9.3 7.4-8.4 14-4.2.5-14.2 1.2-25.3-3.7-11.5-5.1-17.8-13.4-20.2-16.9 2.7 17.7 9.5 27.3 15.2 32.8 3.6 3.7 5.1 3.7 10.4 8.6z" opacity=".24" fill="#6d6c6c"/><path d="M808.9 288.1c-.7 0-.3 10.3-1.3 19.8-1.3 12.2-4.9 21.9-7.9 28.4 2.7-1.7 6.7-4.9 10.2-9.9 5-7.3 5.9-14.5 6.2-18-.9-1.4-2.1-3.4-3.2-5.9-3.5-8-3.4-14.4-4-14.4z" opacity=".24" fill="#6d6c6c"/><path d="M812.4 322.8c2.4 2.5 5.8 5.8 10.2 9.4 13.3 11.1 26.2 17.4 26.6 16.7.4-.7-12.2-5.8-21.8-19.6-6-8.6-9.5-18.8-11-18.3-.7.2-.1 2.6-1.3 6.5-.8 2.3-1.9 4.1-2.7 5.3z" opacity=".19" fill="#6d6c6c"/><path d="M823.5 202.7c11.8 20.4 20.2 38.2 25.9 51.4 15.9 37.1 14.6 47.3 12.4 53.9-4.9 14.9-18.5 23.3-26.6 27.3 2 2.8 10.3 13.9 25.5 17 2.9.6 20.4 3.9 33.7-8.2 9.9-8.9 11.4-20.7 11.7-23.8 1.8-16.8-8.2-29.4-11.4-33-4.2-4.7-5.1-3.6-14.9-13.1-7.6-7.3-11.3-11-13.5-15.6-3.5-7.5-1.2-10.7-5.3-20.2-2.2-5.2-4.8-8.7-6.7-11.4-9.7-13.1-23.7-20.8-30.8-24.3z" opacity=".74" fill="#2c167c"/><path d="M752.4 351.2c.9 11.6 11.5 20 22.6 18.4 10.7-1.6 18.4-12 16.5-23.1 2 2.3 4.8 6.1 6.8 11.3 1.6 4.1 2.2 7.8 2.4 10.5-1.5 2.5-9.3 14.9-23.9 17.3-2.5.4-16.7 2.5-23.4-6-3.2-4.2-3.5-9.3-3.7-13.4-.2-6.7 1.5-12 2.7-15z" opacity=".52" fill="#2c167c"/><path d="M733.6 285.2c1 2 1 4.9-.3 5.5-1.3.7-3.8-1.2-4.7-3.4-.7-1.9-.5-4.6.8-5.1 1.4-.5 3.4 1.3 4.2 3zM725.4 282.9c3.5-1.2 7.1-2.1 10.8-2.7 1.4-.2.8-2.4-.6-2.2-3.7.6-7.3 1.5-10.8 2.7-1.4.5-.8 2.6.6 2.2z" fill="#161616"/></g></svg>